{
.appVersion = "1352";
copyright = "Copyright 2003 The Twinkle Star Project Authors (https://github.com/googlefonts/twinkle-star)";
customParameters = (
{
name = note;
value = "The main glyphs are comprised from Twinkle Star Two\012\012The ss01 glyphs are comprised from Twinkle Star One";
},
{
name = licenseURL;
value = "https://scripts.sil.org/OFL";
},
{
name = license;
value = "This Font Software is licensed under the SIL Open Font License, Version 1.1. This license is available with a FAQ at: https://scripts.sil.org/OFL";
},
{
name = vendorID;
value = GOOG;
},
{
name = "Disable Subroutines";
value = 1;
},
{
name = glyphOrder;
value = (
.notdef,
CR,
.null,
space,
nbspace
);
},
{
name = fsType;
value = (
);
},
{
name = "Use Typo Metrics";
value = 1;
}
);
date = "2021-10-06 17:35:54 +0000";
designer = "Robert E. Leuschke";
designerURL = www.typesetit.com;
disablesNiceNames = 1;
familyName = "Twinkle Star";
featurePrefixes = (
{
automatic = 1;
code = "languagesystem DFLT dflt;\012\012languagesystem latn dflt;\012languagesystem latn AZE;\012languagesystem latn CRT;\012languagesystem latn KAZ;\012languagesystem latn TAT;\012languagesystem latn TRK;\012languagesystem latn ROM;\012languagesystem latn MOL;\012languagesystem latn CAT;\012";
name = Languagesystems;
}
);
features = (
{
automatic = 1;
code = "feature locl;\012feature sups;\012feature frac;\012feature ordn;\012feature salt;\012feature ss01;\012";
name = aalt;
},
{
automatic = 1;

glyphs = (
{
glyphname = .notdef;
lastChange = "2021-10-07 06:42:04 +0000";
layers = (
{
layerId = "2ADFC918-CAA7-4AF7-825A-5AAC412EF250";
paths = (
{
closed = 1;
nodes = (
"469 0 LINE",
"478 8 LINE",
"478 621 LINE",
"469 630 LINE",
"48 630 LINE",
"40 620 LINE",
"40 9 LINE",
"48 0 LINE"
);
},
{
closed = 1;
nodes = (
"144 150 LINE",
"234 316 LINE",
"144 479 LINE",
"163 514 LINE",
"253 350 LINE",
"344 514 LINE",
"363 479 LINE",
"273 314 LINE",
"363 150 LINE",
"344 116 LINE",
"253 279 LINE",
"163 116 LINE"
);
},
{
closed = 1;
nodes = (
"57 613 LINE",
"461 613 LINE",
"461 16 LINE",
"57 16 LINE"
);
},
{
closed = 1;
nodes = (
"427 49 LINE",
"427 577 LINE",
"92 577 LINE",
"92 49 LINE"
);
}
);
width = 518;
}
);
note = .notdef;
},
{
glyphname = A;
lastChange = "2021-10-07 03:38:32 +0000";
layers = (
{
anchors = (
{
name = bottom;
position = "{618, 0}";
},
{
name = ogonek;
position = "{941, -54}";
},
{
name = top;
position = "{687, 752}";
}
);
hints = (
{
horizontal = 1;
place = "{-48, 37}";
type = Stem;
},
{
horizontal = 1;
place = "{299, 40}";
type = Stem;
},
{
place = "{676, 12}";
type = Stem;
}
);
layerId = "2ADFC918-CAA7-4AF7-825A-5AAC412EF250";
paths = (
{
closed = 1;
nodes = (
"972 -12 OFFCURVE",
"964 4 OFFCURVE",
"942 0 CURVE",
"879 -22 OFFCURVE",
"813 232 OFFCURVE",
"798 288 CURVE",
"843 293 OFFCURVE",
"825 337 OFFCURVE",
"799 337 CURVE SMOOTH",
"795 337 OFFCURVE",
"791 336 OFFCURVE",
"787 336 CURVE",
"761 443 OFFCURVE",
"740 550 OFFCURVE",
"719 658 CURVE SMOOTH",
"714 683 OFFCURVE",
"711 706 OFFCURVE",
"688 706 CURVE",
"670 706 OFFCURVE",
"662 693 OFFCURVE",
"656 676 CURVE SMOOTH",
"627 586 OFFCURVE",
"557 426 OFFCURVE",
"516 340 CURVE",
"493 335 OFFCURVE",
"449 319 OFFCURVE",
"442 295 CURVE SMOOTH",
"433 264 OFFCURVE",
"473 255 OFFCURVE",
"488 280 CURVE",
"426 144 OFFCURVE",
"336 -56 OFFCURVE",
"157 -40 CURVE SMOOTH",
"137 -38 OFFCURVE",
"116 -29 OFFCURVE",
"99 -18 CURVE SMOOTH",
"45 18 OFFCURVE",
"27 77 OFFCURVE",
"32 141 CURVE SMOOTH",
"40 230 OFFCURVE",
"99 306 OFFCURVE",
"190 314 CURVE SMOOTH",
"217 317 OFFCURVE",
"248 312 OFFCURVE",
"272 299 CURVE SMOOTH",
"353 255 OFFCURVE",
"321 121 OFFCURVE",
"244 124 CURVE SMOOTH",
"222 125 OFFCURVE",
"218 133 OFFCURVE",
"199 138 CURVE SMOOTH",
"167 147 OFFCURVE",
"156 109 OFFCURVE",
"178 94 CURVE SMOOTH",
"187 87 OFFCURVE",
"219 79 OFFCURVE",
"229 78 CURVE SMOOTH",
"380 56 OFFCURVE",
"417 276 OFFCURVE",
"294 343 CURVE SMOOTH",
"263 360 OFFCURVE",
"226 367 OFFCURVE",
"191 364 CURVE SMOOTH",
"-22 348 OFFCURVE",
"-94 49 OFFCURVE",
"75 -61 CURVE SMOOTH",
"97 -76 OFFCURVE",
"124 -87 OFFCURVE",
"152 -89 CURVE SMOOTH",
"379 -108 OFFCURVE",
"470 129 OFFCURVE",
"550 294 CURVE",
"615 293 OFFCURVE",
"681 289 OFFCURVE",
"746 289 CURVE",
"767 207 OFFCURVE",
"831 -54 OFFCURVE",
"941 -54 CURVE SMOOTH",
"958 -54 OFFCURVE",
"968 -38 OFFCURVE",
"970 -26 CURVE SMOOTH"
);
},
{
closed = 1;
nodes = (
"681 339 OFFCURVE",
"628 344 OFFCURVE",
"574 345 CURVE",
"611 425 OFFCURVE",
"652 511 OFFCURVE",
"682 595 CURVE",
"701 503 OFFCURVE",
"716 420 OFFCURVE",
"735 338 CURVE"
);
},
{
closed = 1;
nodes = (
"491 286 OFFCURVE",
"490 285 OFFCURVE",
"490 283 CURVE",
"490 285 OFFCURVE",
"490 286 OFFCURVE",
"492 288 CURVE"
);
}
);
width = 973;
}
);
note = A;
unicode = 0041;
},
{
glyphname = AE;
lastChange = "2021-10-07 06:56:05 +0000";
layers = (
{
anchors = (
{
name = bottom;
position = "{1294.724, -36.555}";
},
{
name = ogonek;
position = "{1291.307, -37.259}";
},
{
name = top;
position = "{1318.867, 752}";
},
{
name = topleft;
position = "{993, 705}";
}
);
background = {
paths = (
{
closed = 1;
nodes = (
"1307 181 OFFCURVE",
"1308 203 OFFCURVE",
"1301 228 CURVE SMOOTH",
"1290 268 OFFCURVE",
"1257 305 OFFCURVE",
"1210 305 CURVE SMOOTH",
"1202 305 OFFCURVE",
"1176 301 OFFCURVE",
"1168 292 CURVE SMOOTH",
"1119 238 OFFCURVE",
"1215 254 OFFCURVE",
"1211 254 CURVE SMOOTH",
"1259 255 OFFCURVE",
"1257 196 OFFCURVE",
"1256 162 CURVE SMOOTH",
"1255 141 OFFCURVE",
"1246 120 OFFCURVE",
"1235 102 CURVE SMOOTH",
"1192 36 OFFCURVE",
"1103 7 OFFCURVE",
"1026 3 CURVE SMOOTH",
"903 -3 OFFCURVE",
"777 52 OFFCURVE",
"777 189 CURVE SMOOTH",
"777 269 OFFCURVE",
"840 334 OFFCURVE",
"913 370 CURVE",
"949 346 OFFCURVE",
"990 332 OFFCURVE",
"1031 330 CURVE SMOOTH",
"1105 327 OFFCURVE",
"1147 348 OFFCURVE",
"1153 379 CURVE SMOOTH",
"1160 416 OFFCURVE",
"1131 440 OFFCURVE",
"1059 448 CURVE SMOOTH",
"1014 452 OFFCURVE",
"962 441 OFFCURVE",
"920 426 CURVE",
"889 453 OFFCURVE",
"868 488 OFFCURVE",
"868 525 CURVE SMOOTH",
"868 642 OFFCURVE",
"964 687 OFFCURVE",
"1070 687 CURVE SMOOTH",
"1121 687 OFFCURVE",
"1183 662 OFFCURVE",
"1185 606 CURVE SMOOTH",
"1186 594 OFFCURVE",
"1182 579 OFFCURVE",
"1175 569 CURVE SMOOTH",
"1162 551 OFFCURVE",
"1121 560 OFFCURVE",
"1118 574 CURVE",
"1118 577 OFFCURVE",
"1121 584 OFFCURVE",
"1121 588 CURVE SMOOTH",
"1123 637 OFFCURVE",
"1072 621 OFFCURVE",
"1072 589 CURVE SMOOTH",
"1071 518 OFFCURVE",
"1169 472 OFFCURVE",
"1217 542 CURVE SMOOTH",
"1230 560 OFFCURVE",
"1236 583 OFFCURVE",
"1236 605 CURVE SMOOTH",
"1234 691 OFFCURVE",
"1143 736 OFFCURVE",
"1070 736 CURVE SMOOTH",
"941 736 OFFCURVE",
"818 671 OFFCURVE",
"818 524 CURVE SMOOTH",
"818 477 OFFCURVE",
"839 436 OFFCURVE",
"870 403 CURVE",
"791 359 OFFCURVE",
"730 285 OFFCURVE",
"730 188 CURVE SMOOTH",
"730 -139 OFFCURVE",
"1279 -98 OFFCURVE",
"1305 159 CURVE SMOOTH"
);
},
{
closed = 1;
nodes = (
"980 413 OFFCURVE",
"1109 433 OFFCURVE",
"1103 387 CURVE SMOOTH",
"1099 353 OFFCURVE",
"977 372 OFFCURVE",
"958 396 CURVE"
);
}
);
};
hints = (
{
horizontal = 1;
place = "{-32, 48}";
type = Stem;
},
{
horizontal = 1;
place = "{403, 53}";
type = Stem;
},
{
horizontal = 1;
place = "{626, 47}";
type = Stem;
},
{
place = "{462, 51}";
type = Stem;
},
{
horizontal = 1;
place = "{-48, 37}";
type = Stem;
},
{
horizontal = 1;
place = "{299, 40}";
type = Stem;
},
{
place = "{676, 12}";
type = Stem;
},
{
horizontal = 1;
place = "{-39, 36}";
type = Stem;
},
{
horizontal = 1;
place = "{338, 37}";
type = Stem;
},
{
horizontal = 1;
place = "{693, 37}";
type = Stem;
},
{
place = "{990, 36}";
type = Stem;
},
{
place = "{1079, 37}";
type = Stem;
}
);
layerId = "2ADFC918-CAA7-4AF7-825A-5AAC412EF250";
paths = (
{
closed = 1;
nodes = (
"787 336 LINE",
"761 443 OFFCURVE",
"740 550 OFFCURVE",
"719 658 CURVE SMOOTH",
"714 683 OFFCURVE",
"711 706 OFFCURVE",
"688 706 CURVE",
"670 706 OFFCURVE",
"662 693 OFFCURVE",
"656 676 CURVE SMOOTH",
"627 586 OFFCURVE",
"557 426 OFFCURVE",
"516 340 CURVE",
"493 335 OFFCURVE",
"449 319 OFFCURVE",
"442 295 CURVE SMOOTH",
"433 264 OFFCURVE",
"473 255 OFFCURVE",
"488 280 CURVE",
"426 144 OFFCURVE",
"336 -56 OFFCURVE",
"157 -40 CURVE SMOOTH",
"137 -38 OFFCURVE",
"116 -29 OFFCURVE",
"99 -18 CURVE SMOOTH",
"45 18 OFFCURVE",
"27 77 OFFCURVE",
"32 141 CURVE SMOOTH",
"40 230 OFFCURVE",
"99 306 OFFCURVE",
"190 314 CURVE SMOOTH",
"217 317 OFFCURVE",
"248 312 OFFCURVE",
"272 299 CURVE SMOOTH",
"353 255 OFFCURVE",
"321 121 OFFCURVE",
"244 124 CURVE SMOOTH",
"222 125 OFFCURVE",
"218 133 OFFCURVE",
"199 138 CURVE SMOOTH",
"167 147 OFFCURVE",
"156 109 OFFCURVE",
"178 94 CURVE SMOOTH",
"187 87 OFFCURVE",
"219 79 OFFCURVE",
"229 78 CURVE SMOOTH",
"380 56 OFFCURVE",
"417 276 OFFCURVE",
"294 343 CURVE SMOOTH",
"263 360 OFFCURVE",
"226 367 OFFCURVE",
"191 364 CURVE SMOOTH",
"-22 348 OFFCURVE",
"-94 49 OFFCURVE",
"75 -61 CURVE SMOOTH",
"97 -76 OFFCURVE",
"124 -87 OFFCURVE",
"152 -89 CURVE SMOOTH",
"379 -108 OFFCURVE",
"470 129 OFFCURVE",
"550 294 CURVE",
"615 293 OFFCURVE",
"722 289 OFFCURVE",
"787 289 CURVE"
);
},
{
closed = 1;
nodes = (
"681 339 OFFCURVE",
"628 344 OFFCURVE",
"574 345 CURVE",
"611 425 OFFCURVE",
"652 511 OFFCURVE",
"682 595 CURVE",
"701 503 OFFCURVE",
"716 420 OFFCURVE",
"735 338 CURVE"
);
},
{
closed = 1;
nodes = (
"491 286 OFFCURVE",
"490 285 OFFCURVE",
"490 283 CURVE",
"490 285 OFFCURVE",
"490 286 OFFCURVE",
"492 288 CURVE"
);
},
{
closed = 1;
nodes = (
"1307 181 OFFCURVE",
"1308 203 OFFCURVE",
"1301 228 CURVE SMOOTH",
"1290 268 OFFCURVE",
"1257 305 OFFCURVE",
"1210 305 CURVE SMOOTH",
"1202 305 OFFCURVE",
"1176 301 OFFCURVE",
"1168 292 CURVE SMOOTH",
"1119 238 OFFCURVE",
"1215 254 OFFCURVE",
"1211 254 CURVE SMOOTH",
"1259 255 OFFCURVE",
"1257 196 OFFCURVE",
"1256 162 CURVE SMOOTH",
"1255 141 OFFCURVE",
"1246 120 OFFCURVE",
"1235 102 CURVE SMOOTH",
"1192 36 OFFCURVE",
"1103 7 OFFCURVE",
"1026 3 CURVE SMOOTH",
"903 -3 OFFCURVE",
"777 52 OFFCURVE",
"777 189 CURVE SMOOTH",
"777 269 OFFCURVE",
"840 334 OFFCURVE",
"913 370 CURVE",
"949 346 OFFCURVE",
"990 332 OFFCURVE",
"1031 330 CURVE SMOOTH",
"1105 327 OFFCURVE",
"1147 348 OFFCURVE",
"1153 379 CURVE SMOOTH",
"1160 416 OFFCURVE",
"1131 440 OFFCURVE",
"1059 448 CURVE SMOOTH",
"1014 452 OFFCURVE",
"962 441 OFFCURVE",
"920 426 CURVE",
"889 453 OFFCURVE",
"868 488 OFFCURVE",
"868 525 CURVE SMOOTH",
"868 642 OFFCURVE",
"964 687 OFFCURVE",
"1070 687 CURVE SMOOTH",
"1121 687 OFFCURVE",
"1183 662 OFFCURVE",
"1185 606 CURVE SMOOTH",
"1186 594 OFFCURVE",
"1182 579 OFFCURVE",
"1175 569 CURVE SMOOTH",
"1162 551 OFFCURVE",
"1121 560 OFFCURVE",
"1118 574 CURVE",
"1118 577 OFFCURVE",
"1121 584 OFFCURVE",
"1121 588 CURVE SMOOTH",
"1123 637 OFFCURVE",
"1072 621 OFFCURVE",
"1072 589 CURVE SMOOTH",
"1071 518 OFFCURVE",
"1169 472 OFFCURVE",
"1217 542 CURVE SMOOTH",
"1230 560 OFFCURVE",
"1236 583 OFFCURVE",
"1236 605 CURVE SMOOTH",
"1234 691 OFFCURVE",
"1143 736 OFFCURVE",
"1070 736 CURVE SMOOTH",
"941 736 OFFCURVE",
"818 671 OFFCURVE",
"818 524 CURVE SMOOTH",
"818 477 OFFCURVE",
"839 436 OFFCURVE",
"870 403 CURVE",
"791 359 OFFCURVE",
"730 285 OFFCURVE",
"730 188 CURVE SMOOTH",
"730 -139 OFFCURVE",
"1279 -98 OFFCURVE",
"1305 159 CURVE SMOOTH"
);
},
{
closed = 1;
nodes = (
"980 413 OFFCURVE",
"1109 433 OFFCURVE",
"1103 387 CURVE SMOOTH",
"1099 353 OFFCURVE",
"977 372 OFFCURVE",
"958 396 CURVE"
);
}
);
width = 1308;
}
);
note = AE;
unicode = 00C6;
},
{
glyphname = B;
lastChange = "2021-10-07 06:49:47 +0000";
layers = (
{
hints = (
{
horizontal = 1;
place = "{-39, 41}";
type = Stem;
},
{
horizontal = 1;
place = "{652, 37}";
type = Stem;
},
{
place = "{-12, 37}";
type = Stem;
},
{
place = "{175, 37}";
type = Stem;
},
{
place = "{506, 36}";
type = Stem;
}
);
layerId = "2ADFC918-CAA7-4AF7-825A-5AAC412EF250";
paths = (
{
closed = 1;
nodes = (
"104 676 OFFCURVE",
"412 672 OFFCURVE",
"484 551 CURVE SMOOTH",
"524 483 OFFCURVE",
"486 429 OFFCURVE",
"421 395 CURVE",
"388 399 OFFCURVE",
"359 410 OFFCURVE",
"301 398 CURVE SMOOTH",
"259 389 OFFCURVE",
"263 351 OFFCURVE",
"295 334 CURVE SMOOTH",
"316 323 OFFCURVE",
"384 320 OFFCURVE",
"431 342 CURVE",
"495 322 OFFCURVE",
"547 278 OFFCURVE",
"557 206 CURVE SMOOTH",
"569 117 OFFCURVE",
"495 54 OFFCURVE",
"416 26 CURVE SMOOTH",
"377 12 OFFCURVE",
"336 6 OFFCURVE",
"295 5 CURVE SMOOTH",
"268 4 OFFCURVE",
"242 7 OFFCURVE",
"216 8 CURVE",
"219 29 LINE SMOOTH",
"232 120 OFFCURVE",
"229 207 OFFCURVE",
"228 299 CURVE SMOOTH",
"227 344 OFFCURVE",
"226 389 OFFCURVE",
"228 434 CURVE SMOOTH",
"230 468 OFFCURVE",
"235 502 OFFCURVE",
"249 533 CURVE SMOOTH",
"252 539 OFFCURVE",
"256 544 OFFCURVE",
"258 550 CURVE SMOOTH",
"264 564 OFFCURVE",
"270 582 OFFCURVE",
"253 592 CURVE SMOOTH",
"247 596 OFFCURVE",
"237 593 OFFCURVE",
"234 592 CURVE SMOOTH",
"197 577 OFFCURVE",
"182 471 OFFCURVE",
"179 437 CURVE SMOOTH",
"171 326 OFFCURVE",
"181 214 OFFCURVE",
"176 102 CURVE SMOOTH",
"175 79 OFFCURVE",
"173 56 OFFCURVE",
"170 33 CURVE SMOOTH",
"168 16 LINE",
"106 31 OFFCURVE",
"32 63 OFFCURVE",
"32 131 CURVE SMOOTH",
"32 165 OFFCURVE",
"50 216 OFFCURVE",
"84 221 CURVE SMOOTH",
"89 222 OFFCURVE",
"90 222 OFFCURVE",
"92 222 CURVE",
"98 220 OFFCURVE",
"103 218 OFFCURVE",
"109 218 CURVE",
"134 214 OFFCURVE",
"146 253 OFFCURVE",
"120 266 CURVE SMOOTH",
"109 271 OFFCURVE",
"86 271 OFFCURVE",
"76 270 CURVE SMOOTH",
"12 260 OFFCURVE",
"-21 186 OFFCURVE",
"-18 130 CURVE SMOOTH",
"-13 30 OFFCURVE",
"71 -11 OFFCURVE",
"154 -30 CURVE",
"151 -34 LINE",
"101 -53 OFFCURVE",
"159 -127 OFFCURVE",
"201 -38 CURVE",
"233 -42 OFFCURVE",
"265 -45 OFFCURVE",
"297 -44 CURVE SMOOTH",
"435 -40 OFFCURVE",
"631 38 OFFCURVE",
"606 213 CURVE SMOOTH",
"594 292 OFFCURVE",
"546 344 OFFCURVE",
"484 374 CURVE",
"521 404 OFFCURVE",
"548 445 OFFCURVE",
"549 496 CURVE SMOOTH",
"553 634 OFFCURVE",
"392 689 OFFCURVE",
"285 695 CURVE SMOOTH",
"205 700 OFFCURVE",
"61 669 OFFCURVE",
"30 582 CURVE SMOOTH",
"19 550 OFFCURVE",
"51 528 OFFCURVE",
"61 555 CURVE SMOOTH"
);
}
);
width = 625;
}
);
note = B;
unicode = 0042;
},
{
glyphname = C;
lastChange = "2021-10-07 04:08:20 +0000";
layers = (
{
anchors = (
{
name = bottom;
position = "{361, -28}";
},
{
name = top;
position = "{345, 752}";
}
);
hints = (
{
horizontal = 1;
place = "{-43, 37}";
type = Stem;
},
{
horizontal = 1;
place = "{684, 36}";
type = Stem;
},
{
place = "{1, 37}";
type = Stem;
},
{
place = "{595, 37}";
type = Stem;
}
);
layerId = "2ADFC918-CAA7-4AF7-825A-5AAC412EF250";
paths = (
{
closed = 1;
nodes = (
"623 175 OFFCURVE",
"616 187 OFFCURVE",
"607 187 CURVE SMOOTH",
"576 187 OFFCURVE",
"584 156 OFFCURVE",
"570 132 CURVE SMOOTH",
"539 79 OFFCURVE",
"473 38 OFFCURVE",
"417 22 CURVE SMOOTH",
"389 14 OFFCURVE",
"363 11 OFFCURVE",
"335 11 CURVE SMOOTH",
"154 11 OFFCURVE",
"65 131 OFFCURVE",
"61 306 CURVE SMOOTH",
"57 481 OFFCURVE",
"185 657 OFFCURVE",
"371 645 CURVE SMOOTH",
"465 639 OFFCURVE",
"571 598 OFFCURVE",
"571 491 CURVE SMOOTH",
"571 397 OFFCURVE",
"496 344 OFFCURVE",
"405 359 CURVE SMOOTH",
"362 366 OFFCURVE",
"328 419 OFFCURVE",
"342 459 CURVE SMOOTH",
"347 474 OFFCURVE",
"351 481 OFFCURVE",
"365 492 CURVE SMOOTH",
"386 508 OFFCURVE",
"366 538 OFFCURVE",
"339 526 CURVE SMOOTH",
"328 521 OFFCURVE",
"312 500 OFFCURVE",
"306 491 CURVE SMOOTH",
"267 420 OFFCURVE",
"323 327 OFFCURVE",
"398 314 CURVE SMOOTH",
"514 294 OFFCURVE",
"618 370 OFFCURVE",
"618 491 CURVE SMOOTH",
"618 628 OFFCURVE",
"488 685 OFFCURVE",
"373 690 CURVE SMOOTH",
"158 701 OFFCURVE",
"13 505 OFFCURVE",
"15 306 CURVE SMOOTH",
"17 109 OFFCURVE",
"130 -35 OFFCURVE",
"335 -35 CURVE SMOOTH",
"432 -35 OFFCURVE",
"540 8 OFFCURVE",
"596 90 CURVE SMOOTH",
"611 112 OFFCURVE",
"623 138 OFFCURVE",
"623 166 CURVE SMOOTH"
);
}
);
width = 689;
}
);
note = C;
unicode = 0043;
},
{
glyphname = D;
lastChange = "2021-10-07 03:40:35 +0000";
layers = (
{
anchors = (
{
name = bottom;
position = "{392, -80}";
},
{
name = center;
position = "{392, 353}";
},
{
name = top;
position = "{392, 752}";
}
);
hints = (
{
horizontal = 1;
place = "{-48, 40}";
type = Stem;
},
{
horizontal = 1;
place = "{554, 35}";
type = Stem;
},
{
horizontal = 1;
place = "{676, 37}";
type = Stem;
},
{
place = "{276, 37}";
type = Stem;
},
{
place = "{737, 37}";
type = Stem;
}
);
layerId = "2ADFC918-CAA7-4AF7-825A-5AAC412EF250";
paths = (
{
closed = 1;
nodes = (
"780 583 OFFCURVE",
"574 719 OFFCURVE",
"342 719 CURVE SMOOTH",
"215 719 OFFCURVE",
"9 663 OFFCURVE",
"9 499 CURVE SMOOTH",
"9 401 OFFCURVE",
"108 353 OFFCURVE",
"185 412 CURVE SMOOTH",
"191 416 OFFCURVE",
"209 433 OFFCURVE",
"212 440 CURVE SMOOTH",
"223 464 OFFCURVE",
"208 491 OFFCURVE",
"177 470 CURVE SMOOTH",
"173 468 OFFCURVE",
"160 461 OFFCURVE",
"160 454 CURVE SMOOTH",
"160 453 LINE SMOOTH",
"160 452 OFFCURVE",
"159 453 OFFCURVE",
"148 446 CURVE SMOOTH",
"97 416 OFFCURVE",
"64 447 OFFCURVE",
"58 502 CURVE SMOOTH",
"55 524 OFFCURVE",
"64 546 OFFCURVE",
"76 565 CURVE SMOOTH",
"127 641 OFFCURVE",
"253 670 OFFCURVE",
"342 670 CURVE SMOOTH",
"552 670 OFFCURVE",
"731 556 OFFCURVE",
"731 331 CURVE SMOOTH",
"731 93 OFFCURVE",
"560 -6 OFFCURVE",
"338 -6 CURVE SMOOTH",
"327 -6 OFFCURVE",
"316 -4 OFFCURVE",
"305 -3 CURVE",
"306 -1 OFFCURVE",
"306 0 OFFCURVE",
"306 1 CURVE SMOOTH",
"328 88 OFFCURVE",
"319 179 OFFCURVE",
"319 268 CURVE SMOOTH",
"319 330 OFFCURVE",
"320 425 OFFCURVE",
"331 484 CURVE SMOOTH",
"332 490 OFFCURVE",
"341 549 OFFCURVE",
"351 549 CURVE SMOOTH",
"381 549 OFFCURVE",
"375 604 OFFCURVE",
"337 595 CURVE SMOOTH",
"305 587 OFFCURVE",
"295 551 OFFCURVE",
"288 520 CURVE SMOOTH",
"271 437 OFFCURVE",
"270 352 OFFCURVE",
"270 268 CURVE SMOOTH",
"270 181 OFFCURVE",
"266 95 OFFCURVE",
"257 9 CURVE",
"257 1 LINE",
"178 12 OFFCURVE",
"88 44 OFFCURVE",
"47 114 CURVE SMOOTH",
"34 135 OFFCURVE",
"27 160 OFFCURVE",
"28 185 CURVE SMOOTH",
"29 212 OFFCURVE",
"42 244 OFFCURVE",
"63 261 CURVE SMOOTH",
"100 290 OFFCURVE",
"175 265 OFFCURVE",
"178 218 CURVE SMOOTH",
"178 210 OFFCURVE",
"178 208 OFFCURVE",
"177 206 CURVE SMOOTH",
"174 201 OFFCURVE",
"172 196 OFFCURVE",
"171 189 CURVE SMOOTH",
"164 155 OFFCURVE",
"201 147 OFFCURVE",
"216 171 CURVE",
"220 180 OFFCURVE",
"224 200 OFFCURVE",
"225 208 CURVE SMOOTH",
"234 308 OFFCURVE",
"101 355 OFFCURVE",
"31 298 CURVE SMOOTH",
"10 281 OFFCURVE",
"-6 256 OFFCURVE",
"-15 230 CURVE SMOOTH",
"-45 140 OFFCURVE",
"13 54 OFFCURVE",
"85 8 CURVE SMOOTH",
"133 -23 OFFCURVE",
"189 -40 OFFCURVE",
"245 -48 CURVE",
"243 -53 OFFCURVE",
"236 -67 OFFCURVE",
"231 -70 CURVE SMOOTH",
"227 -72 OFFCURVE",
"210 -75 OFFCURVE",
"201 -81 CURVE SMOOTH",
"184 -93 OFFCURVE",
"198 -127 OFFCURVE",
"228 -120 CURVE",
"270 -114 OFFCURVE",
"286 -85 OFFCURVE",
"295 -54 CURVE",
"338 -54 LINE SMOOTH",
"580 -54 OFFCURVE",
"780 68 OFFCURVE",
"780 331 CURVE SMOOTH"
);
}
);
width = 784;
}
);
note = D;
unicode = 0044;
},
{
glyphname = E;
lastChange = "2021-10-07 03:40:50 +0000";
layers = (
{
anchors = (
{
name = bottom;
position = "{322, -37}";
},
{
name = ogonek;
position = "{318, -37}";
},
{
name = top;
position = "{346, 752}";
},
{
name = topleft;
position = "{20, 705}";
}
);
hints = (
{
horizontal = 1;
place = "{-39, 36}";
type = Stem;
},
{
horizontal = 1;
place = "{338, 37}";
type = Stem;
},
{
horizontal = 1;
place = "{693, 37}";
type = Stem;
},
{
place = "{17, 36}";
type = Stem;
},
{
place = "{106, 37}";
type = Stem;
}
);
layerId = "2ADFC918-CAA7-4AF7-825A-5AAC412EF250";
paths = (
{
closed = 1;
nodes = (
"588 181 OFFCURVE",
"589 203 OFFCURVE",
"582 228 CURVE SMOOTH",
"571 268 OFFCURVE",
"538 305 OFFCURVE",
"491 305 CURVE SMOOTH",
"483 305 OFFCURVE",
"457 301 OFFCURVE",
"449 292 CURVE SMOOTH",
"400 238 OFFCURVE",
"496 254 OFFCURVE",
"492 254 CURVE SMOOTH",
"540 255 OFFCURVE",
"538 196 OFFCURVE",
"537 162 CURVE SMOOTH",
"536 141 OFFCURVE",
"527 120 OFFCURVE",
"516 102 CURVE SMOOTH",
"473 36 OFFCURVE",
"384 7 OFFCURVE",
"307 3 CURVE SMOOTH",
"184 -3 OFFCURVE",
"58 52 OFFCURVE",
"58 189 CURVE SMOOTH",
"58 269 OFFCURVE",
"121 334 OFFCURVE",
"194 370 CURVE",
"230 346 OFFCURVE",
"271 332 OFFCURVE",
"312 330 CURVE SMOOTH",
"386 327 OFFCURVE",
"428 348 OFFCURVE",
"434 379 CURVE SMOOTH",
"441 416 OFFCURVE",
"412 440 OFFCURVE",
"340 448 CURVE SMOOTH",
"295 452 OFFCURVE",
"243 441 OFFCURVE",
"201 426 CURVE",
"170 453 OFFCURVE",
"149 488 OFFCURVE",
"149 525 CURVE SMOOTH",
"149 642 OFFCURVE",
"245 687 OFFCURVE",
"351 687 CURVE SMOOTH",
"402 687 OFFCURVE",
"464 662 OFFCURVE",
"466 606 CURVE SMOOTH",
"467 594 OFFCURVE",
"463 579 OFFCURVE",
"456 569 CURVE SMOOTH",
"443 551 OFFCURVE",
"402 560 OFFCURVE",
"399 574 CURVE",
"399 577 OFFCURVE",
"402 584 OFFCURVE",
"402 588 CURVE SMOOTH",
"404 637 OFFCURVE",
"353 621 OFFCURVE",
"353 589 CURVE SMOOTH",
"352 518 OFFCURVE",
"450 472 OFFCURVE",
"498 542 CURVE SMOOTH",
"511 560 OFFCURVE",
"517 583 OFFCURVE",
"517 605 CURVE SMOOTH",
"515 691 OFFCURVE",
"424 736 OFFCURVE",
"351 736 CURVE SMOOTH",
"222 736 OFFCURVE",
"99 671 OFFCURVE",
"99 524 CURVE SMOOTH",
"99 477 OFFCURVE",
"120 436 OFFCURVE",
"151 403 CURVE",
"72 359 OFFCURVE",
"11 285 OFFCURVE",
"11 188 CURVE SMOOTH",
"11 -139 OFFCURVE",
"560 -98 OFFCURVE",
"586 159 CURVE SMOOTH"
);
},
{
closed = 1;
nodes = (
"261 413 OFFCURVE",
"390 433 OFFCURVE",
"384 387 CURVE SMOOTH",
"380 353 OFFCURVE",
"258 372 OFFCURVE",
"239 396 CURVE"
);
}
);
width = 589;
}
);
note = E;
unicode = 0045;
},
{
glyphname = F;
lastChange = "2021-10-07 04:11:42 +0000";
layers = (
{
hints = (
{
horizontal = 1;
place = "{-75, 36}";
type = Stem;
},
{
horizontal = 1;
place = "{386, 37}";
type = Stem;
},
{
horizontal = 1;
place = "{682, 37}";
type = Stem;
},
{
place = "{0, 37}";
type = Stem;
},
{
place = "{275, 36}";
type = Stem;
},
{
place = "{548, 37}";
type = Stem;
}
);
layerId = "2ADFC918-CAA7-4AF7-825A-5AAC412EF250";
paths = (
{
closed = 1;
nodes = (
"750 659 OFFCURVE",
"671 675 OFFCURVE",
"623 650 CURVE",
"507 683 OFFCURVE",
"391 724 OFFCURVE",
"269 725 CURVE SMOOTH",
"35 728 OFFCURVE",
"1 455 OFFCURVE",
"147 411 CURVE SMOOTH",
"194 400 OFFCURVE",
"249 421 OFFCURVE",
"243 465 CURVE SMOOTH",
"238 501 OFFCURVE",
"195 492 OFFCURVE",
"195 465 CURVE",
"191 455 OFFCURVE",
"164 458 OFFCURVE",
"150 460 CURVE",
"77 487 OFFCURVE",
"91 678 OFFCURVE",
"267 676 CURVE SMOOTH",
"374 675 OFFCURVE",
"478 642 OFFCURVE",
"580 610 CURVE",
"548 561 OFFCURVE",
"545 486 OFFCURVE",
"542 429 CURVE",
"408 429 LINE SMOOTH",
"376 429 OFFCURVE",
"376 380 OFFCURVE",
"408 380 CURVE SMOOTH",
"540 380 LINE",
"528 184 OFFCURVE",
"496 -22 OFFCURVE",
"257 -33 CURVE SMOOTH",
"229 -34 OFFCURVE",
"198 -29 OFFCURVE",
"172 -21 CURVE SMOOTH",
"81 9 OFFCURVE",
"38 83 OFFCURVE",
"43 177 CURVE SMOOTH",
"51 310 OFFCURVE",
"233 375 OFFCURVE",
"269 256 CURVE SMOOTH",
"281 215 OFFCURVE",
"279 200 OFFCURVE",
"306 200 CURVE SMOOTH",
"320 200 OFFCURVE",
"334 221 OFFCURVE",
"317 267 CURVE SMOOTH",
"247 454 OFFCURVE",
"4 349 OFFCURVE",
"-6 180 CURVE SMOOTH",
"-13 62 OFFCURVE",
"45 -32 OFFCURVE",
"159 -68 CURVE SMOOTH",
"191 -78 OFFCURVE",
"227 -83 OFFCURVE",
"260 -81 CURVE SMOOTH",
"462 -66 OFFCURVE",
"550 61 OFFCURVE",
"578 247 CURVE SMOOTH",
"585 291 OFFCURVE",
"587 336 OFFCURVE",
"589 380 CURVE",
"719 380 LINE SMOOTH",
"750 380 OFFCURVE",
"750 429 OFFCURVE",
"719 429 CURVE SMOOTH",
"592 429 LINE",
"594 481 OFFCURVE",
"598 562 OFFCURVE",
"631 596 CURVE",
"637 594 OFFCURVE",
"643 592 OFFCURVE",
"649 590 CURVE SMOOTH",
"686 580 OFFCURVE",
"729 578 OFFCURVE",
"741 615 CURVE SMOOTH"
);
}
);
width = 740;
}
);
note = F;
unicode = 0046;
},
{
glyphname = G;
lastChange = "2021-10-07 03:40:55 +0000";
layers = (
{
anchors = (
{
name = bottom;
position = "{345, 0}";
},
{
name = top;
position = "{415, 752}";
}
);
hints = (
{
horizontal = 1;
place = "{9, 37}";
type = Stem;
},
{
horizontal = 1;
place = "{666, 36}";
type = Stem;
}
);
layerId = "2ADFC918-CAA7-4AF7-825A-5AAC412EF250";
paths = (
{
closed = 1;
nodes = (
"681 559 OFFCURVE",
"676 588 OFFCURVE",
"667 607 CURVE SMOOTH",
"623 703 OFFCURVE",
"464 714 OFFCURVE",
"379 708 CURVE SMOOTH",
"298 703 OFFCURVE",
"223 672 OFFCURVE",
"163 625 CURVE",
"161 630 OFFCURVE",
"159 634 OFFCURVE",
"158 639 CURVE SMOOTH",
"150 669 OFFCURVE",
"161 666 OFFCURVE",
"163 688 CURVE SMOOTH",
"166 734 OFFCURVE",
"125 720 OFFCURVE",
"115 705 CURVE SMOOTH",
"106 691 OFFCURVE",
"108 650 OFFCURVE",
"110 636 CURVE SMOOTH",
"113 620 OFFCURVE",
"118 605 OFFCURVE",
"126 592 CURVE",
"47 513 OFFCURVE",
"2 403 OFFCURVE",
"13 285 CURVE SMOOTH",
"30 115 OFFCURVE",
"176 4 OFFCURVE",
"340 4 CURVE SMOOTH",
"419 4 OFFCURVE",
"496 34 OFFCURVE",
"560 78 CURVE",
"557 48 OFFCURVE",
"548 14 OFFCURVE",
"536 -14 CURVE",
"488 -14 OFFCURVE",
"440 -23 OFFCURVE",
"395 -33 CURVE SMOOTH",
"364 -40 OFFCURVE",
"338 -46 OFFCURVE",
"310 -63 CURVE SMOOTH",
"199 -131 OFFCURVE",
"268 -239 OFFCURVE",
"362 -224 CURVE SMOOTH",
"455 -209 OFFCURVE",
"528 -145 OFFCURVE",
"571 -64 CURVE",
"586 -66 OFFCURVE",
"622 -75 OFFCURVE",
"635 -82 CURVE SMOOTH",
"637 -83 LINE SMOOTH",
"660 -95 OFFCURVE",
"699 -80 OFFCURVE",
"669 -45 CURVE SMOOTH",
"666 -42 OFFCURVE",
"644 -33 OFFCURVE",
"642 -32 CURVE SMOOTH",
"625 -26 OFFCURVE",
"608 -21 OFFCURVE",
"590 -18 CURVE",
"606 27 OFFCURVE",
"611 73 OFFCURVE",
"612 120 CURVE",
"638 145 OFFCURVE",
"659 174 OFFCURVE",
"671 204 CURVE SMOOTH",
"689 250 OFFCURVE",
"715 361 OFFCURVE",
"635 366 CURVE SMOOTH",
"581 369 OFFCURVE",
"561 326 OFFCURVE",
"556 280 CURVE SMOOTH",
"550 232 OFFCURVE",
"558 183 OFFCURVE",
"561 135 CURVE",
"502 90 OFFCURVE",
"416 53 OFFCURVE",
"340 53 CURVE SMOOTH",
"201 53 OFFCURVE",
"76 147 OFFCURVE",
"62 289 CURVE SMOOTH",
"52 389 OFFCURVE",
"90 483 OFFCURVE",
"155 552 CURVE",
"216 489 OFFCURVE",
"325 453 OFFCURVE",
"397 444 CURVE SMOOTH",
"470 434 OFFCURVE",
"589 433 OFFCURVE",
"648 491 CURVE SMOOTH",
"660 503 OFFCURVE",
"672 521 OFFCURVE",
"676 538 CURVE SMOOTH"
);
},
{
closed = 1;
nodes = (
"620 501 OFFCURVE",
"509 491 OFFCURVE",
"487 490 CURVE SMOOTH",
"459 489 OFFCURVE",
"431 491 OFFCURVE",
"403 494 CURVE SMOOTH",
"347 501 OFFCURVE",
"247 536 OFFCURVE",
"193 586 CURVE",
"274 651 OFFCURVE",
"371 669 OFFCURVE",
"472 658 CURVE SMOOTH",
"523 653 OFFCURVE",
"640 630 OFFCURVE",
"626 543 CURVE SMOOTH"
);
},
{
closed = 1;
nodes = (
"639 281 OFFCURVE",
"628 218 OFFCURVE",
"613 192 CURVE",
"613 216 OFFCURVE",
"613 239 OFFCURVE",
"614 263 CURVE SMOOTH",
"614 267 OFFCURVE",
"614 285 OFFCURVE",
"618 301 CURVE SMOOTH",
"619 309 OFFCURVE",
"621 317 OFFCURVE",
"637 310 CURVE"
);
},
{
closed = 1;
nodes = (
"492 -92 OFFCURVE",
"467 -120 OFFCURVE",
"437 -142 CURVE SMOOTH",
"407 -164 OFFCURVE",
"374 -178 OFFCURVE",
"336 -169 CURVE SMOOTH",
"308 -163 OFFCURVE",
"299 -144 OFFCURVE",
"320 -124 CURVE SMOOTH",
"342 -102 OFFCURVE",
"378 -89 OFFCURVE",
"408 -79 CURVE SMOOTH",
"439 -69 OFFCURVE",
"475 -63 OFFCURVE",
"511 -61 CURVE"
);
}
);
width = 690;
}
);
note = G;
unicode = 0047;
},
{
glyphname = H;
layers = (
{
hints = (
{
horizontal = 1;
place = "{-98, 37}";
type = Stem;
},
{
horizontal = 1;
place = "{-47, 35}";
type = Stem;
},
{
horizontal = 1;
place = "{115, 37}";
type = Stem;
},
{
horizontal = 1;
place = "{327, 37}";
type = Stem;
},
{
horizontal = 1;
place = "{666, 37}";
type = Stem;
},
{
place = "{603, 36}";
type = Stem;
},
{
place = "{975, 37}";
type = Stem;
}
);
layerId = "2ADFC918-CAA7-4AF7-825A-5AAC412EF250";
paths = (
{
closed = 1;
nodes = (
"1000 727 OFFCURVE",
"977 464 OFFCURVE",
"971 370 CURVE",
"646 370 LINE",
"645 469 OFFCURVE",
"636 636 OFFCURVE",
"535 691 CURVE SMOOTH",
"524 697 OFFCURVE",
"488 712 OFFCURVE",
"474 709 CURVE SMOOTH",
"455 706 OFFCURVE",
"427 674 OFFCURVE",
"471 660 CURVE SMOOTH",
"492 653 OFFCURVE",
"492 664 OFFCURVE",
"517 647 CURVE SMOOTH",
"590 599 OFFCURVE",
"600 424 OFFCURVE",
"596 339 CURVE SMOOTH",
"586 153 OFFCURVE",
"527 -55 OFFCURVE",
"306 -55 CURVE SMOOTH",
"156 -55 OFFCURVE",
"65 49 OFFCURVE",
"92 199 CURVE SMOOTH",
"112 308 OFFCURVE",
"304 378 OFFCURVE",
"361 271 CURVE SMOOTH",
"381 234 OFFCURVE",
"377 182 OFFCURVE",
"336 165 CURVE SMOOTH",
"323 159 OFFCURVE",
"321 158 OFFCURVE",
"319 159 CURVE SMOOTH",
"309 162 OFFCURVE",
"299 160 OFFCURVE",
"290 158 CURVE SMOOTH",
"252 149 OFFCURVE",
"260 116 OFFCURVE",
"286 109 CURVE SMOOTH",
"299 106 OFFCURVE",
"328 110 OFFCURVE",
"339 113 CURVE SMOOTH",
"417 135 OFFCURVE",
"443 231 OFFCURVE",
"403 295 CURVE SMOOTH",
"309 446 OFFCURVE",
"74 360 OFFCURVE",
"43 208 CURVE SMOOTH",
"19 87 OFFCURVE",
"63 -22 OFFCURVE",
"178 -76 CURVE SMOOTH",
"218 -95 OFFCURVE",
"262 -104 OFFCURVE",
"306 -104 CURVE SMOOTH",
"554 -104 OFFCURVE",
"634 115 OFFCURVE",
"644 320 CURVE",
"968 320 LINE",
"968 316 LINE SMOOTH",
"968 239 OFFCURVE",
"971 -10 OFFCURVE",
"1057 -47 CURVE SMOOTH",
"1065 -51 OFFCURVE",
"1088 -56 OFFCURVE",
"1099 -52 CURVE SMOOTH",
"1138 -38 OFFCURVE",
"1108 -7 OFFCURVE",
"1082 -6 CURVE",
"1079 -11 OFFCURVE",
"1078 -11 OFFCURVE",
"1075 -9 CURVE SMOOTH",
"1071 -5 OFFCURVE",
"1066 3 OFFCURVE",
"1062 13 CURVE SMOOTH",
"1024 96 OFFCURVE",
"1018 227 OFFCURVE",
"1018 316 CURVE SMOOTH",
"1018 380 OFFCURVE",
"1050 654 OFFCURVE",
"1105 675 CURVE",
"1107 675 OFFCURVE",
"1108 676 OFFCURVE",
"1108 677 CURVE",
"1109 677 LINE",
"1112 674 OFFCURVE",
"1116 674 OFFCURVE",
"1120 674 CURVE SMOOTH",
"1165 672 OFFCURVE",
"1147 711 OFFCURVE",
"1131 722 CURVE"
);
}
);
width = 1082;
}
);
note = H;
unicode = 0048;
},
{
glyphname = I;
lastChange = "2021-10-07 03:41:16 +0000";
layers = (
{
anchors = (
{
name = bottom;
position = "{184, -98}";
},
{
name = ogonek;
position = "{215, -139}";
},
{
name = top;
position = "{583, 752}";
},
{
name = topleft;
position = "{20, 705}";
}
);
hints = (
{
horizontal = 1;
place = "{-142, 37}";
type = Stem;
},
{
place = "{475, 37}";
type = Stem;
}
);
layerId = "2ADFC918-CAA7-4AF7-825A-5AAC412EF250";
paths = (
{
closed = 1;
nodes = (
"613 644 LINE SMOOTH",
"662 652 OFFCURVE",
"658 733 OFFCURVE",
"595 719 CURVE SMOOTH",
"580 716 OFFCURVE",
"555 698 OFFCURVE",
"543 687 CURVE",
"448 672 OFFCURVE",
"346 620 OFFCURVE",
"302 536 CURVE SMOOTH",
"217 372 OFFCURVE",
"349 260 OFFCURVE",
"466 293 CURVE",
"455 134 OFFCURVE",
"411 -98 OFFCURVE",
"184 -98 CURVE SMOOTH",
"39 -98 OFFCURVE",
"-81 2 OFFCURVE",
"-28 152 CURVE SMOOTH",
"-1 230 OFFCURVE",
"98 284 OFFCURVE",
"177 255 CURVE SMOOTH",
"192 249 OFFCURVE",
"211 237 OFFCURVE",
"220 225 CURVE SMOOTH",
"236 203 OFFCURVE",
"233 199 OFFCURVE",
"238 176 CURVE SMOOTH",
"247 134 OFFCURVE",
"282 146 OFFCURVE",
"282 178 CURVE SMOOTH",
"282 204 OFFCURVE",
"270 237 OFFCURVE",
"255 257 CURVE SMOOTH",
"236 284 OFFCURVE",
"206 301 OFFCURVE",
"175 308 CURVE SMOOTH",
"75 331 OFFCURVE",
"-42 265 OFFCURVE",
"-76 169 CURVE SMOOTH",
"-141 -15 OFFCURVE",
"10 -147 OFFCURVE",
"184 -147 CURVE SMOOTH",
"185 -147 LINE SMOOTH",
"457 -147 OFFCURVE",
"511 116 OFFCURVE",
"518 319 CURVE",
"527 326 OFFCURVE",
"535 334 OFFCURVE",
"543 343 CURVE SMOOTH",
"553 354 OFFCURVE",
"578 389 OFFCURVE",
"581 403 CURVE SMOOTH",
"587 431 OFFCURVE",
"559 449 OFFCURVE",
"537 424 CURVE SMOOTH",
"533 419 OFFCURVE",
"531 415 OFFCURVE",
"530 411 CURVE",
"526 404 OFFCURVE",
"523 398 OFFCURVE",
"518 392 CURVE",
"518 473 LINE SMOOTH",
"518 525 OFFCURVE",
"530 597 OFFCURVE",
"567 641 CURVE",
"578 642 OFFCURVE",
"589 640 OFFCURVE",
"600 642 CURVE SMOOTH"
);
},
{
closed = 1;
nodes = (
"477 579 OFFCURVE",
"469 522 OFFCURVE",
"469 473 CURVE SMOOTH",
"469 431 OFFCURVE",
"469 389 OFFCURVE",
"468 348 CURVE",
"412 319 OFFCURVE",
"343 343 OFFCURVE",
"329 409 CURVE SMOOTH",
"321 444 OFFCURVE",
"331 480 OFFCURVE",
"347 513 CURVE SMOOTH",
"372 566 OFFCURVE",
"440 607 OFFCURVE",
"500 627 CURVE"
);
}
);
width = 575;
}
);
note = I;
unicode = 0049;
},
{
glyphname = J;
lastChange = "2021-10-07 03:41:23 +0000";
layers = (
{
anchors = (
{
name = bottom;
position = "{288, -43}";
},
{
name = top;
position = "{288, 705}";
}
);
hints = (
{
horizontal = 1;
place = "{-261, 36}";
type = Stem;
},
{
place = "{475, 37}";
type = Stem;
}
);
layerId = "2ADFC918-CAA7-4AF7-825A-5AAC412EF250";
paths = (
{
closed = 1;
nodes = (
"613 644 LINE SMOOTH",
"662 652 OFFCURVE",
"658 734 OFFCURVE",
"595 719 CURVE SMOOTH",
"580 715 OFFCURVE",
"555 698 OFFCURVE",
"543 687 CURVE",
"429 668 OFFCURVE",
"322 595 OFFCURVE",
"270 492 CURVE SMOOTH",
"257 467 OFFCURVE",
"249 444 OFFCURVE",
"249 415 CURVE SMOOTH",
"251 324 OFFCURVE",
"341 290 OFFCURVE",
"413 323 CURVE SMOOTH",
"441 336 OFFCURVE",
"443 382 OFFCURVE",
"400 372 CURVE SMOOTH",
"394 370 OFFCURVE",
"381 367 OFFCURVE",
"376 362 CURVE SMOOTH",
"375 361 LINE SMOOTH",
"374 360 OFFCURVE",
"292 348 OFFCURVE",
"298 419 CURVE SMOOTH",
"299 438 OFFCURVE",
"305 451 OFFCURVE",
"313 469 CURVE SMOOTH",
"348 544 OFFCURVE",
"421 602 OFFCURVE",
"500 628 CURVE",
"477 580 OFFCURVE",
"469 522 OFFCURVE",
"469 473 CURVE SMOOTH",
"469 257 OFFCURVE",
"426 -219 OFFCURVE",
"142 -219 CURVE SMOOTH",
"-3 -219 OFFCURVE",
"-122 -118 OFFCURVE",
"-70 32 CURVE SMOOTH",
"-36 131 OFFCURVE",
"108 182 OFFCURVE",
"178 104 CURVE SMOOTH",
"183 98 OFFCURVE",
"188 93 OFFCURVE",
"191 86 CURVE SMOOTH",
"199 69 OFFCURVE",
"184 19 OFFCURVE",
"216 19 CURVE SMOOTH",
"253 19 OFFCURVE",
"239 90 OFFCURVE",
"232 106 CURVE SMOOTH",
"226 119 OFFCURVE",
"222 127 OFFCURVE",
"213 138 CURVE SMOOTH",
"203 151 OFFCURVE",
"173 169 OFFCURVE",
"159 175 CURVE SMOOTH",
"52 223 OFFCURVE",
"-79 158 OFFCURVE",
"-117 50 CURVE SMOOTH",
"-162 -79 OFFCURVE",
"-106 -196 OFFCURVE",
"20 -246 CURVE SMOOTH",
"99 -278 OFFCURVE",
"192 -273 OFFCURVE",
"268 -234 CURVE SMOOTH",
"488 -120 OFFCURVE",
"518 257 OFFCURVE",
"518 473 CURVE SMOOTH",
"518 525 OFFCURVE",
"530 598 OFFCURVE",
"567 641 CURVE",
"571 642 OFFCURVE",
"575 642 OFFCURVE",
"579 642 CURVE SMOOTH",
"587 642 OFFCURVE",
"591 641 OFFCURVE",
"600 642 CURVE SMOOTH"
);
}
);
width = 575;
}
);
note = J;
unicode = 004A;
},
{
glyphname = K;
lastChange = "2021-10-07 03:41:34 +0000";
layers = (
{
anchors = (
{
name = bottom;
position = "{608, 0}";
},
{
name = top;
position = "{691, 752}";
}
);
hints = (
{
horizontal = 1;
place = "{306, 73}";
type = Stem;
},
{
horizontal = 1;
place = "{475, 36}";
type = Stem;
},
{
horizontal = 1;
place = "{679, 37}";
type = Stem;
},
{
place = "{9, 37}";
type = Stem;
},
{
place = "{500, 39}";
type = Stem;
}
);
layerId = "2ADFC918-CAA7-4AF7-825A-5AAC412EF250";
paths = (
{
closed = 1;
nodes = (
"1087 -68 OFFCURVE",
"1051 -35 OFFCURVE",
"1026 -44 CURVE SMOOTH",
"1014 -48 OFFCURVE",
"998 -48 OFFCURVE",
"986 -47 CURVE SMOOTH",
"899 -37 OFFCURVE",
"835 50 OFFCURVE",
"804 127 CURVE SMOOTH",
"775 199 OFFCURVE",
"742 285 OFFCURVE",
"683 338 CURVE",
"715 357 OFFCURVE",
"743 383 OFFCURVE",
"775 416 CURVE SMOOTH",
"821 463 OFFCURVE",
"857 518 OFFCURVE",
"888 575 CURVE SMOOTH",
"897 593 OFFCURVE",
"934 674 OFFCURVE",
"954 674 CURVE SMOOTH",
"985 674 OFFCURVE",
"980 720 OFFCURVE",
"944 722 CURVE",
"896 703 OFFCURVE",
"870 649 OFFCURVE",
"847 606 CURVE SMOOTH",
"817 549 OFFCURVE",
"787 498 OFFCURVE",
"741 451 CURVE SMOOTH",
"712 422 OFFCURVE",
"678 390 OFFCURVE",
"641 368 CURVE",
"618 379 OFFCURVE",
"593 386 OFFCURVE",
"564 386 CURVE SMOOTH",
"557 386 OFFCURVE",
"551 385 OFFCURVE",
"545 385 CURVE",
"544 549 OFFCURVE",
"491 706 OFFCURVE",
"299 722 CURVE SMOOTH",
"260 725 OFFCURVE",
"220 720 OFFCURVE",
"183 708 CURVE SMOOTH",
"63 671 OFFCURVE",
"1 572 OFFCURVE",
"4 449 CURVE SMOOTH",
"7 298 OFFCURVE",
"160 219 OFFCURVE",
"289 287 CURVE SMOOTH",
"377 333 OFFCURVE",
"391 498 OFFCURVE",
"276 516 CURVE SMOOTH",
"268 518 OFFCURVE",
"246 519 OFFCURVE",
"237 517 CURVE SMOOTH",
"197 504 OFFCURVE",
"221 474 OFFCURVE",
"242 469 CURVE SMOOTH",
"250 468 OFFCURVE",
"255 470 OFFCURVE",
"262 471 CURVE SMOOTH",
"309 477 OFFCURVE",
"336 366 OFFCURVE",
"267 330 CURVE SMOOTH",
"170 280 OFFCURVE",
"53 335 OFFCURVE",
"53 449 CURVE SMOOTH",
"53 597 OFFCURVE",
"152 680 OFFCURVE",
"297 673 CURVE SMOOTH",
"465 664 OFFCURVE",
"496 501 OFFCURVE",
"496 359 CURVE",
"488 348 OFFCURVE",
"487 334 OFFCURVE",
"495 323 CURVE",
"494 301 OFFCURVE",
"490 280 OFFCURVE",
"488 258 CURVE SMOOTH",
"480 175 OFFCURVE",
"434 4 OFFCURVE",
"353 -28 CURVE SMOOTH",
"341 -33 OFFCURVE",
"327 -36 OFFCURVE",
"314 -33 CURVE SMOOTH",
"286 -26 OFFCURVE",
"261 -68 OFFCURVE",
"300 -80 CURVE SMOOTH",
"314 -85 OFFCURVE",
"351 -78 OFFCURVE",
"364 -74 CURVE SMOOTH",
"466 -41 OFFCURVE",
"507 99 OFFCURVE",
"525 188 CURVE SMOOTH",
"533 226 OFFCURVE",
"539 263 OFFCURVE",
"541 301 CURVE",
"577 301 OFFCURVE",
"608 306 OFFCURVE",
"635 316 CURVE",
"695 272 OFFCURVE",
"732 176 OFFCURVE",
"758 109 CURVE SMOOTH",
"796 14 OFFCURVE",
"877 -90 OFFCURVE",
"990 -95 CURVE SMOOTH",
"1002 -95 OFFCURVE",
"1036 -94 OFFCURVE",
"1047 -88 CURVE SMOOTH"
);
}
);
width = 930;
}
);
note = K;
unicode = 004B;
},
{
glyphname = L;
lastChange = "2021-10-07 07:37:01 +0000";
layers = (
{
anchors = (
{
name = bottom;
position = "{352, 0}";
},
{
name = center;
position = "{352, 353}";
},
{
name = top;
position = "{610, 752}";
},
{
name = topright;
position = "{684, 419}";
}
);
hints = (
{
horizontal = 1;
place = "{303, 37}";
type = Stem;
}
);
layerId = "2ADFC918-CAA7-4AF7-825A-5AAC412EF250";
paths = (
{
closed = 1;
nodes = (
"749 -14 OFFCURVE",
"711 -30 OFFCURVE",
"714 -59 CURVE",
"712 -64 OFFCURVE",
"707 -66 OFFCURVE",
"699 -67 CURVE SMOOTH",
"603 -76 OFFCURVE",
"498 -28 OFFCURVE",
"408 22 CURVE",
"428 54 OFFCURVE",
"441 92 OFFCURVE",
"447 136 CURVE SMOOTH",
"454 191 OFFCURVE",
"456 248 OFFCURVE",
"458 303 CURVE",
"545 322 OFFCURVE",
"615 378 OFFCURVE",
"658 468 CURVE SMOOTH",
"690 535 OFFCURVE",
"696 632 OFFCURVE",
"637 689 CURVE SMOOTH",
"604 720 OFFCURVE",
"564 731 OFFCURVE",
"521 720 CURVE SMOOTH",
"425 695 OFFCURVE",
"416 543 OFFCURVE",
"413 464 CURVE SMOOTH",
"411 424 OFFCURVE",
"411 385 OFFCURVE",
"410 345 CURVE",
"365 342 OFFCURVE",
"318 348 OFFCURVE",
"278 372 CURVE SMOOTH",
"213 411 OFFCURVE",
"181 493 OFFCURVE",
"243 548 CURVE SMOOTH",
"249 553 OFFCURVE",
"256 556 OFFCURVE",
"262 562 CURVE SMOOTH",
"286 590 OFFCURVE",
"260 614 OFFCURVE",
"235 603 CURVE SMOOTH",
"220 597 OFFCURVE",
"192 566 OFFCURVE",
"184 553 CURVE SMOOTH",
"130 471 OFFCURVE",
"181 377 OFFCURVE",
"253 331 CURVE SMOOTH",
"302 300 OFFCURVE",
"354 293 OFFCURVE",
"410 297 CURVE",
"408 221 OFFCURVE",
"405 115 OFFCURVE",
"364 47 CURVE",
"287 93 OFFCURVE",
"94 221 OFFCURVE",
"17 137 CURVE SMOOTH",
"-7 111 OFFCURVE",
"-11 89 OFFCURVE",
"-3 53 CURVE SMOOTH",
"14 -26 OFFCURVE",
"109 -65 OFFCURVE",
"178 -74 CURVE SMOOTH",
"260 -84 OFFCURVE",
"329 -63 OFFCURVE",
"376 -17 CURVE",
"472 -72 OFFCURVE",
"605 -128 OFFCURVE",
"706 -116 CURVE SMOOTH",
"740 -113 OFFCURVE",
"775 -81 OFFCURVE",
"760 -42 CURVE SMOOTH"
);
},
{
closed = 1;
nodes = (
"579 416 OFFCURVE",
"527 371 OFFCURVE",
"459 353 CURVE",
"462 453 OFFCURVE",
"468 623 OFFCURVE",
"511 668 CURVE SMOOTH",
"532 690 OFFCURVE",
"574 681 OFFCURVE",
"599 660 CURVE SMOOTH",
"645 621 OFFCURVE",
"640 542 OFFCURVE",
"615 490 CURVE SMOOTH"
);
},
{
closed = 1;
nodes = (
"332 9 CURVE",
"297 -20 OFFCURVE",
"249 -32 OFFCURVE",
"183 -25 CURVE SMOOTH",
"133 -19 OFFCURVE",
"62 8 OFFCURVE",
"46 57 CURVE SMOOTH",
"40 75 OFFCURVE",
"43 104 OFFCURVE",
"49 111 CURVE SMOOTH",
"81 148 OFFCURVE",
"234 67 OFFCURVE",
"268 48 CURVE SMOOTH",
"291 35 OFFCURVE",
"297 31 OFFCURVE"
);
}
);
width = 704;
}
);
note = L;
unicode = 004C;
},
{
glyphname = M;
layers = (
{
hints = (
{
horizontal = 1;
place = "{619, 37}";
type = Stem;
},
{
horizontal = 1;
place = "{680, 36}";
type = Stem;
},
{
place = "{-3, 37}";
type = Stem;
},
{
place = "{397, 37}";
type = Stem;
},
{
place = "{698, 36}";
type = Stem;
},
{
place = "{998, 37}";
type = Stem;
}
);
layerId = "2ADFC918-CAA7-4AF7-825A-5AAC412EF250";
paths = (
{
closed = 1;
nodes = (
"1179 -45 OFFCURVE",
"1109 -33 OFFCURVE",
"1102 -48 CURVE",
"1102 -47 OFFCURVE",
"1101 -46 OFFCURVE",
"1099 -45 CURVE",
"1027 -33 OFFCURVE",
"1038 114 OFFCURVE",
"1039 164 CURVE SMOOTH",
"1041 248 OFFCURVE",
"1047 331 OFFCURVE",
"1049 415 CURVE SMOOTH",
"1051 498 OFFCURVE",
"1048 656 OFFCURVE",
"925 662 CURVE SMOOTH",
"823 667 OFFCURVE",
"778 575 OFFCURVE",
"751 494 CURVE SMOOTH",
"749 488 LINE",
"740 572 OFFCURVE",
"711 650 OFFCURVE",
"623 660 CURVE SMOOTH",
"523 672 OFFCURVE",
"464 577 OFFCURVE",
"439 497 CURVE",
"415 620 OFFCURVE",
"350 730 OFFCURVE",
"194 722 CURVE SMOOTH",
"168 721 OFFCURVE",
"143 714 OFFCURVE",
"120 703 CURVE SMOOTH",
"-66 612 OFFCURVE",
"-52 282 OFFCURVE",
"177 265 CURVE SMOOTH",
"211 262 OFFCURVE",
"247 269 OFFCURVE",
"278 285 CURVE SMOOTH",
"404 351 OFFCURVE",
"381 573 OFFCURVE",
"221 566 CURVE SMOOTH",
"214 565 OFFCURVE",
"183 562 OFFCURVE",
"175 557 CURVE SMOOTH",
"149 543 OFFCURVE",
"154 509 OFFCURVE",
"188 510 CURVE SMOOTH",
"197 510 OFFCURVE",
"203 515 OFFCURVE",
"211 516 CURVE SMOOTH",
"321 536 OFFCURVE",
"344 376 OFFCURVE",
"255 329 CURVE SMOOTH",
"233 318 OFFCURVE",
"204 313 OFFCURVE",
"179 315 CURVE SMOOTH",
"85 321 OFFCURVE",
"36 402 OFFCURVE",
"41 492 CURVE SMOOTH",
"45 564 OFFCURVE",
"78 629 OFFCURVE",
"144 660 CURVE SMOOTH",
"160 668 OFFCURVE",
"178 674 OFFCURVE",
"195 674 CURVE SMOOTH",
"362 674 OFFCURVE",
"393 535 OFFCURVE",
"401 391 CURVE SMOOTH",
"407 291 OFFCURVE",
"404 190 OFFCURVE",
"398 89 CURVE SMOOTH",
"397 64 OFFCURVE",
"395 39 OFFCURVE",
"393 14 CURVE SMOOTH",
"392 1 LINE SMOOTH",
"392 0 OFFCURVE",
"391 -2 OFFCURVE",
"393 -4 CURVE",
"408 -29 OFFCURVE",
"420 -33 OFFCURVE",
"440 -8 CURVE",
"440 -8 OFFCURVE",
"441 -6 OFFCURVE",
"442 -1 CURVE SMOOTH",
"446 36 OFFCURVE",
"464 330 OFFCURVE",
"465 356 CURVE SMOOTH",
"471 454 OFFCURVE",
"501 611 OFFCURVE",
"620 611 CURVE SMOOTH",
"634 611 OFFCURVE",
"642 610 OFFCURVE",
"653 602 CURVE SMOOTH",
"714 557 OFFCURVE",
"700 345 OFFCURVE",
"699 275 CURVE SMOOTH",
"697 204 OFFCURVE",
"697 134 OFFCURVE",
"694 64 CURVE SMOOTH",
"694 58 OFFCURVE",
"691 3 OFFCURVE",
"693 -1 CURVE SMOOTH",
"708 -23 OFFCURVE",
"720 -31 OFFCURVE",
"739 -2 CURVE",
"742 1 OFFCURVE",
"746 125 OFFCURVE",
"746 134 CURVE SMOOTH",
"752 245 OFFCURVE",
"766 388 OFFCURVE",
"798 479 CURVE SMOOTH",
"812 518 OFFCURVE",
"837 590 OFFCURVE",
"879 607 CURVE SMOOTH",
"892 612 OFFCURVE",
"909 613 OFFCURVE",
"925 613 CURVE SMOOTH",
"1006 613 OFFCURVE",
"1001 471 OFFCURVE",
"1000 416 CURVE SMOOTH",
"999 332 OFFCURVE",
"991 248 OFFCURVE",
"990 164 CURVE SMOOTH",
"989 113 OFFCURVE",
"984 46 OFFCURVE",
"1001 -4 CURVE SMOOTH",
"1015 -47 OFFCURVE",
"1053 -98 OFFCURVE",
"1108 -94 CURVE SMOOTH",
"1115 -93 OFFCURVE",
"1134 -89 OFFCURVE",
"1140 -84 CURVE SMOOTH"
);
}
);
width = 1106;
}
);
note = M;
unicode = 004D;
},
{
glyphname = N;
lastChange = "2021-10-07 03:43:21 +0000";
layers = (
{
anchors = (
{
name = bottom;
position = "{548, 0}";
},
{
name = top;
position = "{675, 752}";
}
);
hints = (
{
horizontal = 1;
place = "{-34, 36}";
type = Stem;
},
{
horizontal = 1;
place = "{686, 37}";
type = Stem;
},
{
place = "{-54, 37}";
type = Stem;
},
{
place = "{772, 37}";
type = Stem;
},
{
place = "{816, 37}";
type = Stem;
}
);
layerId = "2ADFC918-CAA7-4AF7-825A-5AAC412EF250";
paths = (
{
closed = 1;
nodes = (
"868 -46 OFFCURVE",
"854 -45 OFFCURVE",
"846 -46 CURVE SMOOTH",
"820 -48 OFFCURVE",
"815 6 OFFCURVE",
"815 18 CURVE SMOOTH",
"815 57 OFFCURVE",
"820 98 OFFCURVE",
"824 137 CURVE SMOOTH",
"832 205 OFFCURVE",
"842 272 OFFCURVE",
"849 340 CURVE SMOOTH",
"854 382 OFFCURVE",
"858 425 OFFCURVE",
"858 468 CURVE SMOOTH",
"858 593 OFFCURVE",
"799 720 OFFCURVE",
"654 717 CURVE SMOOTH",
"547 715 OFFCURVE",
"473 613 OFFCURVE",
"425 507 CURVE",
"397 637 OFFCURVE",
"302 736 OFFCURVE",
"151 729 CURVE SMOOTH",
"120 728 OFFCURVE",
"90 719 OFFCURVE",
"63 704 CURVE SMOOTH",
"-15 662 OFFCURVE",
"-55 582 OFFCURVE",
"-60 495 CURVE SMOOTH",
"-66 381 OFFCURVE",
"-1 281 OFFCURVE",
"117 263 CURVE SMOOTH",
"156 257 OFFCURVE",
"200 262 OFFCURVE",
"237 281 CURVE SMOOTH",
"367 348 OFFCURVE",
"345 572 OFFCURVE",
"186 569 CURVE SMOOTH",
"175 569 OFFCURVE",
"143 565 OFFCURVE",
"132 560 CURVE SMOOTH",
"108 548 OFFCURVE",
"107 511 OFFCURVE",
"145 513 CURVE SMOOTH",
"156 513 OFFCURVE",
"166 517 OFFCURVE",
"177 520 CURVE SMOOTH",
"259 538 OFFCURVE",
"327 384 OFFCURVE",
"215 326 CURVE SMOOTH",
"193 315 OFFCURVE",
"165 310 OFFCURVE",
"140 311 CURVE SMOOTH",
"41 316 OFFCURVE",
"-16 397 OFFCURVE",
"-11 493 CURVE SMOOTH",
"-7 564 OFFCURVE",
"25 625 OFFCURVE",
"88 660 CURVE SMOOTH",
"107 671 OFFCURVE",
"130 679 OFFCURVE",
"152 680 CURVE SMOOTH",
"303 684 OFFCURVE",
"376 577 OFFCURVE",
"385 437 CURVE SMOOTH",
"387 406 LINE",
"367 344 OFFCURVE",
"353 280 OFFCURVE",
"340 216 CURVE SMOOTH",
"329 164 OFFCURVE",
"282 -40 OFFCURVE",
"384 -40 CURVE SMOOTH",
"467 -40 OFFCURVE",
"456 119 OFFCURVE",
"453 175 CURVE SMOOTH",
"449 245 OFFCURVE",
"441 314 OFFCURVE",
"437 385 CURVE",
"480 507 OFFCURVE",
"558 671 OFFCURVE",
"654 669 CURVE SMOOTH",
"773 667 OFFCURVE",
"809 577 OFFCURVE",
"809 468 CURVE SMOOTH",
"809 427 OFFCURVE",
"805 385 OFFCURVE",
"800 345 CURVE SMOOTH",
"792 277 OFFCURVE",
"782 210 OFFCURVE",
"775 142 CURVE SMOOTH",
"770 101 OFFCURVE",
"766 59 OFFCURVE",
"766 18 CURVE SMOOTH",
"766 -24 OFFCURVE",
"786 -89 OFFCURVE",
"841 -94 CURVE SMOOTH",
"849 -95 OFFCURVE",
"855 -96 OFFCURVE",
"863 -92 CURVE SMOOTH",
"876 -86 OFFCURVE",
"890 -69 OFFCURVE",
"874 -53 CURVE SMOOTH"
);
},
{
closed = 1;
nodes = (
"397 190 OFFCURVE",
"397 140 OFFCURVE",
"395 93 CURVE SMOOTH",
"395 88 OFFCURVE",
"395 65 OFFCURVE",
"392 44 CURVE SMOOTH",
"390 26 OFFCURVE",
"390 8 OFFCURVE",
"384 8 CURVE SMOOTH",
"381 8 OFFCURVE",
"378 18 OFFCURVE",
"377 21 CURVE SMOOTH",
"366 75 OFFCURVE",
"386 191 OFFCURVE",
"396 241 CURVE"
);
}
);
width = 912;
}
);
note = N;
unicode = 004E;
},
{
glyphname = Eng;
lastChange = "2021-10-07 03:56:58 +0000";
layers = (
{
anchors = (
{
name = bottom;
position = "{1200, -43.492}";
},
{
name = top;
position = "{1200, 705}";
}
);
hints = (
{
horizontal = 1;
place = "{-34, 36}";
type = Stem;
},
{
horizontal = 1;
place = "{686, 37}";
type = Stem;
},
{
place = "{-54, 37}";
type = Stem;
},
{
place = "{772, 37}";
type = Stem;
},
{
place = "{816, 37}";
type = Stem;
},
{
horizontal = 1;
place = "{-261, 36}";
type = Stem;
},
{
place = "{1387, 37}";
type = Stem;
},
{
horizontal = 1;
place = "{-34, 36}";
type = Stem;
},
{
horizontal = 1;
place = "{686, 37}";
type = Stem;
},
{
place = "{-54, 37}";
type = Stem;
},
{
place = "{772, 37}";
type = Stem;
},
{
place = "{816, 37}";
type = Stem;
}
);
layerId = "2ADFC918-CAA7-4AF7-825A-5AAC412EF250";
paths = (
{
closed = 1;
nodes = (
"397 190 OFFCURVE",
"397 140 OFFCURVE",
"395 93 CURVE SMOOTH",
"395 88 OFFCURVE",
"395 65 OFFCURVE",
"392 44 CURVE SMOOTH",
"390 26 OFFCURVE",
"390 8 OFFCURVE",
"384 8 CURVE SMOOTH",
"381 8 OFFCURVE",
"378 18 OFFCURVE",
"377 21 CURVE SMOOTH",
"366 75 OFFCURVE",
"386 191 OFFCURVE",
"396 241 CURVE"
);
},
{
closed = 1;
nodes = (
"547 715 OFFCURVE",
"473 613 OFFCURVE",
"425 507 CURVE",
"397 637 OFFCURVE",
"302 736 OFFCURVE",
"151 729 CURVE SMOOTH",
"120 728 OFFCURVE",
"90 719 OFFCURVE",
"63 704 CURVE SMOOTH",
"-15 662 OFFCURVE",
"-55 582 OFFCURVE",
"-60 495 CURVE SMOOTH",
"-66 381 OFFCURVE",
"-1 281 OFFCURVE",
"117 263 CURVE SMOOTH",
"156 257 OFFCURVE",
"200 262 OFFCURVE",
"237 281 CURVE SMOOTH",
"367 348 OFFCURVE",
"345 572 OFFCURVE",
"186 569 CURVE SMOOTH",
"175 569 OFFCURVE",
"143 565 OFFCURVE",
"132 560 CURVE SMOOTH",
"108 548 OFFCURVE",
"107 511 OFFCURVE",
"145 513 CURVE SMOOTH",
"156 513 OFFCURVE",
"166 517 OFFCURVE",
"177 520 CURVE SMOOTH",
"259 538 OFFCURVE",
"327 384 OFFCURVE",
"215 326 CURVE SMOOTH",
"193 315 OFFCURVE",
"165 310 OFFCURVE",
"140 311 CURVE SMOOTH",
"41 316 OFFCURVE",
"-16 397 OFFCURVE",
"-11 493 CURVE SMOOTH",
"-7 564 OFFCURVE",
"25 625 OFFCURVE",
"88 660 CURVE SMOOTH",
"107 671 OFFCURVE",
"130 679 OFFCURVE",
"152 680 CURVE SMOOTH",
"303 684 OFFCURVE",
"376 577 OFFCURVE",
"385 437 CURVE SMOOTH",
"387 406 LINE",
"367 344 OFFCURVE",
"353 280 OFFCURVE",
"340 216 CURVE SMOOTH",
"329 164 OFFCURVE",
"282 -40 OFFCURVE",
"384 -40 CURVE SMOOTH",
"467 -40 OFFCURVE",
"456 119 OFFCURVE",
"453 175 CURVE SMOOTH",
"449 245 OFFCURVE",
"441 314 OFFCURVE",
"437 385 CURVE",
"480 507 OFFCURVE",
"558 671 OFFCURVE",
"654 669 CURVE SMOOTH",
"773 667 OFFCURVE",
"809 577 OFFCURVE",
"809 468 CURVE SMOOTH",
"809 427 OFFCURVE",
"805 385 OFFCURVE",
"800 345 CURVE SMOOTH",
"755 -31 OFFCURVE",
"724 -323 OFFCURVE",
"483 -329 CURVE SMOOTH",
"361 -331 OFFCURVE",
"297 -247 OFFCURVE",
"341 -145 CURVE SMOOTH",
"358 -108 OFFCURVE",
"314 -82 OFFCURVE",
"295 -125 CURVE SMOOTH",
"236 -261 OFFCURVE",
"325 -382 OFFCURVE",
"485 -379 CURVE SMOOTH",
"759 -373 OFFCURVE",
"806 -73 OFFCURVE",
"849 340 CURVE SMOOTH",
"854 382 OFFCURVE",
"858 425 OFFCURVE",
"858 468 CURVE SMOOTH",
"858 593 OFFCURVE",
"799 720 OFFCURVE",
"654 717 CURVE SMOOTH"
);
}
);
width = 903;
}
);
unicode = 014A;
},
{
glyphname = O;
layers = (
{
hints = (
{
horizontal = 1;
place = "{357, 36}";
type = Stem;
},
{
place = "{-1, 37}";
type = Stem;
},
{
place = "{700, 37}";
type = Stem;
}
);
layerId = "2ADFC918-CAA7-4AF7-825A-5AAC412EF250";
paths = (
{
closed = 1;
nodes = (
"750 383 OFFCURVE",
"729 516 OFFCURVE",
"623 579 CURVE",
"600 738 OFFCURVE",
"383 761 OFFCURVE",
"264 720 CURVE SMOOTH",
"158 683 OFFCURVE",
"82 609 OFFCURVE",
"37 517 CURVE",
"36 518 LINE SMOOTH",
"24 534 OFFCURVE",
"7 560 OFFCURVE",
"3 579 CURVE SMOOTH",
"-3 612 OFFCURVE",
"-2 621 OFFCURVE",
"1 626 CURVE SMOOTH",
"5 631 LINE SMOOTH",
"12 640 OFFCURVE",
"19 648 OFFCURVE",
"25 658 CURVE SMOOTH",
"43 690 OFFCURVE",
"11 707 OFFCURVE",
"-10 694 CURVE SMOOTH",
"-15 691 OFFCURVE",
"-19 687 OFFCURVE",
"-22 683 CURVE SMOOTH",
"-80 610 OFFCURVE",
"-39 524 OFFCURVE",
"17 466 CURVE",
"-4 404 OFFCURVE",
"-12 337 OFFCURVE",
"-7 270 CURVE SMOOTH",
"30 -190 OFFCURVE",
"717 -157 OFFCURVE",
"743 274 CURVE SMOOTH"
);
},
{
closed = 1;
nodes = (
"675 -94 OFFCURVE",
"74 -124 OFFCURVE",
"42 272 CURVE SMOOTH",
"38 326 OFFCURVE",
"43 379 OFFCURVE",
"57 430 CURVE",
"128 377 OFFCURVE",
"219 351 OFFCURVE",
"306 351 CURVE SMOOTH",
"406 351 OFFCURVE",
"540 380 OFFCURVE",
"599 472 CURVE SMOOTH",
"609 487 OFFCURVE",
"616 504 OFFCURVE",
"620 521 CURVE",
"687 465 OFFCURVE",
"698 362 OFFCURVE",
"694 276 CURVE SMOOTH"
);
},
{
closed = 1;
nodes = (
"572 533 OFFCURVE",
"566 518 OFFCURVE",
"559 505 CURVE SMOOTH",
"512 423 OFFCURVE",
"395 399 OFFCURVE",
"306 399 CURVE SMOOTH",
"225 399 OFFCURVE",
"138 426 OFFCURVE",
"75 479 CURVE",
"128 604 OFFCURVE",
"246 693 OFFCURVE",
"383 690 CURVE SMOOTH",
"448 688 OFFCURVE",
"538 662 OFFCURVE",
"566 601 CURVE",
"558 603 OFFCURVE",
"551 604 OFFCURVE",
"543 604 CURVE SMOOTH",
"528 605 OFFCURVE",
"482 602 OFFCURVE",
"469 586 CURVE SMOOTH",
"465 582 LINE",
"462 577 LINE SMOOTH",
"455 565 OFFCURVE",
"456 542 OFFCURVE",
"475 541 CURVE SMOOTH",
"481 541 OFFCURVE",
"498 545 OFFCURVE",
"503 550 CURVE",
"505 551 LINE SMOOTH",
"509 553 OFFCURVE",
"511 553 OFFCURVE",
"514 554 CURVE SMOOTH",
"533 558 OFFCURVE",
"555 555 OFFCURVE",
"574 548 CURVE"
);
}
);
width = 738;
}
);
note = O;
unicode = 004F;
},
{
glyphname = Oslash;
layers = (
{
hints = (
{
horizontal = 1;
place = "{-24, 51}";
type = Stem;
},
{
horizontal = 1;
place = "{609, 42}";
type = Stem;
},
{
place = "{30, 50}";
type = Stem;
},
{
place = "{107, 52}";
type = Stem;
},
{
place = "{233, 48}";
type = Stem;
},
{
place = "{543, 52}";
type = Stem;
},
{
place = "{620, 53}";
type = Stem;
}
);
layerId = "2ADFC918-CAA7-4AF7-825A-5AAC412EF250";
paths = (
{
closed = 1;
nodes = (
"595 668 OFFCURVE",
"543 668 OFFCURVE",
"543 634 CURVE SMOOTH",
"543 629 OFFCURVE",
"541 623 OFFCURVE",
"537 615 CURVE",
"490 650 OFFCURVE",
"432 668 OFFCURVE",
"367 659 CURVE",
"360 657 OFFCURVE",
"354 655 OFFCURVE",
"347 651 CURVE",
"159 681 OFFCURVE",
"30 494 OFFCURVE",
"30 320 CURVE SMOOTH",
"30 222 OFFCURVE",
"68 130 OFFCURVE",
"133 66 CURVE",
"118 38 OFFCURVE",
"107 9 OFFCURVE",
"107 -18 CURVE SMOOTH",
"107 -44 OFFCURVE",
"147 -55 OFFCURVE",
"158 -15 CURVE",
"159 -13 OFFCURVE",
"159 -8 OFFCURVE",
"159 -6 CURVE SMOOTH",
"159 4 OFFCURVE",
"164 18 OFFCURVE",
"172 32 CURVE",
"219 -1 OFFCURVE",
"276 -22 OFFCURVE",
"339 -24 CURVE SMOOTH",
"527 -30 OFFCURVE",
"672 135 OFFCURVE",
"672 320 CURVE",
"673 320 LINE",
"673 413 OFFCURVE",
"638 511 OFFCURVE",
"577 578 CURVE",
"587 597 OFFCURVE",
"595 616 OFFCURVE",
"595 634 CURVE SMOOTH"
);
},
{
closed = 1;
nodes = (
"548 533 LINE",
"593 476 OFFCURVE",
"620 397 OFFCURVE",
"620 320 CURVE SMOOTH",
"620 161 OFFCURVE",
"496 23 OFFCURVE",
"340 27 CURVE SMOOTH",
"286 28 OFFCURVE",
"238 46 OFFCURVE",
"198 75 CURVE",
"211 94 OFFCURVE",
"223 111 OFFCURVE",
"231 121 CURVE SMOOTH",
"327 247 OFFCURVE",
"423 373 OFFCURVE",
"521 497 CURVE SMOOTH"
);
},
{
closed = 1;
nodes = (
"160 109 LINE",
"110 163 OFFCURVE",
"80 238 OFFCURVE",
"80 319 CURVE SMOOTH",
"80 452 OFFCURVE",
"165 588 OFFCURVE",
"284 604 CURVE",
"240 555 OFFCURVE",
"211 483 OFFCURVE",
"255 418 CURVE SMOOTH",
"273 391 OFFCURVE",
"313 422 OFFCURVE",
"295 449 CURVE",
"246 499 OFFCURVE",
"341 609 OFFCURVE",
"373 609 CURVE",
"425 618 OFFCURVE",
"472 602 OFFCURVE",
"511 571 CURVE",
"499 553 OFFCURVE",
"487 538 OFFCURVE",
"481 530 CURVE SMOOTH",
"383 405 OFFCURVE",
"288 278 OFFCURVE",
"191 151 CURVE SMOOTH"
);
}
);
width = 688;
}
);
note = Oslash;
unicode = 00D8;
},
{
glyphname = OE;
lastChange = "2021-10-07 07:00:39 +0000";
layers = (
{
anchors = (
{
name = bottom;
position = "{1059.724, -36.555}";
},
{
name = ogonek;
position = "{1056.307, -37.259}";
},
{
name = top;
position = "{1083.867, 752}";
},
{
name = topleft;
position = "{758, 705}";
}
);
background = {
paths = (
{
closed = 1;
nodes = (
"1138 181 OFFCURVE",
"1139 203 OFFCURVE",
"1132 228 CURVE SMOOTH",
"1121 268 OFFCURVE",
"1088 305 OFFCURVE",
"1041 305 CURVE SMOOTH",
"1033 305 OFFCURVE",
"1007 301 OFFCURVE",
"999 292 CURVE SMOOTH",
"950 238 OFFCURVE",
"1046 254 OFFCURVE",
"1042 254 CURVE SMOOTH",
"1090 255 OFFCURVE",
"1088 196 OFFCURVE",
"1087 162 CURVE SMOOTH",
"1086 141 OFFCURVE",
"1077 120 OFFCURVE",
"1066 102 CURVE SMOOTH",
"1023 36 OFFCURVE",
"934 7 OFFCURVE",
"857 3 CURVE SMOOTH",
"734 -3 OFFCURVE",
"608 52 OFFCURVE",
"608 189 CURVE SMOOTH",
"608 269 OFFCURVE",
"671 334 OFFCURVE",
"744 370 CURVE",
"780 346 OFFCURVE",
"821 332 OFFCURVE",
"862 330 CURVE SMOOTH",
"936 327 OFFCURVE",
"978 348 OFFCURVE",
"984 379 CURVE SMOOTH",
"991 416 OFFCURVE",
"962 440 OFFCURVE",
"890 448 CURVE SMOOTH",
"845 452 OFFCURVE",
"793 441 OFFCURVE",
"751 426 CURVE",
"720 453 OFFCURVE",
"699 488 OFFCURVE",
"699 525 CURVE SMOOTH",
"699 642 OFFCURVE",
"795 687 OFFCURVE",
"901 687 CURVE SMOOTH",
"952 687 OFFCURVE",
"1014 662 OFFCURVE",
"1016 606 CURVE SMOOTH",
"1017 594 OFFCURVE",
"1013 579 OFFCURVE",
"1006 569 CURVE SMOOTH",
"993 551 OFFCURVE",
"952 560 OFFCURVE",
"949 574 CURVE",
"949 577 OFFCURVE",
"952 584 OFFCURVE",
"952 588 CURVE SMOOTH",
"954 637 OFFCURVE",
"903 621 OFFCURVE",
"903 589 CURVE SMOOTH",
"902 518 OFFCURVE",
"1000 472 OFFCURVE",
"1048 542 CURVE SMOOTH",
"1061 560 OFFCURVE",
"1067 583 OFFCURVE",
"1067 605 CURVE SMOOTH",
"1065 691 OFFCURVE",
"974 736 OFFCURVE",
"901 736 CURVE SMOOTH",
"772 736 OFFCURVE",
"649 671 OFFCURVE",
"649 524 CURVE SMOOTH",
"649 477 OFFCURVE",
"670 436 OFFCURVE",
"701 403 CURVE",
"622 359 OFFCURVE",
"561 285 OFFCURVE",
"561 188 CURVE SMOOTH",
"561 -139 OFFCURVE",
"1110 -98 OFFCURVE",
"1136 159 CURVE SMOOTH"
);
},
{
closed = 1;
nodes = (
"811 413 OFFCURVE",
"940 433 OFFCURVE",
"934 387 CURVE SMOOTH",
"930 353 OFFCURVE",
"808 372 OFFCURVE",
"789 396 CURVE"
);
}
);
};
hints = (
{
horizontal = 1;
place = "{-23, 50}";
type = Stem;
},
{
horizontal = 1;
place = "{661, -20}";
target = down;
type = TopGhost;
},
{
place = "{30, 51}";
type = Stem;
},
{
place = "{622, 51}";
type = Stem;
},
{
horizontal = 1;
place = "{357, 36}";
type = Stem;
},
{
place = "{-1, 37}";
type = Stem;
},
{
place = "{700, 37}";
type = Stem;
},
{
horizontal = 1;
place = "{-39, 36}";
type = Stem;
},
{
horizontal = 1;
place = "{338, 37}";
type = Stem;
},
{
horizontal = 1;
place = "{693, 37}";
type = Stem;
},
{
place = "{755, 36}";
type = Stem;
},
{
place = "{844, 37}";
type = Stem;
}
);
layerId = "2ADFC918-CAA7-4AF7-825A-5AAC412EF250";
paths = (
{
closed = 1;
nodes = (
"1121 268 OFFCURVE",
"1088 305 OFFCURVE",
"1041 305 CURVE SMOOTH",
"1033 305 OFFCURVE",
"1007 301 OFFCURVE",
"999 292 CURVE SMOOTH",
"950 238 OFFCURVE",
"1046 254 OFFCURVE",
"1042 254 CURVE SMOOTH",
"1090 255 OFFCURVE",
"1088 196 OFFCURVE",
"1087 162 CURVE SMOOTH",
"1086 141 OFFCURVE",
"1077 120 OFFCURVE",
"1066 102 CURVE SMOOTH",
"1023 36 OFFCURVE",
"934 7 OFFCURVE",
"857 3 CURVE SMOOTH",
"734 -3 OFFCURVE",
"608 52 OFFCURVE",
"608 189 CURVE SMOOTH",
"608 269 OFFCURVE",
"671 334 OFFCURVE",
"744 370 CURVE",
"780 346 OFFCURVE",
"821 332 OFFCURVE",
"862 330 CURVE SMOOTH",
"936 327 OFFCURVE",
"978 348 OFFCURVE",
"984 379 CURVE SMOOTH",
"991 416 OFFCURVE",
"962 440 OFFCURVE",
"890 448 CURVE SMOOTH",
"845 452 OFFCURVE",
"793 441 OFFCURVE",
"751 426 CURVE",
"720 453 OFFCURVE",
"699 488 OFFCURVE",
"699 525 CURVE SMOOTH",
"699 642 OFFCURVE",
"795 687 OFFCURVE",
"901 687 CURVE SMOOTH",
"952 687 OFFCURVE",
"1014 662 OFFCURVE",
"1016 606 CURVE SMOOTH",
"1017 594 OFFCURVE",
"1013 579 OFFCURVE",
"1006 569 CURVE SMOOTH",
"993 551 OFFCURVE",
"952 560 OFFCURVE",
"949 574 CURVE",
"949 577 OFFCURVE",
"952 584 OFFCURVE",
"952 588 CURVE SMOOTH",
"954 637 OFFCURVE",
"903 621 OFFCURVE",
"903 589 CURVE SMOOTH",
"902 518 OFFCURVE",
"1000 472 OFFCURVE",
"1048 542 CURVE SMOOTH",
"1061 560 OFFCURVE",
"1067 583 OFFCURVE",
"1067 605 CURVE SMOOTH",
"1065 691 OFFCURVE",
"974 736 OFFCURVE",
"901 736 CURVE SMOOTH",
"783 736 OFFCURVE",
"670 682 OFFCURVE",
"652 560 CURVE",
"644 566 OFFCURVE",
"634 572 OFFCURVE",
"623 579 CURVE",
"600 738 OFFCURVE",
"383 761 OFFCURVE",
"264 720 CURVE SMOOTH",
"158 683 OFFCURVE",
"82 609 OFFCURVE",
"37 517 CURVE",
"36 518 LINE SMOOTH",
"22 532 OFFCURVE",
"7 560 OFFCURVE",
"3 579 CURVE SMOOTH",
"-3 612 OFFCURVE",
"-3 621 OFFCURVE",
"1 626 CURVE SMOOTH",
"5 631 LINE SMOOTH",
"12 640 OFFCURVE",
"19 648 OFFCURVE",
"25 658 CURVE SMOOTH",
"43 690 OFFCURVE",
"11 707 OFFCURVE",
"-10 694 CURVE SMOOTH",
"-15 691 OFFCURVE",
"-19 687 OFFCURVE",
"-22 683 CURVE SMOOTH",
"-80 610 OFFCURVE",
"-39 524 OFFCURVE",
"17 466 CURVE",
"-4 404 OFFCURVE",
"-12 337 OFFCURVE",
"-7 270 CURVE SMOOTH",
"21 -76 OFFCURVE",
"418 -143 OFFCURVE",
"624 29 CURVE",
"768 -112 OFFCURVE",
"1115 -44 OFFCURVE",
"1136 159 CURVE SMOOTH",
"1138 181 OFFCURVE",
"1139 203 OFFCURVE",
"1132 228 CURVE SMOOTH"
);
},
{
closed = 1;
nodes = (
"448 688 OFFCURVE",
"538 662 OFFCURVE",
"566 601 CURVE",
"558 603 OFFCURVE",
"551 604 OFFCURVE",
"543 604 CURVE SMOOTH",
"528 605 OFFCURVE",
"484 601 OFFCURVE",
"469 586 CURVE SMOOTH",
"465 582 LINE",
"462 577 LINE SMOOTH",
"455 565 OFFCURVE",
"456 542 OFFCURVE",
"475 541 CURVE SMOOTH",
"481 541 OFFCURVE",
"498 545 OFFCURVE",
"503 550 CURVE",
"505 551 LINE SMOOTH",
"509 553 OFFCURVE",
"511 553 OFFCURVE",
"514 554 CURVE SMOOTH",
"533 558 OFFCURVE",
"555 555 OFFCURVE",
"574 548 CURVE",
"572 533 OFFCURVE",
"566 518 OFFCURVE",
"559 505 CURVE SMOOTH",
"512 423 OFFCURVE",
"395 399 OFFCURVE",
"306 399 CURVE SMOOTH",
"225 399 OFFCURVE",
"138 426 OFFCURVE",
"75 479 CURVE",
"128 604 OFFCURVE",
"246 693 OFFCURVE",
"383 690 CURVE SMOOTH"
);
},
{
closed = 1;
nodes = (
"38 326 OFFCURVE",
"43 379 OFFCURVE",
"57 430 CURVE",
"128 377 OFFCURVE",
"219 351 OFFCURVE",
"306 351 CURVE SMOOTH",
"406 351 OFFCURVE",
"540 380 OFFCURVE",
"599 472 CURVE SMOOTH",
"609 487 OFFCURVE",
"616 504 OFFCURVE",
"620 521 CURVE",
"634 509 OFFCURVE",
"646 495 OFFCURVE",
"655 480 CURVE",
"664 451 OFFCURVE",
"680 425 OFFCURVE",
"701 403 CURVE",
"622 359 OFFCURVE",
"561 285 OFFCURVE",
"561 188 CURVE SMOOTH",
"561 140 OFFCURVE",
"573 100 OFFCURVE",
"593 67 CURVE",
"416 -83 OFFCURVE",
"66 -28 OFFCURVE",
"42 272 CURVE SMOOTH"
);
},
{
closed = 1;
nodes = (
"930 353 OFFCURVE",
"808 372 OFFCURVE",
"789 396 CURVE",
"811 413 OFFCURVE",
"940 433 OFFCURVE",
"934 387 CURVE SMOOTH"
);
}
);
width = 1139;
}
);
note = OE;
unicode = 0152;
},
{
glyphname = P;
lastChange = "2021-10-07 04:31:02 +0000";
layers = (
{
hints = (
{
horizontal = 1;
place = "{680, 37}";
type = Stem;
},
{
place = "{-55, 37}";
type = Stem;
},
{
place = "{205, 37}";
type = Stem;
},
{
place = "{571, 36}";
type = Stem;
}
);
layerId = "2ADFC918-CAA7-4AF7-825A-5AAC412EF250";
paths = (
{
closed = 1;
nodes = (
"570 369 OFFCURVE",
"487 313 OFFCURVE",
"374 291 CURVE SMOOTH",
"333 283 OFFCURVE",
"290 280 OFFCURVE",
"248 284 CURVE",
"248 334 OFFCURVE",
"247 493 OFFCURVE",
"283 535 CURVE SMOOTH",
"286 538 OFFCURVE",
"289 542 OFFCURVE",
"299 549 CURVE SMOOTH",
"322 565 OFFCURVE",
"300 596 OFFCURVE",
"267 582 CURVE",
"206 549 OFFCURVE",
"204 443 OFFCURVE",
"201 384 CURVE SMOOTH",
"198 307 OFFCURVE",
"195 4 OFFCURVE",
"162 -21 CURVE",
"150 -21 OFFCURVE",
"135 -20 OFFCURVE",
"127 -30 CURVE SMOOTH",
"119 -43 OFFCURVE",
"117 -70 OFFCURVE",
"155 -70 CURVE SMOOTH",
"216 -70 OFFCURVE",
"232 27 OFFCURVE",
"237 81 CURVE SMOOTH",
"242 132 OFFCURVE",
"242 183 OFFCURVE",
"244 235 CURVE",
"728 201 OFFCURVE",
"726 709 OFFCURVE",
"302 723 CURVE SMOOTH",
"178 727 OFFCURVE",
"17 684 OFFCURVE",
"-41 559 CURVE SMOOTH",
"-65 507 OFFCURVE",
"-71 440 OFFCURVE",
"-40 390 CURVE SMOOTH",
"-4 334 OFFCURVE",
"77 306 OFFCURVE",
"139 335 CURVE SMOOTH",
"144 337 OFFCURVE",
"163 348 OFFCURVE",
"166 354 CURVE",
"191 392 OFFCURVE",
"145 402 OFFCURVE",
"126 384 CURVE SMOOTH",
"118 376 OFFCURVE",
"113 374 OFFCURVE",
"100 373 CURVE SMOOTH",
"46 367 OFFCURVE",
"-9 409 OFFCURVE",
"-12 463 CURVE SMOOTH",
"-13 492 OFFCURVE",
"-4 523 OFFCURVE",
"10 548 CURVE SMOOTH",
"79 671 OFFCURVE",
"277 695 OFFCURVE",
"400 658 CURVE SMOOTH",
"476 635 OFFCURVE",
"562 577 OFFCURVE",
"565 492 CURVE SMOOTH"
);
}
);
width = 594;
}
);
note = P;
unicode = 0050;
},
{
glyphname = Q;
layers = (
{
hints = (
{
horizontal = 1;
place = "{-154, 37}";
type = Stem;
},
{
horizontal = 1;
place = "{357, 36}";
type = Stem;
},
{
place = "{49, 37}";
type = Stem;
}
);
layerId = "2ADFC918-CAA7-4AF7-825A-5AAC412EF250";
paths = (
{
closed = 1;
nodes = (
"791 252 OFFCURVE",
"792 383 OFFCURVE",
"708 496 CURVE SMOOTH",
"698 509 OFFCURVE",
"685 520 OFFCURVE",
"672 530 CURVE",
"675 545 OFFCURVE",
"676 560 OFFCURVE",
"674 575 CURVE SMOOTH",
"656 738 OFFCURVE",
"434 762 OFFCURVE",
"314 720 CURVE SMOOTH",
"208 683 OFFCURVE",
"132 608 OFFCURVE",
"88 516 CURVE",
"70 542 OFFCURVE",
"60 572 OFFCURVE",
"61 603 CURVE SMOOTH",
"61 617 OFFCURVE",
"65 642 OFFCURVE",
"73 654 CURVE",
"75 656 LINE",
"76 658 OFFCURVE",
"78 661 OFFCURVE",
"78 664 CURVE",
"87 709 OFFCURVE",
"41 705 OFFCURVE",
"31 680 CURVE SMOOTH",
"19 652 OFFCURVE",
"12 631 OFFCURVE",
"12 600 CURVE SMOOTH",
"12 549 OFFCURVE",
"34 502 OFFCURVE",
"67 464 CURVE",
"46 403 OFFCURVE",
"38 337 OFFCURVE",
"43 270 CURVE SMOOTH",
"49 192 OFFCURVE",
"76 119 OFFCURVE",
"127 59 CURVE",
"125 57 LINE",
"117 53 LINE SMOOTH",
"97 44 OFFCURVE",
"95 6 OFFCURVE",
"137 9 CURVE",
"137 9 OFFCURVE",
"157 18 OFFCURVE",
"165 21 CURVE",
"255 -53 OFFCURVE",
"384 -79 OFFCURVE",
"497 -52 CURVE",
"547 -101 OFFCURVE",
"587 -150 OFFCURVE",
"663 -159 CURVE SMOOTH",
"671 -160 OFFCURVE",
"702 -162 OFFCURVE",
"708 -160 CURVE SMOOTH",
"750 -148 OFFCURVE",
"721 -104 OFFCURVE",
"691 -112 CURVE SMOOTH",
"687 -113 LINE",
"683 -113 LINE SMOOTH",
"626 -116 OFFCURVE",
"587 -72 OFFCURVE",
"551 -35 CURVE",
"624 -5 OFFCURVE",
"702 53 OFFCURVE",
"735 127 CURVE SMOOTH"
);
},
{
closed = 1;
nodes = (
"662 78 OFFCURVE",
"583 25 OFFCURVE",
"511 2 CURVE",
"415 80 OFFCURVE",
"298 114 OFFCURVE",
"177 77 CURVE",
"124 130 OFFCURVE",
"98 197 OFFCURVE",
"92 272 CURVE SMOOTH",
"88 324 OFFCURVE",
"93 377 OFFCURVE",
"107 426 CURVE",
"177 373 OFFCURVE",
"271 351 OFFCURVE",
"357 351 CURVE SMOOTH",
"458 351 OFFCURVE",
"594 380 OFFCURVE",
"652 477 CURVE SMOOTH",
"655 482 LINE",
"669 467 LINE",
"744 369 OFFCURVE",
"740 258 OFFCURVE",
"692 147 CURVE SMOOTH"
);
},
{
closed = 1;
nodes = (
"549 584 OFFCURVE",
"469 569 OFFCURVE",
"417 500 CURVE SMOOTH",
"411 493 OFFCURVE",
"393 466 OFFCURVE",
"391 458 CURVE SMOOTH",
"383 429 OFFCURVE",
"412 409 OFFCURVE",
"434 435 CURVE SMOOTH",
"437 439 OFFCURVE",
"439 443 OFFCURVE",
"441 447 CURVE SMOOTH",
"448 463 OFFCURVE",
"459 477 OFFCURVE",
"471 489 CURVE SMOOTH",
"508 523 OFFCURVE",
"564 528 OFFCURVE",
"612 509 CURVE",
"566 422 OFFCURVE",
"441 399 OFFCURVE",
"357 399 CURVE SMOOTH",
"275 399 OFFCURVE",
"185 419 OFFCURVE",
"124 474 CURVE",
"175 597 OFFCURVE",
"289 689 OFFCURVE",
"423 690 CURVE SMOOTH",
"493 691 OFFCURVE",
"631 659 OFFCURVE",
"625 555 CURVE"
);
},
{
closed = 1;
nodes = (
"373 -19 OFFCURVE",
"291 -3 OFFCURVE",
"227 39 CURVE",
"300 50 OFFCURVE",
"388 31 OFFCURVE",
"449 -11 CURVE"
);
},
{
closed = 1;
nodes = (
"529 -31 LINE",
"520 -34 OFFCURVE",
"510 -37 OFFCURVE",
"500 -39 CURVE",
"494 -32 OFFCURVE",
"487 -26 OFFCURVE",
"479 -20 CURVE",
"489 -18 OFFCURVE",
"499 -14 OFFCURVE",
"508 -11 CURVE"
);
}
);
width = 768;
}
);
note = Q;
unicode = 0051;
},
{
glyphname = R;
layers = (
{
hints = (
{
horizontal = 1;
place = "{453, 37}";
type = Stem;
},
{
horizontal = 1;
place = "{695, 37}";
type = Stem;
},
{
place = "{352, 37}";
type = Stem;
}
);
layerId = "2ADFC918-CAA7-4AF7-825A-5AAC412EF250";
paths = (
{
closed = 1;
nodes = (
"932 -75 OFFCURVE",
"927 -40 OFFCURVE",
"892 -42 CURVE SMOOTH",
"888 -42 OFFCURVE",
"884 -44 OFFCURVE",
"880 -45 CURVE SMOOTH",
"795 -62 OFFCURVE",
"704 69 OFFCURVE",
"660 132 CURVE SMOOTH",
"625 181 OFFCURVE",
"581 237 OFFCURVE",
"529 282 CURVE",
"595 298 OFFCURVE",
"658 332 OFFCURVE",
"697 380 CURVE SMOOTH",
"744 438 OFFCURVE",
"756 517 OFFCURVE",
"723 585 CURVE SMOOTH",
"662 708 OFFCURVE",
"500 738 OFFCURVE",
"380 738 CURVE SMOOTH",
"207 738 OFFCURVE",
"37 665 OFFCURVE",
"4 475 CURVE SMOOTH",
"-13 374 OFFCURVE",
"38 281 OFFCURVE",
"146 269 CURVE SMOOTH",
"180 265 OFFCURVE",
"217 271 OFFCURVE",
"247 288 CURVE SMOOTH",
"313 326 OFFCURVE",
"332 448 OFFCURVE",
"253 486 CURVE SMOOTH",
"246 489 OFFCURVE",
"222 497 OFFCURVE",
"214 496 CURVE SMOOTH",
"164 487 OFFCURVE",
"200 439 OFFCURVE",
"228 445 CURVE",
"230 445 LINE SMOOTH",
"232 445 OFFCURVE",
"232 444 OFFCURVE",
"238 440 CURVE SMOOTH",
"268 418 OFFCURVE",
"257 349 OFFCURVE",
"225 331 CURVE SMOOTH",
"207 321 OFFCURVE",
"180 316 OFFCURVE",
"159 317 CURVE SMOOTH",
"76 320 OFFCURVE",
"40 389 OFFCURVE",
"53 467 CURVE SMOOTH",
"79 631 OFFCURVE",
"228 689 OFFCURVE",
"380 689 CURVE SMOOTH",
"485 689 OFFCURVE",
"630 668 OFFCURVE",
"678 563 CURVE SMOOTH",
"701 511 OFFCURVE",
"696 454 OFFCURVE",
"658 410 CURVE SMOOTH",
"622 369 OFFCURVE",
"549 332 OFFCURVE",
"481 319 CURVE",
"456 335 OFFCURVE",
"430 348 OFFCURVE",
"403 356 CURVE",
"407 405 OFFCURVE",
"415 510 OFFCURVE",
"442 549 CURVE",
"475 558 OFFCURVE",
"471 595 OFFCURVE",
"443 595 CURVE SMOOTH",
"403 595 OFFCURVE",
"377 523 OFFCURVE",
"371 492 CURVE SMOOTH",
"363 450 OFFCURVE",
"359 405 OFFCURVE",
"354 362 CURVE",
"323 351 OFFCURVE",
"327 307 OFFCURVE",
"346 289 CURVE",
"342 241 OFFCURVE",
"338 194 OFFCURVE",
"332 147 CURVE SMOOTH",
"325 89 LINE SMOOTH",
"322 52 OFFCURVE",
"318 28 OFFCURVE",
"299 -4 CURVE SMOOTH",
"287 -22 LINE SMOOTH",
"280 -34 OFFCURVE",
"271 -54 OFFCURVE",
"287 -66 CURVE SMOOTH",
"293 -71 OFFCURVE",
"304 -68 OFFCURVE",
"309 -66 CURVE SMOOTH",
"345 -50 OFFCURVE",
"368 48 OFFCURVE",
"374 83 CURVE SMOOTH",
"385 146 OFFCURVE",
"389 210 OFFCURVE",
"395 274 CURVE",
"417 270 OFFCURVE",
"441 270 OFFCURVE",
"465 272 CURVE",
"526 224 OFFCURVE",
"585 153 OFFCURVE",
"620 104 CURVE SMOOTH",
"675 26 OFFCURVE",
"755 -96 OFFCURVE",
"863 -95 CURVE SMOOTH",
"871 -95 OFFCURVE",
"897 -92 OFFCURVE",
"906 -88 CURVE SMOOTH"
);
},
{
closed = 1;
nodes = (
"418 303 LINE",
"399 312 LINE",
"399 311 LINE",
"394 317 LINE",
"403 315 OFFCURVE",
"412 314 OFFCURVE",
"421 314 CURVE"
);
}
);
width = 763;
}
);
note = R;
unicode = 0052;
},
{
glyphname = S;
layers = (
{
hints = (
{
horizontal = 1;
place = "{-80, 37}";
type = Stem;
},
{
horizontal = 1;
place = "{685, 37}";
type = Stem;
},
{
place = "{564, 37}";
type = Stem;
}
);
layerId = "2ADFC918-CAA7-4AF7-825A-5AAC412EF250";
paths = (
{
closed = 1;
nodes = (
"607 308 OFFCURVE",
"503 374 OFFCURVE",
"388 408 CURVE SMOOTH",
"339 422 OFFCURVE",
"209 455 OFFCURVE",
"195 511 CURVE SMOOTH",
"171 611 OFFCURVE",
"258 678 OFFCURVE",
"352 678 CURVE SMOOTH",
"381 678 OFFCURVE",
"410 673 OFFCURVE",
"436 659 CURVE SMOOTH",
"468 642 OFFCURVE",
"497 605 OFFCURVE",
"491 569 CURVE SMOOTH",
"488 553 OFFCURVE",
"480 545 OFFCURVE",
"468 537 CURVE SMOOTH",
"455 529 OFFCURVE",
"431 532 OFFCURVE",
"429 550 CURVE SMOOTH",
"429 557 OFFCURVE",
"432 561 OFFCURVE",
"429 570 CURVE SMOOTH",
"419 604 OFFCURVE",
"384 581 OFFCURVE",
"381 558 CURVE SMOOTH",
"372 482 OFFCURVE",
"465 468 OFFCURVE",
"509 507 CURVE SMOOTH",
"576 566 OFFCURVE",
"530 658 OFFCURVE",
"471 695 CURVE SMOOTH",
"435 718 OFFCURVE",
"393 727 OFFCURVE",
"352 727 CURVE SMOOTH",
"230 727 OFFCURVE",
"111 633 OFFCURVE",
"149 499 CURVE SMOOTH",
"175 408 OFFCURVE",
"296 386 OFFCURVE",
"374 362 CURVE SMOOTH",
"471 332 OFFCURVE",
"558 283 OFFCURVE",
"558 172 CURVE SMOOTH",
"558 35 OFFCURVE",
"418 -36 OFFCURVE",
"294 -36 CURVE SMOOTH",
"256 -36 OFFCURVE",
"218 -30 OFFCURVE",
"183 -16 CURVE SMOOTH",
"103 15 OFFCURVE",
"42 85 OFFCURVE",
"57 173 CURVE SMOOTH",
"71 254 OFFCURVE",
"119 292 OFFCURVE",
"202 282 CURVE SMOOTH",
"256 275 OFFCURVE",
"301 240 OFFCURVE",
"310 185 CURVE SMOOTH",
"312 172 OFFCURVE",
"312 153 OFFCURVE",
"308 141 CURVE SMOOTH",
"298 109 OFFCURVE",
"235 85 OFFCURVE",
"204 94 CURVE SMOOTH",
"196 96 OFFCURVE",
"194 95 OFFCURVE",
"194 97 CURVE",
"193 99 LINE SMOOTH",
"181 122 OFFCURVE",
"123 123 OFFCURVE",
"144 78 CURVE SMOOTH",
"147 72 OFFCURVE",
"169 57 OFFCURVE",
"175 54 CURVE SMOOTH",
"239 22 OFFCURVE",
"332 60 OFFCURVE",
"354 128 CURVE SMOOTH",
"387 229 OFFCURVE",
"303 318 OFFCURVE",
"208 331 CURVE SMOOTH",
"103 345 OFFCURVE",
"24 284 OFFCURVE",
"8 181 CURVE SMOOTH",
"-18 11 OFFCURVE",
"148 -85 OFFCURVE",
"294 -85 CURVE SMOOTH",
"442 -85 OFFCURVE",
"607 3 OFFCURVE",
"607 172 CURVE SMOOTH"
);
}
);
width = 635;
}
);
note = S;
unicode = 0053;
},
{
glyphname = Germandbls;
lastChange = "2021-10-07 04:02:08 +0000";
layers = (
{
hints = (
{
horizontal = 1;
place = "{408, 49}";
type = Stem;
},
{
horizontal = 1;
place = "{465, -20}";
target = down;
type = TopGhost;
},
{
horizontal = 1;
place = "{674, -20}";
target = down;
type = TopGhost;
},
{
place = "{92, 51}";
type = Stem;
},
{
place = "{310, 50}";
type = Stem;
}
);
layerId = "2ADFC918-CAA7-4AF7-825A-5AAC412EF250";
paths = (
{
closed = 1;
nodes = (
"441 222 OFFCURVE",
"399 271 OFFCURVE",
"325 295 CURVE SMOOTH",
"293 305 OFFCURVE",
"248 319 OFFCURVE",
"235 350 CURVE",
"359 416 OFFCURVE",
"441 463 OFFCURVE",
"454 557 CURVE SMOOTH",
"468 661 OFFCURVE",
"363 674 OFFCURVE",
"311 673 CURVE SMOOTH",
"231 671 OFFCURVE",
"186 653 OFFCURVE",
"162 617 CURVE SMOOTH",
"138 581 OFFCURVE",
"138 561 OFFCURVE",
"70 224 CURVE SMOOTH",
"52 135 OFFCURVE",
"0 -80 OFFCURVE",
"-8 -107 CURVE SMOOTH",
"-21 -152 OFFCURVE",
"20 -162 OFFCURVE",
"39 -111 CURVE SMOOTH",
"56 -64 OFFCURVE",
"100 124 OFFCURVE",
"121 231 CURVE SMOOTH",
"130 277 OFFCURVE",
"172 546 OFFCURVE",
"205 589 CURVE SMOOTH",
"227 617 OFFCURVE",
"258 632 OFFCURVE",
"308 632 CURVE SMOOTH",
"344 632 OFFCURVE",
"428 612 OFFCURVE",
"406 550 CURVE SMOOTH",
"379 470 OFFCURVE",
"281 425 OFFCURVE",
"209 391 CURVE",
"163 347 OFFCURVE",
"189 290 OFFCURVE",
"306 251 CURVE SMOOTH",
"362 232 OFFCURVE",
"394 200 OFFCURVE",
"394 142 CURVE SMOOTH",
"394 80 OFFCURVE",
"358 41 OFFCURVE",
"312 23 CURVE SMOOTH",
"241 -4 OFFCURVE",
"148 15 OFFCURVE",
"155 75 CURVE",
"167 116 OFFCURVE",
"116 129 OFFCURVE",
"105 80 CURVE",
"104 -28 OFFCURVE",
"230 -56 OFFCURVE",
"329 -16 CURVE SMOOTH",
"395 11 OFFCURVE",
"447 68 OFFCURVE",
"444 144 CURVE SMOOTH"
);
}
);
width = 474;
}
);
unicode = 1E9E;
},
{
glyphname = Schwa;
lastChange = "2021-10-07 03:59:32 +0000";
layers = (
{
anchors = (
{
name = bottom;
position = "{344, -47}";
},
{
name = top;
position = "{327.786, 732.585}";
}
);
hints = (
{
horizontal = 1;
place = "{748, -37}";
type = Stem;
},
{
horizontal = 1;
place = "{21, -36}";
type = Stem;
},
{
place = "{688, -37}";
type = Stem;
},
{
place = "{94, -37}";
type = Stem;
}
);
layerId = "2ADFC918-CAA7-4AF7-825A-5AAC412EF250";
paths = (
{
closed = 1;
nodes = (
"66 530 OFFCURVE",
"72 518 OFFCURVE",
"80 518 CURVE SMOOTH",
"104 518 OFFCURVE",
"99 551 OFFCURVE",
"114 573 CURVE SMOOTH",
"139 625 OFFCURVE",
"201 667 OFFCURVE",
"252 683 CURVE SMOOTH",
"277 691 OFFCURVE",
"300 694 OFFCURVE",
"326 694 CURVE SMOOTH",
"489 694 OFFCURVE",
"569 574 OFFCURVE",
"573 399 CURVE SMOOTH",
"576 224 OFFCURVE",
"484 60 OFFCURVE",
"293 60 CURVE SMOOTH",
"208 60 OFFCURVE",
"113 107 OFFCURVE",
"113 214 CURVE SMOOTH",
"113 308 OFFCURVE",
"259 440 OFFCURVE",
"563 365 CURVE SMOOTH",
"601 356 OFFCURVE",
"639 397 OFFCURVE",
"569 410 CURVE SMOOTH",
"218 475 OFFCURVE",
"69 335 OFFCURVE",
"69 214 CURVE SMOOTH",
"69 77 OFFCURVE",
"188 15 OFFCURVE",
"291 15 CURVE SMOOTH",
"516 15 OFFCURVE",
"618 200 OFFCURVE",
"616 399 CURVE SMOOTH",
"614 596 OFFCURVE",
"511 740 OFFCURVE",
"326 740 CURVE SMOOTH",
"238 740 OFFCURVE",
"141 697 OFFCURVE",
"90 615 CURVE SMOOTH",
"77 593 OFFCURVE",
"66 567 OFFCURVE",
"66 539 CURVE SMOOTH"
);
}
);
width = 689;
}
);
unicode = 018F;
},
{
glyphname = T;
layers = (
{
hints = (
{
horizontal = 1;
place = "{-60, 37}";
type = Stem;
},
{
horizontal = 1;
place = "{124, 37}";
type = Stem;
},
{
horizontal = 1;
place = "{672, 37}";
type = Stem;
},
{
place = "{502, 37}";
type = Stem;
}
);
layerId = "2ADFC918-CAA7-4AF7-825A-5AAC412EF250";
paths = (
{
closed = 1;
nodes = (
"805 695 OFFCURVE",
"747 668 OFFCURVE",
"747 651 CURVE SMOOTH",
"747 650 LINE SMOOTH",
"747 649 OFFCURVE",
"746 649 OFFCURVE",
"742 646 CURVE SMOOTH",
"703 617 OFFCURVE",
"606 626 OFFCURVE",
"559 638 CURVE SMOOTH",
"555 639 LINE",
"562 663 OFFCURVE",
"572 674 OFFCURVE",
"584 674 CURVE SMOOTH",
"615 674 OFFCURVE",
"610 720 OFFCURVE",
"577 722 CURVE SMOOTH",
"569 722 OFFCURVE",
"546 707 OFFCURVE",
"541 703 CURVE SMOOTH",
"526 690 OFFCURVE",
"515 673 OFFCURVE",
"507 653 CURVE",
"475 663 OFFCURVE",
"443 675 OFFCURVE",
"411 685 CURVE SMOOTH",
"352 704 OFFCURVE",
"295 715 OFFCURVE",
"233 715 CURVE SMOOTH",
"24 715 OFFCURVE",
"-35 424 OFFCURVE",
"155 378 CURVE SMOOTH",
"223 361 OFFCURVE",
"335 401 OFFCURVE",
"340 485 CURVE SMOOTH",
"340 491 OFFCURVE",
"340 513 OFFCURVE",
"335 521 CURVE SMOOTH",
"306 567 OFFCURVE",
"278 496 OFFCURVE",
"297 487 CURVE",
"294 483 LINE",
"283 444 OFFCURVE",
"206 416 OFFCURVE",
"167 424 CURVE SMOOTH",
"44 450 OFFCURVE",
"71 665 OFFCURVE",
"233 665 CURVE SMOOTH",
"330 665 OFFCURVE",
"404 631 OFFCURVE",
"494 604 CURVE",
"488 564 OFFCURVE",
"488 520 OFFCURVE",
"490 478 CURVE SMOOTH",
"493 434 OFFCURVE",
"496 393 OFFCURVE",
"496 363 CURVE SMOOTH",
"494 169 OFFCURVE",
"454 -16 OFFCURVE",
"225 -16 CURVE SMOOTH",
"103 -16 OFFCURVE",
"30 81 OFFCURVE",
"50 199 CURVE SMOOTH",
"67 297 OFFCURVE",
"213 364 OFFCURVE",
"266 267 CURVE SMOOTH",
"282 237 OFFCURVE",
"280 192 OFFCURVE",
"249 175 CURVE SMOOTH",
"237 169 OFFCURVE",
"235 168 OFFCURVE",
"231 169 CURVE SMOOTH",
"221 170 OFFCURVE",
"215 170 OFFCURVE",
"204 167 CURVE SMOOTH",
"166 158 OFFCURVE",
"176 124 OFFCURVE",
"201 118 CURVE SMOOTH",
"214 115 OFFCURVE",
"242 120 OFFCURVE",
"254 124 CURVE SMOOTH",
"324 146 OFFCURVE",
"344 234 OFFCURVE",
"308 292 CURVE SMOOTH",
"220 432 OFFCURVE",
"25 343 OFFCURVE",
"1 207 CURVE SMOOTH",
"-25 61 OFFCURVE",
"75 -65 OFFCURVE",
"225 -65 CURVE SMOOTH",
"484 -65 OFFCURVE",
"548 147 OFFCURVE",
"545 363 CURVE SMOOTH",
"545 378 OFFCURVE",
"542 415 OFFCURVE",
"541 460 CURVE SMOOTH",
"540 502 OFFCURVE",
"540 550 OFFCURVE",
"545 591 CURVE",
"608 577 OFFCURVE",
"722 558 OFFCURVE",
"777 616 CURVE SMOOTH",
"781 620 OFFCURVE",
"794 636 OFFCURVE",
"795 642 CURVE SMOOTH"
);
}
);
width = 586;
}
);
note = T;
unicode = 0054;
},
{
glyphname = U;
lastChange = "2021-10-07 03:48:23 +0000";
layers = (
{
hints = (
{
horizontal = 1;
place = "{-47, 37}";
type = Stem;
}
);
layerId = "2ADFC918-CAA7-4AF7-825A-5AAC412EF250";
paths = (
{
closed = 1;
nodes = (
"856 -15 LINE",
"855 -15 OFFCURVE",
"854 -14 OFFCURVE",
"854 -13 CURVE",
"783 79 OFFCURVE",
"816 458 OFFCURVE",
"835 593 CURVE SMOOTH",
"836 603 OFFCURVE",
"837 609 OFFCURVE",
"839 618 CURVE SMOOTH",
"841 627 OFFCURVE",
"839 638 OFFCURVE",
"831 644 CURVE SMOOTH",
"817 652 OFFCURVE",
"807 646 OFFCURVE",
"804 636 CURVE SMOOTH",
"800 621 OFFCURVE",
"799 604 OFFCURVE",
"794 573 CURVE SMOOTH",
"776 418 OFFCURVE",
"701 -4 OFFCURVE",
"488 -4 CURVE SMOOTH",
"380 -4 OFFCURVE",
"363 107 OFFCURVE",
"372 197 CURVE SMOOTH",
"376 242 OFFCURVE",
"388 285 OFFCURVE",
"400 328 CURVE SMOOTH",
"445 483 OFFCURVE",
"462 683 OFFCURVE",
"254 725 CURVE SMOOTH",
"110 754 OFFCURVE",
"0 650 OFFCURVE",
"-19 513 CURVE SMOOTH",
"-33 407 OFFCURVE",
"14 302 OFFCURVE",
"124 272 CURVE SMOOTH",
"155 264 OFFCURVE",
"190 262 OFFCURVE",
"221 269 CURVE SMOOTH",
"367 302 OFFCURVE",
"390 525 OFFCURVE",
"259 540 CURVE SMOOTH",
"246 542 OFFCURVE",
"216 541 OFFCURVE",
"202 535 CURVE SMOOTH",
"173 523 OFFCURVE",
"185 488 OFFCURVE",
"217 489 CURVE SMOOTH",
"225 489 OFFCURVE",
"231 490 OFFCURVE",
"235 491 CURVE SMOOTH",
"248 496 OFFCURVE",
"239 499 OFFCURVE",
"260 494 CURVE SMOOTH",
"319 479 OFFCURVE",
"307 340 OFFCURVE",
"210 318 CURVE SMOOTH",
"190 314 OFFCURVE",
"163 314 OFFCURVE",
"142 319 CURVE SMOOTH",
"53 339 OFFCURVE",
"18 419 OFFCURVE",
"30 506 CURVE SMOOTH",
"45 620 OFFCURVE",
"126 698 OFFCURVE",
"243 676 CURVE SMOOTH",
"418 642 OFFCURVE",
"391 479 OFFCURVE",
"353 342 CURVE SMOOTH",
"339 293 OFFCURVE",
"329 244 OFFCURVE",
"325 193 CURVE SMOOTH",
"318 84 OFFCURVE",
"346 -56 OFFCURVE",
"488 -53 CURVE SMOOTH",
"639 -50 OFFCURVE",
"722 111 OFFCURVE",
"766 238 CURVE",
"767 153 OFFCURVE",
"774 25 OFFCURVE",
"812 -36 CURVE SMOOTH",
"816 -42 OFFCURVE",
"829 -60 OFFCURVE",
"836 -63 CURVE SMOOTH",
"877 -80 OFFCURVE",
"875 -34 OFFCURVE",
"858 -17 CURVE SMOOTH"
);
}
);
width = 861;
}
);
note = U;
unicode = 0055;
},
{
glyphname = V;
layers = (
{
hints = (
{
horizontal = 1;
place = "{678, 37}";
type = Stem;
},
{
place = "{-3, 36}";
type = Stem;
}
);
layerId = "2ADFC918-CAA7-4AF7-825A-5AAC412EF250";
paths = (
{
closed = 1;
nodes = (
"955 710 OFFCURVE",
"922 699 OFFCURVE",
"914 695 CURVE SMOOTH",
"776 626 OFFCURVE",
"662 215 OFFCURVE",
"613 68 CURVE",
"592 154 OFFCURVE",
"570 240 OFFCURVE",
"546 326 CURVE SMOOTH",
"530 384 OFFCURVE",
"513 444 OFFCURVE",
"493 501 CURVE SMOOTH",
"444 644 OFFCURVE",
"351 728 OFFCURVE",
"193 720 CURVE SMOOTH",
"166 719 OFFCURVE",
"140 713 OFFCURVE",
"116 701 CURVE SMOOTH",
"38 663 OFFCURVE",
"-3 587 OFFCURVE",
"-8 502 CURVE SMOOTH",
"-15 392 OFFCURVE",
"51 300 OFFCURVE",
"163 285 CURVE SMOOTH",
"201 280 OFFCURVE",
"243 285 OFFCURVE",
"277 302 CURVE SMOOTH",
"396 362 OFFCURVE",
"396 575 OFFCURVE",
"252 567 CURVE SMOOTH",
"239 566 OFFCURVE",
"207 559 OFFCURVE",
"195 552 CURVE SMOOTH",
"168 536 OFFCURVE",
"181 503 OFFCURVE",
"213 508 CURVE SMOOTH",
"221 509 OFFCURVE",
"234 511 OFFCURVE",
"241 518 CURVE SMOOTH",
"242 519 LINE SMOOTH",
"244 521 OFFCURVE",
"245 521 OFFCURVE",
"261 520 CURVE SMOOTH",
"326 517 OFFCURVE",
"341 392 OFFCURVE",
"255 347 CURVE SMOOTH",
"231 334 OFFCURVE",
"199 330 OFFCURVE",
"172 333 CURVE SMOOTH",
"84 342 OFFCURVE",
"35 414 OFFCURVE",
"40 500 CURVE SMOOTH",
"44 571 OFFCURVE",
"79 631 OFFCURVE",
"145 660 CURVE SMOOTH",
"160 667 OFFCURVE",
"177 671 OFFCURVE",
"194 671 CURVE SMOOTH",
"335 671 OFFCURVE",
"401 613 OFFCURVE",
"447 485 CURVE SMOOTH",
"489 368 OFFCURVE",
"520 246 OFFCURVE",
"549 127 CURVE SMOOTH",
"558 89 OFFCURVE",
"567 52 OFFCURVE",
"575 14 CURVE SMOOTH",
"578 1 OFFCURVE",
"579 -13 OFFCURVE",
"584 -26 CURVE SMOOTH",
"594 -50 OFFCURVE",
"619 -48 OFFCURVE",
"631 -29 CURVE SMOOTH",
"633 -25 OFFCURVE",
"642 1 OFFCURVE",
"650 27 CURVE SMOOTH",
"694 160 OFFCURVE",
"829 596 OFFCURVE",
"926 653 CURVE SMOOTH",
"945 664 OFFCURVE",
"941 655 OFFCURVE",
"956 657 CURVE SMOOTH",
"998 663 OFFCURVE",
"981 698 OFFCURVE",
"964 706 CURVE SMOOTH"
);
}
);
width = 756;
}
);
note = V;
unicode = 0056;
},
{
glyphname = W;
layers = (
{
hints = (
{
horizontal = 1;
place = "{-29, 36}";
type = Stem;
},
{
horizontal = 1;
place = "{680, 36}";
type = Stem;
},
{
place = "{33, 37}";
type = Stem;
},
{
place = "{1180, 37}";
type = Stem;
}
);
layerId = "2ADFC918-CAA7-4AF7-825A-5AAC412EF250";
paths = (
{
closed = 1;
nodes = (
"1226 435 OFFCURVE",
"1216 637 OFFCURVE",
"1116 682 CURVE SMOOTH",
"1104 687 OFFCURVE",
"1074 693 OFFCURVE",
"1059 687 CURVE SMOOTH",
"1022 671 OFFCURVE",
"1046 638 OFFCURVE",
"1073 641 CURVE",
"1109 667 OFFCURVE",
"1139 575 OFFCURVE",
"1146 556 CURVE SMOOTH",
"1168 491 OFFCURVE",
"1176 419 OFFCURVE",
"1173 351 CURVE SMOOTH",
"1167 234 OFFCURVE",
"1135 14 OFFCURVE",
"987 13 CURVE SMOOTH",
"888 12 OFFCURVE",
"858 186 OFFCURVE",
"851 241 CURVE",
"862 284 OFFCURVE",
"869 326 OFFCURVE",
"873 363 CURVE SMOOTH",
"878 411 OFFCURVE",
"883 502 OFFCURVE",
"871 550 CURVE SMOOTH",
"869 557 OFFCURVE",
"865 571 OFFCURVE",
"856 571 CURVE SMOOTH",
"835 571 OFFCURVE",
"823 524 OFFCURVE",
"819 508 CURVE SMOOTH",
"803 451 OFFCURVE",
"793 344 OFFCURVE",
"803 241 CURVE",
"772 139 OFFCURVE",
"713 7 OFFCURVE",
"593 7 CURVE SMOOTH",
"592 7 LINE SMOOTH",
"468 7 OFFCURVE",
"534 345 OFFCURVE",
"543 411 CURVE SMOOTH",
"549 454 OFFCURVE",
"551 496 OFFCURVE",
"542 540 CURVE SMOOTH",
"519 656 OFFCURVE",
"420 722 OFFCURVE",
"306 722 CURVE SMOOTH",
"270 722 OFFCURVE",
"232 713 OFFCURVE",
"199 699 CURVE SMOOTH",
"85 652 OFFCURVE",
"31 554 OFFCURVE",
"27 434 CURVE SMOOTH",
"23 313 OFFCURVE",
"82 205 OFFCURVE",
"215 198 CURVE SMOOTH",
"250 196 OFFCURVE",
"291 203 OFFCURVE",
"323 219 CURVE SMOOTH",
"442 280 OFFCURVE",
"453 468 OFFCURVE",
"318 482 CURVE SMOOTH",
"304 484 OFFCURVE",
"272 483 OFFCURVE",
"259 478 CURVE SMOOTH",
"237 469 OFFCURVE",
"228 434 OFFCURVE",
"268 432 CURVE SMOOTH",
"279 432 OFFCURVE",
"287 432 OFFCURVE",
"298 436 CURVE SMOOTH",
"302 437 OFFCURVE",
"305 437 OFFCURVE",
"320 433 CURVE SMOOTH",
"370 419 OFFCURVE",
"379 356 OFFCURVE",
"356 313 CURVE SMOOTH",
"344 289 OFFCURVE",
"328 275 OFFCURVE",
"304 263 CURVE SMOOTH",
"281 251 OFFCURVE",
"248 245 OFFCURVE",
"222 245 CURVE SMOOTH",
"116 247 OFFCURVE",
"72 335 OFFCURVE",
"76 434 CURVE SMOOTH",
"80 534 OFFCURVE",
"121 617 OFFCURVE",
"215 656 CURVE SMOOTH",
"243 667 OFFCURVE",
"274 674 OFFCURVE",
"304 674 CURVE SMOOTH",
"406 674 OFFCURVE",
"481 622 OFFCURVE",
"496 518 CURVE SMOOTH",
"501 484 OFFCURVE",
"499 451 OFFCURVE",
"495 416 CURVE SMOOTH",
"491 382 OFFCURVE",
"483 348 OFFCURVE",
"478 315 CURVE SMOOTH",
"464 220 OFFCURVE",
"431 -35 OFFCURVE",
"593 -40 CURVE SMOOTH",
"708 -43 OFFCURVE",
"778 42 OFFCURVE",
"819 141 CURVE",
"844 45 OFFCURVE",
"893 -33 OFFCURVE",
"983 -35 CURVE SMOOTH",
"1175 -38 OFFCURVE",
"1215 209 OFFCURVE",
"1222 348 CURVE SMOOTH"
);
}
);
width = 1223;
}
);
note = W;
unicode = 0057;
},
{
glyphname = X;
layers = (
{
hints = (
{
horizontal = 1;
place = "{-48, 37}";
type = Stem;
},
{
horizontal = 1;
place = "{625, 37}";
type = Stem;
},
{
place = "{525, 40}";
type = Stem;
}
);
layerId = "2ADFC918-CAA7-4AF7-825A-5AAC412EF250";
paths = (
{
closed = 1;
nodes = (
"628 -36 OFFCURVE",
"586 2 OFFCURVE",
"565 -6 CURVE SMOOTH",
"563 -7 LINE SMOOTH",
"554 -10 OFFCURVE",
"537 -6 OFFCURVE",
"529 -2 CURVE SMOOTH",
"447 30 OFFCURVE",
"360 235 OFFCURVE",
"324 315 CURVE",
"354 350 OFFCURVE",
"406 409 OFFCURVE",
"454 469 CURVE SMOOTH",
"504 531 OFFCURVE",
"550 595 OFFCURVE",
"566 637 CURVE",
"566 638 OFFCURVE",
"571 657 OFFCURVE",
"570 659 CURVE SMOOTH",
"557 699 OFFCURVE",
"519 682 OFFCURVE",
"519 661 CURVE SMOOTH",
"519 607 OFFCURVE",
"346 415 OFFCURVE",
"302 366 CURVE",
"272 436 OFFCURVE",
"188 643 OFFCURVE",
"115 666 CURVE SMOOTH",
"81 676 OFFCURVE",
"38 649 OFFCURVE",
"97 619 CURVE SMOOTH",
"106 615 LINE SMOOTH",
"148 592 OFFCURVE",
"240 376 OFFCURVE",
"263 323 CURVE",
"206 257 OFFCURVE",
"16 50 OFFCURVE",
"3 -24 CURVE SMOOTH",
"-4 -61 OFFCURVE",
"36 -91 OFFCURVE",
"62 -30 CURVE SMOOTH",
"63 -28 OFFCURVE",
"62 -26 OFFCURVE",
"62 -24 CURVE SMOOTH",
"62 -22 LINE SMOOTH",
"63 -15 OFFCURVE",
"66 -7 OFFCURVE",
"70 0 CURVE SMOOTH",
"96 52 OFFCURVE",
"136 96 OFFCURVE",
"173 140 CURVE SMOOTH",
"210 185 OFFCURVE",
"249 228 OFFCURVE",
"287 272 CURVE",
"331 173 OFFCURVE",
"424 -23 OFFCURVE",
"538 -51 CURVE SMOOTH",
"545 -53 OFFCURVE",
"573 -57 OFFCURVE",
"582 -53 CURVE SMOOTH"
);
}
);
width = 553;
}
);
note = X;
unicode = 0058;
},
{
glyphname = Y;
layers = (
{
hints = (
{
horizontal = 1;
place = "{-307, 51}";
type = Stem;
},
{
horizontal = 1;
place = "{-111, 51}";
type = Stem;
},
{
horizontal = 1;
place = "{-20, 49}";
type = Stem;
},
{
horizontal = 1;
place = "{359, 50}";
type = Stem;
},
{
horizontal = 1;
place = "{536, 47}";
type = Stem;
},
{
horizontal = 1;
place = "{701, 48}";
type = Stem;
},
{
place = "{273, 50}";
type = Stem;
},
{
place = "{395, 48}";
type = Stem;
},
{
place = "{645, 48}";
type = Stem;
},
{
place = "{752, 51}";
type = Stem;
},
{
horizontal = 1;
place = "{601, 47}";
type = Stem;
},
{
place = "{249, 50}";
type = Stem;
}
);
layerId = "2ADFC918-CAA7-4AF7-825A-5AAC412EF250";
paths = (
{
closed = 1;
nodes = (
"801 570 OFFCURVE",
"781 655 OFFCURVE",
"722 648 CURVE SMOOTH",
"701 645 OFFCURVE",
"680 630 OFFCURVE",
"668 615 CURVE SMOOTH",
"664 610 OFFCURVE",
"658 594 OFFCURVE",
"656 588 CURVE SMOOTH",
"640 534 OFFCURVE",
"645 445 OFFCURVE",
"648 388 CURVE SMOOTH",
"650 343 OFFCURVE",
"653 291 OFFCURVE",
"654 237 CURVE",
"618 168 OFFCURVE",
"572 100 OFFCURVE",
"522 66 CURVE SMOOTH",
"462 24 OFFCURVE",
"388 9 OFFCURVE",
"339 69 CURVE SMOOTH",
"284 137 OFFCURVE",
"390 355 OFFCURVE",
"417 427 CURVE SMOOTH",
"429 458 OFFCURVE",
"438 488 OFFCURVE",
"443 522 CURVE SMOOTH",
"451 585 OFFCURVE",
"439 660 OFFCURVE",
"386 705 CURVE SMOOTH",
"351 735 OFFCURVE",
"305 747 OFFCURVE",
"260 749 CURVE SMOOTH",
"128 754 OFFCURVE",
"26 671 OFFCURVE",
"4 540 CURVE SMOOTH",
"-18 404 OFFCURVE",
"126 313 OFFCURVE",
"246 383 CURVE SMOOTH",
"328 431 OFFCURVE",
"315 582 OFFCURVE",
"207 583 CURVE SMOOTH",
"167 583 OFFCURVE",
"166 530 OFFCURVE",
"209 533 CURVE",
"243 554 OFFCURVE",
"272 453 OFFCURVE",
"224 426 CURVE SMOOTH",
"139 379 OFFCURVE",
"38 434 OFFCURVE",
"53 534 CURVE SMOOTH",
"68 640 OFFCURVE",
"154 705 OFFCURVE",
"259 701 CURVE SMOOTH",
"294 700 OFFCURVE",
"329 691 OFFCURVE",
"354 668 CURVE SMOOTH",
"417 612 OFFCURVE",
"396 518 OFFCURVE",
"370 445 CURVE SMOOTH",
"334 342 OFFCURVE",
"224 145 OFFCURVE",
"299 40 CURVE SMOOTH",
"363 -48 OFFCURVE",
"476 -28 OFFCURVE",
"551 27 CURVE SMOOTH",
"588 54 OFFCURVE",
"623 95 OFFCURVE",
"654 141 CURVE",
"652 69 OFFCURVE",
"643 -4 OFFCURVE",
"623 -67 CURVE",
"576 -58 OFFCURVE",
"527 -58 OFFCURVE",
"488 -66 CURVE SMOOTH",
"421 -79 OFFCURVE",
"276 -118 OFFCURVE",
"263 -207 CURVE SMOOTH",
"261 -222 OFFCURVE",
"263 -247 OFFCURVE",
"271 -260 CURVE SMOOTH",
"283 -280 OFFCURVE",
"315 -295 OFFCURVE",
"334 -300 CURVE SMOOTH",
"429 -326 OFFCURVE",
"546 -282 OFFCURVE",
"606 -206 CURVE SMOOTH",
"625 -182 OFFCURVE",
"640 -156 OFFCURVE",
"653 -128 CURVE",
"684 -137 OFFCURVE",
"710 -149 OFFCURVE",
"727 -163 CURVE SMOOTH",
"737 -171 OFFCURVE",
"739 -171 OFFCURVE",
"739 -173 CURVE",
"738 -173 LINE",
"738 -175 OFFCURVE",
"739 -177 OFFCURVE",
"740 -179 CURVE SMOOTH",
"753 -204 OFFCURVE",
"804 -212 OFFCURVE",
"793 -168 CURVE SMOOTH",
"791 -160 OFFCURVE",
"770 -137 OFFCURVE",
"764 -131 CURVE SMOOTH",
"740 -109 OFFCURVE",
"708 -91 OFFCURVE",
"672 -80 CURVE",
"703 17 OFFCURVE",
"709 128 OFFCURVE",
"707 231 CURVE",
"739 294 OFFCURVE",
"765 360 OFFCURVE",
"783 413 CURVE SMOOTH",
"796 451 OFFCURVE",
"804 488 OFFCURVE",
"803 529 CURVE SMOOTH"
);
},
{
closed = 1;
nodes = (
"764 486 OFFCURVE",
"729 401 OFFCURVE",
"702 337 CURVE",
"698 395 OFFCURVE",
"694 447 OFFCURVE",
"693 489 CURVE SMOOTH",
"692 538 OFFCURVE",
"695 571 OFFCURVE",
"707 585 CURVE",
"714 605 OFFCURVE",
"728 606 OFFCURVE",
"739 588 CURVE SMOOTH",
"746 579 OFFCURVE",
"749 566 OFFCURVE",
"752 555 CURVE"
);
},
{
closed = 1;
nodes = (
"570 -186 OFFCURVE",
"528 -225 OFFCURVE",
"454 -245 CURVE SMOOTH",
"430 -252 OFFCURVE",
"327 -271 OFFCURVE",
"315 -236 CURVE",
"309 -228 OFFCURVE",
"308 -218 OFFCURVE",
"312 -209 CURVE SMOOTH",
"335 -156 OFFCURVE",
"444 -125 OFFCURVE",
"497 -114 CURVE SMOOTH",
"524 -108 OFFCURVE",
"564 -110 OFFCURVE",
"603 -116 CURVE"
);
}
);
width = 753;
}
);
note = Y;
unicode = 0059;
},
{
glyphname = Z;
layers = (
{
hints = (
{
horizontal = 1;
place = "{-49, 50}";
type = Stem;
},
{
horizontal = 1;
place = "{266, 52}";
type = Stem;
},
{
horizontal = 1;
place = "{674, 49}";
type = Stem;
},
{
place = "{17, 19}";
type = Stem;
},
{
place = "{89, 45}";
type = Stem;
},
{
place = "{579, 53}";
type = Stem;
},
{
horizontal = 1;
place = "{-3, 47}";
type = Stem;
},
{
horizontal = 1;
place = "{655, 43}";
type = Stem;
},
{
horizontal = 1;
place = "{-6, 50}";
type = Stem;
}
);
layerId = "2ADFC918-CAA7-4AF7-825A-5AAC412EF250";
paths = (
{
closed = 1;
nodes = (
"667 113 OFFCURVE",
"638 286 OFFCURVE",
"516 314 CURVE SMOOTH",
"461 326 OFFCURVE",
"383 314 OFFCURVE",
"349 261 CURVE SMOOTH",
"346 255 OFFCURVE",
"335 235 OFFCURVE",
"336 225 CURVE SMOOTH",
"338 181 OFFCURVE",
"383 202 OFFCURVE",
"386 227 CURVE SMOOTH",
"391 268 OFFCURVE",
"485 270 OFFCURVE",
"505 266 CURVE SMOOTH",
"585 252 OFFCURVE",
"600 118 OFFCURVE",
"552 61 CURVE SMOOTH",
"464 -43 OFFCURVE",
"325 15 OFFCURVE",
"216 35 CURVE SMOOTH",
"167 44 OFFCURVE",
"117 48 OFFCURVE",
"68 39 CURVE",
"95 84 LINE SMOOTH",
"148 172 OFFCURVE",
"204 261 OFFCURVE",
"285 327 CURVE SMOOTH",
"286 328 LINE",
"285 328 OFFCURVE",
"285 328 OFFCURVE",
"285 329 CURVE",
"288 330 OFFCURVE",
"294 334 OFFCURVE",
"303 342 CURVE SMOOTH",
"367 397 OFFCURVE",
"555 578 OFFCURVE",
"587 654 CURVE SMOOTH",
"596 674 OFFCURVE",
"600 702 OFFCURVE",
"564 705 CURVE",
"537 696 OFFCURVE",
"507 696 OFFCURVE",
"473 698 CURVE SMOOTH",
"380 705 OFFCURVE",
"247 746 OFFCURVE",
"163 708 CURVE SMOOTH",
"115 687 OFFCURVE",
"76 630 OFFCURVE",
"93 576 CURVE SMOOTH",
"95 568 OFFCURVE",
"104 548 OFFCURVE",
"112 541 CURVE",
"147 516 OFFCURVE",
"160 563 OFFCURVE",
"142 581 CURVE SMOOTH",
"140 583 LINE SMOOTH",
"116 607 OFFCURVE",
"169 658 OFFCURVE",
"183 665 CURVE SMOOTH",
"229 689 OFFCURVE",
"367 661 OFFCURVE",
"421 655 CURVE SMOOTH",
"459 650 OFFCURVE",
"498 646 OFFCURVE",
"528 648 CURVE",
"504 620 LINE SMOOTH",
"456 560 OFFCURVE",
"407 501 OFFCURVE",
"352 448 CURVE SMOOTH",
"326 423 OFFCURVE",
"298 402 OFFCURVE",
"271 379 CURVE SMOOTH",
"229 343 OFFCURVE",
"190 299 OFFCURVE",
"155 257 CURVE SMOOTH",
"131 229 OFFCURVE",
"-17 43 OFFCURVE",
"24 -21 CURVE SMOOTH",
"25 -22 LINE",
"36 -18 LINE",
"36 -17 OFFCURVE",
"37 -20 OFFCURVE",
"38 -19 CURVE",
"77 -1 OFFCURVE",
"119 0 OFFCURVE",
"165 -6 CURVE SMOOTH",
"210 -12 OFFCURVE",
"258 -26 OFFCURVE",
"306 -36 CURVE SMOOTH",
"402 -57 OFFCURVE",
"502 -65 OFFCURVE",
"589 29 CURVE SMOOTH"
);
}
);
width = 634;
}
);
note = Z;
unicode = 005A;
},
{
glyphname = A.ss01;
lastChange = "2021-10-09 07:18:02 +0000";
layers = (
{
hints = (
{
horizontal = 1;
place = "{268, 52}";
type = Stem;
},
{
horizontal = 1;
place = "{660, -20}";
target = down;
type = TopGhost;
}
);
layerId = "2ADFC918-CAA7-4AF7-825A-5AAC412EF250";
paths = (
{
closed = 1;
nodes = (
"479 143 OFFCURVE",
"440 393 OFFCURVE",
"348 645 CURVE SMOOTH",
"340 668 OFFCURVE",
"306 665 OFFCURVE",
"300 643 CURVE SMOOTH",
"265 515 OFFCURVE",
"232 451 OFFCURVE",
"179 319 CURVE",
"178 314 LINE",
"148 310 OFFCURVE",
"124 296 OFFCURVE",
"113 273 CURVE SMOOTH",
"99 244 OFFCURVE",
"147 230 OFFCURVE",
"161 260 CURVE",
"142 199 OFFCURVE",
"67 40 OFFCURVE",
"12 14 CURVE SMOOTH",
"-18 0 OFFCURVE",
"6 -48 OFFCURVE",
"34 -33 CURVE SMOOTH",
"113 11 OFFCURVE",
"164 144 OFFCURVE",
"213 268 CURVE",
"275 267 OFFCURVE",
"368 256 OFFCURVE",
"416 255 CURVE",
"450 146 OFFCURVE",
"488 51 OFFCURVE",
"542 -20 CURVE SMOOTH",
"562 -46 OFFCURVE",
"603 -14 OFFCURVE",
"583 11 CURVE SMOOTH"
);
},
{
closed = 1;
nodes = (
"366 303 OFFCURVE",
"296 319 OFFCURVE",
"235 320 CURVE",
"270 404 OFFCURVE",
"296 482 OFFCURVE",
"326 561 CURVE",
"346 491 OFFCURVE",
"382 353 OFFCURVE",
"400 306 CURVE"
);
}
);
width = 611;
}
);
note = A;
},
{
glyphname = AE.ss01;
lastChange = "2021-10-09 07:18:02 +0000";
layers = (
{
hints = (
{
horizontal = 1;
place = "{-32, 48}";
type = Stem;
},
{
horizontal = 1;
place = "{403, 53}";
type = Stem;
},
{
horizontal = 1;
place = "{626, 47}";
type = Stem;
},
{
place = "{462, 51}";
type = Stem;
}
);
layerId = "2ADFC918-CAA7-4AF7-825A-5AAC412EF250";
paths = (
{
closed = 1;
nodes = (
"465 482 OFFCURVE",
"458 399 OFFCURVE",
"462 315 CURVE",
"427 312 OFFCURVE",
"381 319 OFFCURVE",
"320 320 CURVE",
"371 404 OFFCURVE",
"412 482 OFFCURVE",
"458 561 CURVE"
);
},
{
closed = 1;
nodes = (
"951 86 OFFCURVE",
"872 96 OFFCURVE",
"875 51 CURVE",
"839 -16 OFFCURVE",
"566 34 OFFCURVE",
"494 34 CURVE",
"509 120 OFFCURVE",
"506 200 OFFCURVE",
"513 306 CURVE SMOOTH",
"515 333 OFFCURVE",
"517 361 OFFCURVE",
"517 390 CURVE",
"587 395 OFFCURVE",
"656 412 OFFCURVE",
"676 395 CURVE",
"681 359 OFFCURVE",
"732 378 OFFCURVE",
"721 416 CURVE SMOOTH",
"701 482 OFFCURVE",
"585 447 OFFCURVE",
"517 440 CURVE",
"517 565 LINE SMOOTH",
"517 581 OFFCURVE",
"516 594 OFFCURVE",
"515 606 CURVE",
"648 612 OFFCURVE",
"776 641 OFFCURVE",
"819 616 CURVE",
"830 591 OFFCURVE",
"890 597 OFFCURVE",
"869 634 CURVE SMOOTH",
"826 709 OFFCURVE",
"633 653 OFFCURVE",
"492 656 CURVE",
"482 666 OFFCURVE",
"456 661 OFFCURVE",
"448 643 CURVE SMOOTH",
"388 515 OFFCURVE",
"342 451 OFFCURVE",
"264 319 CURVE",
"262 314 LINE",
"231 310 OFFCURVE",
"204 296 OFFCURVE",
"189 273 CURVE SMOOTH",
"169 244 OFFCURVE",
"215 230 OFFCURVE",
"234 260 CURVE",
"204 199 OFFCURVE",
"98 40 OFFCURVE",
"38 14 CURVE SMOOTH",
"5 0 OFFCURVE",
"20 -48 OFFCURVE",
"51 -33 CURVE SMOOTH",
"138 11 OFFCURVE",
"215 144 OFFCURVE",
"288 268 CURVE",
"339 267 OFFCURVE",
"409 260 OFFCURVE",
"459 256 CURVE",
"451 168 OFFCURVE",
"447 91 OFFCURVE",
"437 8 CURVE",
"437 -10 OFFCURVE",
"443 -24 OFFCURVE",
"462 -24 CURVE SMOOTH",
"484 -24 OFFCURVE",
"495 -16 OFFCURVE",
"505 -16 CURVE",
"572 -5 OFFCURVE",
"890 -86 OFFCURVE",
"928 38 CURVE"
);
}
);
width = 937;
}
);
note = AE;
},
{
glyphname = B.ss01;
lastChange = "2021-10-09 07:18:02 +0000";
layers = (
{
hints = (
{
horizontal = 1;
place = "{334, 53}";
type = Stem;
},
{
horizontal = 1;
place = "{614, 46}";
type = Stem;
},
{
place = "{356, 50}";
type = Stem;
}
);
layerId = "2ADFC918-CAA7-4AF7-825A-5AAC412EF250";
paths = (
{
closed = 1;
nodes = (
"455 186 LINE",
"441 289 OFFCURVE",
"366 339 OFFCURVE",
"289 364 CURVE",
"355 391 OFFCURVE",
"407 437 OFFCURVE",
"406 506 CURVE SMOOTH",
"405 682 OFFCURVE",
"222 662 OFFCURVE",
"111 661 CURVE SMOOTH",
"50 661 OFFCURVE",
"63 615 OFFCURVE",
"85 614 CURVE",
"120 607 OFFCURVE",
"33 202 OFFCURVE",
"61 32 CURVE",
"55 33 OFFCURVE",
"48 35 OFFCURVE",
"42 36 CURVE SMOOTH",
"10 42 OFFCURVE",
"0 -8 OFFCURVE",
"31 -14 CURVE SMOOTH",
"48 -17 OFFCURVE",
"64 -21 OFFCURVE",
"79 -23 CURVE",
"83 -31 OFFCURVE",
"89 -37 OFFCURVE",
"94 -42 CURVE",
"108 -52 OFFCURVE",
"123 -44 OFFCURVE",
"129 -30 CURVE",
"402 -60 OFFCURVE",
"470 81 OFFCURVE",
"456 185 CURVE"
);
},
{
closed = 1;
nodes = (
"361 440 OFFCURVE",
"261 393 OFFCURVE",
"153 385 CURVE",
"142 386 OFFCURVE",
"134 386 OFFCURVE",
"127 386 CURVE",
"138 484 OFFCURVE",
"145 571 OFFCURVE",
"133 608 CURVE",
"243 610 OFFCURVE",
"361 617 OFFCURVE",
"357 505 CURVE"
);
},
{
closed = 1;
nodes = (
"406 180 LINE SMOOTH",
"406 99 OFFCURVE",
"380 -9 OFFCURVE",
"114 24 CURVE",
"96 95 OFFCURVE",
"109 222 OFFCURVE",
"120 334 CURVE",
"118 333 LINE",
"125 333 OFFCURVE",
"132 334 OFFCURVE",
"139 334 CURVE SMOOTH",
"220 331 OFFCURVE",
"406 309 OFFCURVE",
"406 181 CURVE SMOOTH"
);
}
);
width = 486;
}
);
note = B;
},
{
glyphname = C.ss01;
lastChange = "2021-10-09 07:18:02 +0000";
layers = (
{
hints = (
{
horizontal = 1;
place = "{602, 50}";
type = Stem;
},
{
place = "{-43, 51}";
type = Stem;
},
{
place = "{454, 50}";
type = Stem;
}
);
layerId = "2ADFC918-CAA7-4AF7-825A-5AAC412EF250";
paths = (
{
closed = 1;
nodes = (
"577 126 OFFCURVE",
"530 148 OFFCURVE",
"516 119 CURVE SMOOTH",
"424 -78 OFFCURVE",
"55 -64 OFFCURVE",
"58 291 CURVE SMOOTH",
"59 495 OFFCURVE",
"205 608 OFFCURVE",
"338 602 CURVE SMOOTH",
"425 598 OFFCURVE",
"500 576 OFFCURVE",
"504 486 CURVE SMOOTH",
"505 462 OFFCURVE",
"489 419 OFFCURVE",
"467 422 CURVE",
"433 422 OFFCURVE",
"433 371 OFFCURVE",
"466 372 CURVE SMOOTH",
"538 375 OFFCURVE",
"555 450 OFFCURVE",
"556 486 CURVE SMOOTH",
"558 523 OFFCURVE",
"536 644 OFFCURVE",
"339 651 CURVE SMOOTH",
"178 656 OFFCURVE",
"9 522 OFFCURVE",
"7 291 CURVE SMOOTH",
"3 -119 OFFCURVE",
"448 -146 OFFCURVE",
"563 97 CURVE SMOOTH"
);
}
);
width = 579;
}
);
note = C;
},
{
glyphname = D.ss01;
lastChange = "2021-10-09 07:18:02 +0000";
layers = (
{
hints = (
{
horizontal = 1;
place = "{604, 56}";
type = Stem;
},
{
place = "{521, 50}";
type = Stem;
}
);
layerId = "2ADFC918-CAA7-4AF7-825A-5AAC412EF250";
paths = (
{
closed = 1;
nodes = (
"570 326 LINE",
"570 326 LINE",
"570 646 OFFCURVE",
"233 661 OFFCURVE",
"119 661 CURVE",
"101 659 OFFCURVE",
"69 658 OFFCURVE",
"72 630 CURVE SMOOTH",
"74 614 OFFCURVE",
"81 615 OFFCURVE",
"96 615 CURVE",
"130 607 OFFCURVE",
"44 203 OFFCURVE",
"72 32 CURVE",
"66 33 OFFCURVE",
"59 35 OFFCURVE",
"52 36 CURVE SMOOTH",
"20 42 OFFCURVE",
"10 -7 OFFCURVE",
"41 -13 CURVE SMOOTH",
"59 -16 OFFCURVE",
"74 -21 OFFCURVE",
"90 -23 CURVE",
"94 -30 OFFCURVE",
"99 -37 OFFCURVE",
"105 -42 CURVE SMOOTH",
"119 -51 OFFCURVE",
"135 -42 OFFCURVE",
"140 -29 CURVE",
"431 -56 OFFCURVE",
"571 108 OFFCURVE",
"571 326 CURVE"
);
},
{
closed = 1;
nodes = (
"521 325 LINE",
"523 128 OFFCURVE",
"403 -6 OFFCURVE",
"123 25 CURVE",
"94 154 OFFCURVE",
"163 457 OFFCURVE",
"147 604 CURVE",
"263 604 OFFCURVE",
"517 590 OFFCURVE",
"520 325 CURVE"
);
}
);
width = 560;
}
);
note = D;
},
{
glyphname = Eth.ss01;
lastChange = "2021-10-09 07:18:02 +0000";
layers = (
{
hints = (
{
horizontal = 1;
place = "{604, 56}";
type = Stem;
},
{
place = "{521, 50}";
type = Stem;
},
{
horizontal = 1;
place = "{288, 37}";
type = Stem;
}
);
layerId = "2ADFC918-CAA7-4AF7-825A-5AAC412EF250";
paths = (
{
closed = 1;
nodes = (
"570 326 LINE",
"570 326 LINE",
"570 646 OFFCURVE",
"233 661 OFFCURVE",
"119 661 CURVE",
"101 659 OFFCURVE",
"69 658 OFFCURVE",
"72 630 CURVE SMOOTH",
"74 614 OFFCURVE",
"81 615 OFFCURVE",
"96 615 CURVE",
"130 607 OFFCURVE",
"44 203 OFFCURVE",
"72 32 CURVE",
"66 33 OFFCURVE",
"59 35 OFFCURVE",
"52 36 CURVE SMOOTH",
"20 42 OFFCURVE",
"10 -7 OFFCURVE",
"41 -13 CURVE SMOOTH",
"59 -16 OFFCURVE",
"74 -21 OFFCURVE",
"90 -23 CURVE",
"94 -30 OFFCURVE",
"99 -37 OFFCURVE",
"105 -42 CURVE SMOOTH",
"119 -51 OFFCURVE",
"135 -42 OFFCURVE",
"140 -29 CURVE",
"431 -56 OFFCURVE",
"571 108 OFFCURVE",
"571 326 CURVE"
);
},
{
closed = 1;
nodes = (
"521 325 LINE",
"523 128 OFFCURVE",
"403 -6 OFFCURVE",
"123 25 CURVE",
"94 154 OFFCURVE",
"163 457 OFFCURVE",
"147 604 CURVE",
"263 604 OFFCURVE",
"517 590 OFFCURVE",
"520 325 CURVE"
);
},
{
closed = 1;
nodes = (
"231 227 OFFCURVE",
"210 260 OFFCURVE",
"184 248 CURVE SMOOTH",
"179 245 OFFCURVE",
"175 244 OFFCURVE",
"170 244 CURVE SMOOTH",
"147 244 OFFCURVE",
"124 247 OFFCURVE",
"101 249 CURVE SMOOTH",
"78 252 OFFCURVE",
"22 258 OFFCURVE",
"0 246 CURVE SMOOTH",
"-27 232 OFFCURVE",
"-19 195 OFFCURVE",
"4 204 CURVE",
"14 204 OFFCURVE",
"23 210 OFFCURVE",
"32 210 CURVE SMOOTH",
"78 210 OFFCURVE",
"124 200 OFFCURVE",
"170 200 CURVE SMOOTH",
"182 200 OFFCURVE",
"198 205 OFFCURVE",
"209 212 CURVE SMOOTH"
);
}
);
width = 560;
}
);
note = Eth;
},
{
glyphname = E.ss01;
lastChange = "2021-10-09 07:18:02 +0000";
layers = (
{
hints = (
{
horizontal = 1;
place = "{-39, 49}";
type = Stem;
},
{
horizontal = 1;
place = "{583, 49}";
type = Stem;
},
{
place = "{92, 52}";
type = Stem;
}
);
layerId = "2ADFC918-CAA7-4AF7-825A-5AAC412EF250";
paths = (
{
closed = 1;
nodes = (
"572 86 OFFCURVE",
"493 96 OFFCURVE",
"496 51 CURVE",
"460 -16 OFFCURVE",
"187 34 OFFCURVE",
"115 34 CURVE",
"137 130 OFFCURVE",
"147 200 OFFCURVE",
"154 306 CURVE SMOOTH",
"156 333 OFFCURVE",
"158 361 OFFCURVE",
"158 390 CURVE",
"228 395 OFFCURVE",
"297 412 OFFCURVE",
"317 395 CURVE",
"322 359 OFFCURVE",
"373 378 OFFCURVE",
"362 416 CURVE SMOOTH",
"342 482 OFFCURVE",
"226 447 OFFCURVE",
"158 440 CURVE",
"158 479 OFFCURVE",
"158 520 OFFCURVE",
"158 565 CURVE SMOOTH",
"158 581 OFFCURVE",
"157 594 OFFCURVE",
"156 606 CURVE",
"289 612 OFFCURVE",
"417 641 OFFCURVE",
"460 616 CURVE",
"471 591 OFFCURVE",
"531 597 OFFCURVE",
"510 634 CURVE SMOOTH",
"466 710 OFFCURVE",
"268 651 OFFCURVE",
"126 656 CURVE SMOOTH",
"108 657 OFFCURVE",
"101 648 OFFCURVE",
"101 630 CURVE SMOOTH",
"100 604 OFFCURVE",
"107 588 OFFCURVE",
"107 565 CURVE SMOOTH",
"107 519 OFFCURVE",
"107 477 OFFCURVE",
"107 439 CURVE",
"93 430 OFFCURVE",
"91 404 OFFCURVE",
"107 394 CURVE",
"107 364 OFFCURVE",
"106 337 OFFCURVE",
"104 311 CURVE SMOOTH",
"96 191 OFFCURVE",
"84 122 OFFCURVE",
"58 8 CURVE",
"58 -10 OFFCURVE",
"64 -24 OFFCURVE",
"83 -24 CURVE SMOOTH",
"105 -24 OFFCURVE",
"116 -16 OFFCURVE",
"126 -16 CURVE",
"193 -5 OFFCURVE",
"511 -86 OFFCURVE",
"549 38 CURVE"
);
}
);
width = 516;
}
);
note = E;
},
{
glyphname = F.ss01;
lastChange = "2021-10-09 07:18:02 +0000";
layers = (
{
hints = (
{
horizontal = 1;
place = "{607, 49}";
type = Stem;
},
{
place = "{105, 52}";
type = Stem;
}
);
layerId = "2ADFC918-CAA7-4AF7-825A-5AAC412EF250";
paths = (
{
closed = 1;
nodes = (
"510 633 LINE",
"478 709 OFFCURVE",
"268 651 OFFCURVE",
"126 656 CURVE SMOOTH",
"108 657 OFFCURVE",
"101 648 OFFCURVE",
"101 630 CURVE SMOOTH",
"100 604 OFFCURVE",
"107 588 OFFCURVE",
"107 565 CURVE SMOOTH",
"107 519 OFFCURVE",
"107 477 OFFCURVE",
"107 439 CURVE",
"93 430 OFFCURVE",
"91 404 OFFCURVE",
"107 394 CURVE",
"107 364 OFFCURVE",
"106 337 OFFCURVE",
"104 311 CURVE SMOOTH",
"96 191 OFFCURVE",
"84 122 OFFCURVE",
"58 8 CURVE",
"58 -10 OFFCURVE",
"64 -24 OFFCURVE",
"83 -24 CURVE SMOOTH",
"111 -24 OFFCURVE",
"114 33 OFFCURVE",
"115 33 CURVE",
"136 126 OFFCURVE",
"147 197 OFFCURVE",
"154 307 CURVE SMOOTH",
"156 333 OFFCURVE",
"157 361 OFFCURVE",
"158 390 CURVE",
"228 393 OFFCURVE",
"289 396 OFFCURVE",
"321 388 CURVE SMOOTH",
"352 381 OFFCURVE",
"381 389 OFFCURVE",
"362 415 CURVE SMOOTH",
"333 456 OFFCURVE",
"227 445 OFFCURVE",
"158 439 CURVE",
"158 479 OFFCURVE",
"158 520 OFFCURVE",
"158 565 CURVE SMOOTH",
"158 581 OFFCURVE",
"157 594 OFFCURVE",
"156 606 CURVE",
"289 612 OFFCURVE",
"417 641 OFFCURVE",
"460 616 CURVE SMOOTH",
"479 605 OFFCURVE",
"520 590 OFFCURVE",
"510 634 CURVE SMOOTH"
);
}
);
width = 433;
}
);
note = F;
},
{
glyphname = G.ss01;
lastChange = "2021-10-09 07:18:02 +0000";
layers = (
{
hints = (
{
horizontal = 1;
place = "{602, 50}";
type = Stem;
},
{
place = "{45, 51}";
type = Stem;
},
{
place = "{554, 50}";
type = Stem;
}
);
layerId = "2ADFC918-CAA7-4AF7-825A-5AAC412EF250";
paths = (
{
closed = 1;
nodes = (
"619 2 LINE",
"586 96 OFFCURVE",
"608 150 OFFCURVE",
"603 256 CURVE SMOOTH",
"602 275 OFFCURVE",
"591 285 OFFCURVE",
"573 280 CURVE SMOOTH",
"511 262 OFFCURVE",
"416 331 OFFCURVE",
"364 227 CURVE SMOOTH",
"349 198 OFFCURVE",
"396 178 OFFCURVE",
"410 208 CURVE",
"428 260 OFFCURVE",
"483 230 OFFCURVE",
"554 228 CURVE",
"553 193 OFFCURVE",
"549 164 OFFCURVE",
"549 132 CURVE",
"548 132 LINE",
"474 -60 OFFCURVE",
"94 -58 OFFCURVE",
"95 295 CURVE SMOOTH",
"95 496 OFFCURVE",
"260 609 OFFCURVE",
"393 602 CURVE SMOOTH",
"482 597 OFFCURVE",
"568 554 OFFCURVE",
"559 457 CURVE SMOOTH",
"556 428 OFFCURVE",
"509 398 OFFCURVE",
"478 420 CURVE SMOOTH",
"453 438 OFFCURVE",
"417 398 OFFCURVE",
"449 379 CURVE SMOOTH",
"511 342 OFFCURVE",
"602 374 OFFCURVE",
"610 457 CURVE SMOOTH",
"621 578 OFFCURVE",
"503 649 OFFCURVE",
"394 653 CURVE SMOOTH",
"235 660 OFFCURVE",
"44 528 OFFCURVE",
"44 295 CURVE SMOOTH",
"45 -74 OFFCURVE",
"411 -124 OFFCURVE",
"556 44 CURVE",
"559 25 OFFCURVE",
"564 6 OFFCURVE",
"571 -15 CURVE SMOOTH",
"582 -46 OFFCURVE",
"631 -28 OFFCURVE",
"620 2 CURVE"
);
}
);
width = 660;
}
);
note = G;
},
{
glyphname = H.ss01;
lastChange = "2021-10-09 07:18:02 +0000";
layers = (
{
hints = (
{
horizontal = 1;
place = "{313, 47}";
type = Stem;
},
{
horizontal = 1;
place = "{643, -20}";
target = down;
type = TopGhost;
},
{
place = "{57, 51}";
type = Stem;
},
{
place = "{486, 55}";
type = Stem;
}
);
layerId = "2ADFC918-CAA7-4AF7-825A-5AAC412EF250";
paths = (
{
closed = 1;
nodes = (
"593 -2 LINE SMOOTH",
"585 112 OFFCURVE",
"585 183 OFFCURVE",
"591 350 CURVE SMOOTH",
"591 354 OFFCURVE",
"591 360 OFFCURVE",
"591 364 CURVE SMOOTH",
"598 502 OFFCURVE",
"596 633 OFFCURVE",
"572 651 CURVE SMOOTH",
"544 671 OFFCURVE",
"530 643 OFFCURVE",
"534 627 CURVE SMOOTH",
"548 568 OFFCURVE",
"545 500 OFFCURVE",
"538 367 CURVE",
"495 348 OFFCURVE",
"285 384 OFFCURVE",
"158 375 CURVE",
"163 473 OFFCURVE",
"158 570 OFFCURVE",
"137 636 CURVE SMOOTH",
"127 667 OFFCURVE",
"79 652 OFFCURVE",
"90 621 CURVE SMOOTH",
"111 559 OFFCURVE",
"111 465 OFFCURVE",
"106 368 CURVE",
"91 366 OFFCURVE",
"79 358 OFFCURVE",
"69 351 CURVE SMOOTH",
"44 333 OFFCURVE",
"68 304 OFFCURVE",
"102 319 CURVE",
"93 182 OFFCURVE",
"75 40 OFFCURVE",
"92 -10 CURVE SMOOTH",
"102 -41 OFFCURVE",
"150 -23 OFFCURVE",
"140 8 CURVE",
"125 42 OFFCURVE",
"146 182 OFFCURVE",
"155 328 CURVE",
"251 334 OFFCURVE",
"441 300 OFFCURVE",
"536 319 CURVE",
"527 165 OFFCURVE",
"533 33 OFFCURVE",
"549 -10 CURVE SMOOTH",
"558 -35 OFFCURVE",
"594 -21 OFFCURVE",
"593 -1 CURVE SMOOTH"
);
}
);
width = 621;
}
);
note = H;
},
{
glyphname = I.ss01;
lastChange = "2021-10-09 07:18:02 +0000";
layers = (
{
hints = (
{
horizontal = 1;
place = "{673, -20}";
target = down;
type = TopGhost;
}
);
layerId = "2ADFC918-CAA7-4AF7-825A-5AAC412EF250";
paths = (
{
closed = 1;
nodes = (
"380 626 LINE",
"408 642 OFFCURVE",
"381 686 OFFCURVE",
"352 671 CURVE",
"280 621 OFFCURVE",
"197 687 OFFCURVE",
"106 646 CURVE SMOOTH",
"76 632 OFFCURVE",
"78 580 OFFCURVE",
"128 601 CURVE",
"153 617 OFFCURVE",
"180 611 OFFCURVE",
"214 606 CURVE",
"174 471 OFFCURVE",
"208 111 OFFCURVE",
"175 29 CURVE",
"127 22 OFFCURVE",
"99 13 OFFCURVE",
"90 28 CURVE SMOOTH",
"67 69 OFFCURVE",
"28 46 OFFCURVE",
"47 1 CURVE",
"73 -28 OFFCURVE",
"112 -32 OFFCURVE",
"154 -25 CURVE",
"158 -25 OFFCURVE",
"177 -26 OFFCURVE",
"184 -21 CURVE",
"233 -15 OFFCURVE",
"284 -3 OFFCURVE",
"325 -18 CURVE SMOOTH",
"356 -30 OFFCURVE",
"372 20 OFFCURVE",
"341 30 CURVE SMOOTH",
"304 42 OFFCURVE",
"269 40 OFFCURVE",
"230 34 CURVE",
"266 196 OFFCURVE",
"219 556 OFFCURVE",
"263 601 CURVE",
"299 601 OFFCURVE",
"339 603 OFFCURVE",
"381 626 CURVE"
);
}
);
width = 410;
}
);
note = I;
},
{
glyphname = J.ss01;
lastChange = "2021-10-09 07:18:02 +0000";
layers = (
{
hints = (
{
horizontal = 1;
place = "{596, 47}";
type = Stem;
}
);
layerId = "2ADFC918-CAA7-4AF7-825A-5AAC412EF250";
paths = (
{
closed = 1;
nodes = (
"301 603 LINE",
"339 612 OFFCURVE",
"334 646 OFFCURVE",
"293 643 CURVE SMOOTH",
"219 637 OFFCURVE",
"139 647 OFFCURVE",
"62 648 CURVE SMOOTH",
"30 649 OFFCURVE",
"24 608 OFFCURVE",
"72 605 CURVE SMOOTH",
"110 602 OFFCURVE",
"115 600 OFFCURVE",
"162 600 CURVE",
"137 405 OFFCURVE",
"275 -263 OFFCURVE",
"-40 -137 CURVE SMOOTH",
"-69 -125 OFFCURVE",
"-90 -173 OFFCURVE",
"-60 -183 CURVE SMOOTH",
"340 -322 OFFCURVE",
"192 390 OFFCURVE",
"207 596 CURVE",
"257 596 OFFCURVE",
"285 598 OFFCURVE",
"302 602 CURVE"
);
}
);
width = 290;
}
);
note = J;
},
{
glyphname = K.ss01;
lastChange = "2021-10-09 07:18:02 +0000";
layers = (
{
hints = (
{
horizontal = 1;
place = "{683, -20}";
target = down;
type = TopGhost;
},
{
place = "{358, 48}";
type = Stem;
}
);
layerId = "2ADFC918-CAA7-4AF7-825A-5AAC412EF250";
paths = (
{
closed = 1;
nodes = (
"451 660 OFFCURVE",
"403 648 OFFCURVE",
"403 615 CURVE",
"398 560 OFFCURVE",
"185 412 OFFCURVE",
"101 357 CURVE",
"112 457 OFFCURVE",
"119 553 OFFCURVE",
"109 616 CURVE SMOOTH",
"92 724 OFFCURVE",
"-3 633 OFFCURVE",
"57 613 CURVE",
"92 462 OFFCURVE",
"-20 31 OFFCURVE",
"71 -41 CURVE SMOOTH",
"95 -60 OFFCURVE",
"116 -24 OFFCURVE",
"101 0 CURVE SMOOTH",
"69 52 OFFCURVE",
"85 170 OFFCURVE",
"95 288 CURVE",
"167 247 OFFCURVE",
"313 -60 OFFCURVE",
"450 -23 CURVE SMOOTH",
"482 -14 OFFCURVE",
"465 34 OFFCURVE",
"433 26 CURVE SMOOTH",
"345 4 OFFCURVE",
"228 237 OFFCURVE",
"133 320 CURVE",
"221 378 OFFCURVE",
"460 538 OFFCURVE",
"451 627 CURVE"
);
}
);
width = 493;
}
);
note = K;
},
{
glyphname = L.ss01;
lastChange = "2021-10-09 07:18:02 +0000";
layers = (
{
hints = (
{
horizontal = 1;
place = "{-17, 50}";
type = Stem;
},
{
horizontal = 1;
place = "{656, -20}";
target = down;
type = TopGhost;
},
{
place = "{96, 51}";
type = Stem;
}
);
layerId = "2ADFC918-CAA7-4AF7-825A-5AAC412EF250";
paths = (
{
closed = 1;
nodes = (
"551 77 OFFCURVE",
"483 93 OFFCURVE",
"489 46 CURVE",
"479 -6 OFFCURVE",
"159 33 OFFCURVE",
"104 33 CURVE",
"127 130 OFFCURVE",
"137 199 OFFCURVE",
"145 305 CURVE SMOOTH",
"151 380 OFFCURVE",
"148 465 OFFCURVE",
"148 565 CURVE SMOOTH",
"148 592 OFFCURVE",
"145 608 OFFCURVE",
"145 631 CURVE SMOOTH",
"145 664 OFFCURVE",
"94 664 OFFCURVE",
"94 631 CURVE SMOOTH",
"94 604 OFFCURVE",
"97 588 OFFCURVE",
"97 565 CURVE SMOOTH",
"97 465 OFFCURVE",
"100 380 OFFCURVE",
"94 310 CURVE SMOOTH",
"84 191 OFFCURVE",
"74 122 OFFCURVE",
"48 8 CURVE",
"47 -10 OFFCURVE",
"53 -24 OFFCURVE",
"72 -24 CURVE SMOOTH",
"98 -24 OFFCURVE",
"105 -17 OFFCURVE",
"120 -17 CURVE SMOOTH",
"285 -17 OFFCURVE",
"500 -83 OFFCURVE",
"539 38 CURVE SMOOTH"
);
}
);
width = 544;
}
);
note = L;
},
{
glyphname = M.ss01;
lastChange = "2021-10-09 07:18:02 +0000";
layers = (
{
hints = (
{
horizontal = 1;
place = "{658, -20}";
target = down;
type = TopGhost;
},
{
place = "{22, 51}";
type = Stem;
},
{
place = "{687, 50}";
type = Stem;
}
);
layerId = "2ADFC918-CAA7-4AF7-825A-5AAC412EF250";
paths = (
{
closed = 1;
nodes = (
"755 401 OFFCURVE",
"749 524 OFFCURVE",
"741 627 CURVE SMOOTH",
"739 654 OFFCURVE",
"695 673 OFFCURVE",
"676 634 CURVE SMOOTH",
"623 524 OFFCURVE",
"486 252 OFFCURVE",
"399 59 CURVE",
"335 225 OFFCURVE",
"193 555 OFFCURVE",
"154 641 CURVE SMOOTH",
"135 683 OFFCURVE",
"91 665 OFFCURVE",
"91 635 CURVE",
"68 404 OFFCURVE",
"36 124 OFFCURVE",
"35 -7 CURVE SMOOTH",
"35 -41 OFFCURVE",
"85 -41 OFFCURVE",
"85 -8 CURVE SMOOTH",
"85 105 OFFCURVE",
"111 343 OFFCURVE",
"134 558 CURVE",
"200 407 OFFCURVE",
"336 91 OFFCURVE",
"373 -18 CURVE SMOOTH",
"380 -40 OFFCURVE",
"411 -40 OFFCURVE",
"420 -19 CURVE SMOOTH",
"492 143 OFFCURVE",
"626 422 OFFCURVE",
"696 559 CURVE",
"702 473 OFFCURVE",
"706 376 OFFCURVE",
"707 288 CURVE SMOOTH",
"708 129 OFFCURVE",
"706 51 OFFCURVE",
"698 -6 CURVE",
"687 -47 OFFCURVE",
"749 -46 OFFCURVE",
"749 -13 CURVE",
"757 48 OFFCURVE",
"760 128 OFFCURVE",
"757 288 CURVE SMOOTH"
);
}
);
width = 794;
}
);
note = M;
},
{
glyphname = N.ss01;
lastChange = "2021-10-09 07:18:02 +0000";
layers = (
{
hints = (
{
horizontal = 1;
place = "{660, -20}";
target = down;
type = TopGhost;
},
{
place = "{530, 48}";
type = Stem;
}
);
layerId = "2ADFC918-CAA7-4AF7-825A-5AAC412EF250";
paths = (
{
closed = 1;
nodes = (
"588 606 OFFCURVE",
"599 647 OFFCURVE",
"553 656 CURVE SMOOTH",
"521 662 OFFCURVE",
"504 625 OFFCURVE",
"539 605 CURVE",
"566 363 OFFCURVE",
"537 231 OFFCURVE",
"529 89 CURVE",
"477 169 OFFCURVE",
"395 284 OFFCURVE",
"320 388 CURVE SMOOTH",
"259 472 OFFCURVE",
"169 607 OFFCURVE",
"137 647 CURVE",
"112 662 OFFCURVE",
"102 663 OFFCURVE",
"91 656 CURVE SMOOTH",
"81 651 OFFCURVE",
"76 646 OFFCURVE",
"76 625 CURVE",
"66 523 OFFCURVE",
"77 402 OFFCURVE",
"73 290 CURVE SMOOTH",
"73 289 OFFCURVE",
"80 67 OFFCURVE",
"64 29 CURVE",
"27 44 OFFCURVE",
"28 -36 OFFCURVE",
"75 -18 CURVE",
"105 -10 OFFCURVE",
"131 19 OFFCURVE",
"124 290 CURVE SMOOTH",
"122 389 OFFCURVE",
"118 489 OFFCURVE",
"124 578 CURVE",
"165 521 OFFCURVE",
"232 424 OFFCURVE",
"280 358 CURVE SMOOTH",
"381 220 OFFCURVE",
"491 59 OFFCURVE",
"529 -7 CURVE SMOOTH",
"541 -27 OFFCURVE",
"577 -18 OFFCURVE",
"577 6 CURVE SMOOTH",
"578 99 OFFCURVE",
"611 406 OFFCURVE",
"594 554 CURVE"
);
}
);
width = 647;
}
);
note = N;
},
{
glyphname = Eng.ss01;
lastChange = "2021-10-09 07:18:02 +0000";
layers = (
{
background = {
paths = (
{
closed = 1;
nodes = (
"527 29 OFFCURVE",
"527 12 OFFCURVE",
"526 -4 CURVE SMOOTH",
"522 -103 OFFCURVE",
"501 -180 OFFCURVE",
"460 -191 CURVE",
"462 -205 LINE",
"463 -205 LINE",
"461 -192 LINE",
"445 -196 OFFCURVE",
"424 -195 OFFCURVE",
"394 -183 CURVE SMOOTH",
"363 -171 OFFCURVE",
"343 -219 OFFCURVE",
"373 -231 CURVE SMOOTH",
"413 -247 OFFCURVE",
"446 -250 OFFCURVE",
"475 -240 CURVE",
"476 -240 LINE",
"550 -209 OFFCURVE",
"570 -114 OFFCURVE",
"575 -6 CURVE SMOOTH",
"576 11 OFFCURVE",
"576 29 OFFCURVE",
"576 48 CURVE",
"527 46 LINE"
);
}
);
};
hints = (
{
horizontal = 1;
place = "{660, -20}";
target = down;
type = TopGhost;
},
{
place = "{530, 48}";
type = Stem;
},
{
horizontal = 1;
place = "{487, 86}";
type = Stem;
},
{
place = "{744, 51}";
type = Stem;
}
);
layerId = "2ADFC918-CAA7-4AF7-825A-5AAC412EF250";
paths = (
{
closed = 1;
nodes = (
"610 332 OFFCURVE",
"594 554 CURVE SMOOTH",
"590 607 OFFCURVE",
"599 647 OFFCURVE",
"553 656 CURVE SMOOTH",
"521 662 OFFCURVE",
"504 625 OFFCURVE",
"539 605 CURVE",
"566 363 OFFCURVE",
"537 206 OFFCURVE",
"529 89 CURVE",
"477 169 OFFCURVE",
"395 284 OFFCURVE",
"320 388 CURVE SMOOTH",
"259 472 OFFCURVE",
"169 607 OFFCURVE",
"137 647 CURVE",
"112 662 OFFCURVE",
"102 663 OFFCURVE",
"91 656 CURVE SMOOTH",
"81 651 OFFCURVE",
"76 646 OFFCURVE",
"76 625 CURVE",
"66 523 OFFCURVE",
"77 402 OFFCURVE",
"73 290 CURVE SMOOTH",
"73 289 OFFCURVE",
"80 67 OFFCURVE",
"64 29 CURVE",
"27 44 OFFCURVE",
"28 -36 OFFCURVE",
"75 -18 CURVE",
"105 -10 OFFCURVE",
"131 19 OFFCURVE",
"124 290 CURVE SMOOTH",
"122 389 OFFCURVE",
"118 489 OFFCURVE",
"124 578 CURVE",
"165 521 OFFCURVE",
"232 424 OFFCURVE",
"280 358 CURVE SMOOTH",
"381 220 OFFCURVE",
"488 62 OFFCURVE",
"526 -4 CURVE",
"522 -103 OFFCURVE",
"501 -180 OFFCURVE",
"460 -191 CURVE",
"460 -192 LINE",
"444 -196 OFFCURVE",
"423 -195 OFFCURVE",
"394 -183 CURVE SMOOTH",
"363 -171 OFFCURVE",
"343 -219 OFFCURVE",
"373 -231 CURVE SMOOTH",
"413 -247 OFFCURVE",
"446 -250 OFFCURVE",
"475 -240 CURVE",
"476 -240 LINE",
"550 -209 OFFCURVE",
"575 -115 OFFCURVE",
"575 -8 CURVE SMOOTH",
"575 38 OFFCURVE"
);
}
);
width = 648;
}
);
},
{
glyphname = O.ss01;
lastChange = "2021-10-09 07:18:02 +0000";
layers = (
{
hints = (
{
horizontal = 1;
place = "{-23, 50}";
type = Stem;
},
{
horizontal = 1;
place = "{661, -20}";
target = down;
type = TopGhost;
},
{
place = "{30, 51}";
type = Stem;
},
{
place = "{622, 51}";
type = Stem;
}
);
layerId = "2ADFC918-CAA7-4AF7-825A-5AAC412EF250";
paths = (
{
closed = 1;
nodes = (
"673 320 LINE",
"673 494 OFFCURVE",
"551 685 OFFCURVE",
"367 659 CURVE",
"360 657 OFFCURVE",
"354 655 OFFCURVE",
"347 651 CURVE",
"159 681 OFFCURVE",
"30 494 OFFCURVE",
"30 320 CURVE SMOOTH",
"30 141 OFFCURVE",
"158 -19 OFFCURVE",
"339 -24 CURVE SMOOTH",
"527 -30 OFFCURVE",
"672 135 OFFCURVE",
"672 320 CURVE"
);
},
{
closed = 1;
nodes = (
"620 161 OFFCURVE",
"496 23 OFFCURVE",
"340 27 CURVE SMOOTH",
"189 31 OFFCURVE",
"80 165 OFFCURVE",
"80 319 CURVE SMOOTH",
"80 452 OFFCURVE",
"165 588 OFFCURVE",
"284 604 CURVE",
"240 555 OFFCURVE",
"211 483 OFFCURVE",
"255 418 CURVE SMOOTH",
"273 391 OFFCURVE",
"313 422 OFFCURVE",
"295 449 CURVE",
"246 499 OFFCURVE",
"341 609 OFFCURVE",
"373 609 CURVE",
"514 633 OFFCURVE",
"620 473 OFFCURVE",
"620 320 CURVE SMOOTH"
);
}
);
width = 688;
}
);
note = O;
},
{
glyphname = Oslash.ss01;
lastChange = "2021-10-09 07:18:02 +0000";
layers = (
{
hints = (
{
horizontal = 1;
place = "{-24, 51}";
type = Stem;
},
{
horizontal = 1;
place = "{609, 42}";
type = Stem;
},
{
place = "{30, 50}";
type = Stem;
},
{
place = "{107, 52}";
type = Stem;
},
{
place = "{233, 48}";
type = Stem;
},
{
place = "{543, 52}";
type = Stem;
},
{
place = "{620, 53}";
type = Stem;
}
);
layerId = "2ADFC918-CAA7-4AF7-825A-5AAC412EF250";
paths = (
{
closed = 1;
nodes = (
"110 163 OFFCURVE",
"80 238 OFFCURVE",
"80 319 CURVE SMOOTH",
"80 452 OFFCURVE",
"165 588 OFFCURVE",
"284 604 CURVE",
"240 555 OFFCURVE",
"211 483 OFFCURVE",
"255 418 CURVE SMOOTH",
"273 391 OFFCURVE",
"313 422 OFFCURVE",
"295 449 CURVE",
"246 499 OFFCURVE",
"341 609 OFFCURVE",
"373 609 CURVE",
"425 618 OFFCURVE",
"472 602 OFFCURVE",
"511 571 CURVE",
"499 553 OFFCURVE",
"487 538 OFFCURVE",
"481 530 CURVE SMOOTH",
"383 405 OFFCURVE",
"288 278 OFFCURVE",
"191 151 CURVE SMOOTH",
"181 138 OFFCURVE",
"171 124 OFFCURVE",
"160 109 CURVE"
);
},
{
closed = 1;
nodes = (
"593 476 OFFCURVE",
"620 397 OFFCURVE",
"620 320 CURVE SMOOTH",
"620 161 OFFCURVE",
"496 23 OFFCURVE",
"340 27 CURVE SMOOTH",
"286 28 OFFCURVE",
"238 46 OFFCURVE",
"198 75 CURVE",
"211 94 OFFCURVE",
"223 111 OFFCURVE",
"231 121 CURVE SMOOTH",
"327 247 OFFCURVE",
"423 373 OFFCURVE",
"521 497 CURVE SMOOTH",
"529 507 OFFCURVE",
"538 519 OFFCURVE",
"548 533 CURVE"
);
},
{
closed = 1;
nodes = (
"595 668 OFFCURVE",
"543 668 OFFCURVE",
"543 634 CURVE SMOOTH",
"543 629 OFFCURVE",
"541 623 OFFCURVE",
"537 615 CURVE",
"490 650 OFFCURVE",
"432 668 OFFCURVE",
"367 659 CURVE",
"360 657 OFFCURVE",
"354 655 OFFCURVE",
"347 651 CURVE",
"159 681 OFFCURVE",
"30 494 OFFCURVE",
"30 320 CURVE SMOOTH",
"30 222 OFFCURVE",
"68 130 OFFCURVE",
"133 66 CURVE",
"118 38 OFFCURVE",
"107 9 OFFCURVE",
"107 -18 CURVE SMOOTH",
"107 -44 OFFCURVE",
"147 -55 OFFCURVE",
"158 -15 CURVE",
"159 -13 OFFCURVE",
"159 -8 OFFCURVE",
"159 -6 CURVE SMOOTH",
"159 4 OFFCURVE",
"164 18 OFFCURVE",
"172 32 CURVE",
"219 -1 OFFCURVE",
"276 -22 OFFCURVE",
"339 -24 CURVE SMOOTH",
"527 -30 OFFCURVE",
"672 135 OFFCURVE",
"672 320 CURVE",
"673 320 LINE",
"673 413 OFFCURVE",
"638 511 OFFCURVE",
"577 578 CURVE",
"587 597 OFFCURVE",
"595 616 OFFCURVE",
"595 634 CURVE SMOOTH"
);
}
);
width = 688;
}
);
note = Oslash;
},
{
glyphname = OE.ss01;
lastChange = "2021-10-09 07:18:02 +0000";
layers = (
{
hints = (
{
horizontal = 1;
place = "{-23, 50}";
type = Stem;
},
{
horizontal = 1;
place = "{661, -20}";
target = down;
type = TopGhost;
},
{
place = "{30, 51}";
type = Stem;
},
{
place = "{622, 51}";
type = Stem;
}
);
layerId = "2ADFC918-CAA7-4AF7-825A-5AAC412EF250";
paths = (
{
closed = 1;
nodes = (
"579 120 OFFCURVE",
"471 24 OFFCURVE",
"340 27 CURVE SMOOTH",
"189 31 OFFCURVE",
"80 165 OFFCURVE",
"80 319 CURVE SMOOTH",
"80 452 OFFCURVE",
"165 588 OFFCURVE",
"284 604 CURVE",
"240 555 OFFCURVE",
"211 483 OFFCURVE",
"255 418 CURVE SMOOTH",
"273 391 OFFCURVE",
"313 422 OFFCURVE",
"295 449 CURVE",
"246 499 OFFCURVE",
"341 609 OFFCURVE",
"373 609 CURVE",
"504 631 OFFCURVE",
"604 496 OFFCURVE",
"618 354 CURVE",
"618 339 OFFCURVE",
"617 325 OFFCURVE",
"616 311 CURVE SMOOTH",
"614 287 OFFCURVE",
"613 265 OFFCURVE",
"611 245 CURVE"
);
},
{
closed = 1;
nodes = (
"1084 86 OFFCURVE",
"1005 96 OFFCURVE",
"1008 51 CURVE",
"972 -16 OFFCURVE",
"699 34 OFFCURVE",
"627 34 CURVE",
"643 104 OFFCURVE",
"653 160 OFFCURVE",
"659 226 CURVE",
"668 256 OFFCURVE",
"672 288 OFFCURVE",
"672 320 CURVE",
"673 320 LINE",
"673 337 OFFCURVE",
"672 354 OFFCURVE",
"670 370 CURVE SMOOTH",
"670 377 OFFCURVE",
"670 383 OFFCURVE",
"670 390 CURVE",
"740 395 OFFCURVE",
"809 412 OFFCURVE",
"829 395 CURVE",
"834 359 OFFCURVE",
"885 378 OFFCURVE",
"874 416 CURVE SMOOTH",
"854 482 OFFCURVE",
"738 447 OFFCURVE",
"670 440 CURVE",
"670 565 LINE SMOOTH",
"670 581 OFFCURVE",
"669 594 OFFCURVE",
"668 606 CURVE",
"801 612 OFFCURVE",
"929 641 OFFCURVE",
"972 616 CURVE",
"983 591 OFFCURVE",
"1043 597 OFFCURVE",
"1022 634 CURVE SMOOTH",
"978 710 OFFCURVE",
"780 651 OFFCURVE",
"638 656 CURVE SMOOTH",
"620 657 OFFCURVE",
"613 648 OFFCURVE",
"613 630 CURVE SMOOTH",
"612 604 OFFCURVE",
"619 588 OFFCURVE",
"619 565 CURVE SMOOTH",
"619 521 LINE",
"566 612 OFFCURVE",
"478 675 OFFCURVE",
"367 659 CURVE",
"360 657 OFFCURVE",
"354 655 OFFCURVE",
"347 651 CURVE",
"159 681 OFFCURVE",
"30 494 OFFCURVE",
"30 320 CURVE SMOOTH",
"30 141 OFFCURVE",
"158 -19 OFFCURVE",
"339 -24 CURVE SMOOTH",
"439 -27 OFFCURVE",
"527 18 OFFCURVE",
"588 90 CURVE",
"583 64 OFFCURVE",
"577 38 OFFCURVE",
"570 8 CURVE",
"570 -10 OFFCURVE",
"576 -24 OFFCURVE",
"595 -24 CURVE SMOOTH",
"617 -24 OFFCURVE",
"628 -16 OFFCURVE",
"638 -16 CURVE",
"705 -5 OFFCURVE",
"1023 -86 OFFCURVE",
"1061 38 CURVE"
);
}
);
width = 1077;
}
);
note = OE;
},
{
glyphname = P.ss01;
lastChange = "2021-10-09 07:18:02 +0000";
layers = (
{
hints = (
{
horizontal = 1;
place = "{249, 51}";
type = Stem;
},
{
horizontal = 1;
place = "{691, -20}";
target = down;
type = TopGhost;
},
{
place = "{168, 313}";
type = Stem;
}
);
layerId = "2ADFC918-CAA7-4AF7-825A-5AAC412EF250";
paths = (
{
closed = 1;
nodes = (
"485 661 OFFCURVE",
"222 664 OFFCURVE",
"109 664 CURVE",
"90 666 OFFCURVE",
"64 673 OFFCURVE",
"68 636 CURVE",
"67 635 OFFCURVE",
"73 617 OFFCURVE",
"73 612 CURVE",
"81 573 OFFCURVE",
"70 438 OFFCURVE",
"58 308 CURVE SMOOTH",
"46 175 OFFCURVE",
"36 47 OFFCURVE",
"60 -13 CURVE",
"67 -22 OFFCURVE",
"68 -39 OFFCURVE",
"97 -44 CURVE SMOOTH",
"146 -53 OFFCURVE",
"145 -22 OFFCURVE",
"107 7 CURVE",
"93 36 OFFCURVE",
"95 125 OFFCURVE",
"102 224 CURVE",
"249 224 OFFCURVE",
"459 242 OFFCURVE",
"471 437 CURVE SMOOTH"
);
},
{
closed = 1;
nodes = (
"421 440 LINE SMOOTH",
"421 290 OFFCURVE",
"240 266 OFFCURVE",
"103 275 CURVE SMOOTH",
"109 275 OFFCURVE",
"127 554 OFFCURVE",
"123 616 CURVE",
"187 632 OFFCURVE",
"421 602 OFFCURVE",
"421 441 CURVE SMOOTH"
);
}
);
width = 487;
}
);
note = P;
},
{
glyphname = Q.ss01;
lastChange = "2021-10-09 07:18:02 +0000";
layers = (
{
hints = (
{
horizontal = 1;
place = "{601, 50}";
type = Stem;
},
{
place = "{14, 50}";
type = Stem;
},
{
place = "{630, 50}";
type = Stem;
}
);
layerId = "2ADFC918-CAA7-4AF7-825A-5AAC412EF250";
paths = (
{
closed = 1;
nodes = (
"680 265 LINE",
"697 468 OFFCURVE",
"568 644 OFFCURVE",
"375 651 CURVE SMOOTH",
"150 659 OFFCURVE",
"6 477 OFFCURVE",
"15 284 CURVE SMOOTH",
"19 193 OFFCURVE",
"71 81 OFFCURVE",
"149 41 CURVE",
"135 -56 OFFCURVE",
"294 -42 OFFCURVE",
"355 -49 CURVE",
"377 -48 OFFCURVE",
"401 -45 OFFCURVE",
"426 -39 CURVE",
"494 -70 OFFCURVE",
"562 -90 OFFCURVE",
"604 -68 CURVE SMOOTH",
"634 -52 OFFCURVE",
"603 -11 OFFCURVE",
"574 -26 CURVE",
"562 -41 OFFCURVE",
"532 -32 OFFCURVE",
"495 -15 CURVE",
"583 29 OFFCURVE",
"667 116 OFFCURVE",
"679 266 CURVE"
);
},
{
closed = 1;
nodes = (
"629 272 LINE SMOOTH",
"617 119 OFFCURVE",
"519 44 OFFCURVE",
"432 16 CURVE",
"345 61 OFFCURVE",
"244 113 OFFCURVE",
"183 84 CURVE",
"124 102 OFFCURVE",
"69 209 OFFCURVE",
"65 285 CURVE SMOOTH",
"54 474 OFFCURVE",
"184 609 OFFCURVE",
"372 602 CURVE SMOOTH",
"533 596 OFFCURVE",
"643 448 OFFCURVE",
"629 271 CURVE SMOOTH"
);
},
{
closed = 1;
nodes = (
"342 0 OFFCURVE",
"340 0 OFFCURVE",
"339 0 CURVE SMOOTH",
"277 -6 OFFCURVE",
"207 4 OFFCURVE",
"200 24 CURVE SMOOTH",
"197 32 OFFCURVE",
"202 40 OFFCURVE",
"205 46 CURVE",
"227 57 OFFCURVE",
"283 31 OFFCURVE",
"345 1 CURVE"
);
}
);
width = 686;
}
);
note = Q;
},
{
glyphname = R.ss01;
lastChange = "2021-10-09 07:18:02 +0000";
layers = (
{
hints = (
{
horizontal = 1;
place = "{-23, 50}";
type = Stem;
},
{
horizontal = 1;
place = "{274, 44}";
type = Stem;
},
{
horizontal = 1;
place = "{609, 51}";
type = Stem;
},
{
place = "{64, 51}";
type = Stem;
},
{
place = "{408, 50}";
type = Stem;
}
);
layerId = "2ADFC918-CAA7-4AF7-825A-5AAC412EF250";
paths = (
{
closed = 1;
nodes = (
"386 27 OFFCURVE",
"248 196 OFFCURVE",
"174 274 CURVE",
"283 280 OFFCURVE",
"469 328 OFFCURVE",
"459 481 CURVE SMOOTH",
"444 699 OFFCURVE",
"197 666 OFFCURVE",
"103 660 CURVE",
"79 657 OFFCURVE",
"65 645 OFFCURVE",
"65 619 CURVE",
"64 598 OFFCURVE",
"68 484 OFFCURVE",
"68 344 CURVE SMOOTH",
"68 188 OFFCURVE",
"62 41 OFFCURVE",
"46 12 CURVE SMOOTH",
"30 -16 OFFCURVE",
"79 -41 OFFCURVE",
"93 -11 CURVE SMOOTH",
"111 26 OFFCURVE",
"123 136 OFFCURVE",
"126 248 CURVE",
"202 166 OFFCURVE",
"358 -17 OFFCURVE",
"471 -23 CURVE SMOOTH",
"504 -25 OFFCURVE",
"506 27 OFFCURVE",
"473 27 CURVE SMOOTH"
);
},
{
closed = 1;
nodes = (
"415 368 OFFCURVE",
"245 319 OFFCURVE",
"124 319 CURVE",
"124 388 OFFCURVE",
"117 578 OFFCURVE",
"116 610 CURVE",
"232 610 OFFCURVE",
"398 632 OFFCURVE",
"408 483 CURVE SMOOTH"
);
}
);
width = 507;
}
);
note = R;
},
{
glyphname = S.ss01;
lastChange = "2021-10-09 07:18:02 +0000";
layers = (
{
hints = (
{
horizontal = 1;
place = "{675, -20}";
target = down;
type = TopGhost;
},
{
place = "{405, 50}";
type = Stem;
}
);
layerId = "2ADFC918-CAA7-4AF7-825A-5AAC412EF250";
paths = (
{
closed = 1;
nodes = (
"456 180 LINE",
"449 454 OFFCURVE",
"107 344 OFFCURVE",
"89 496 CURVE SMOOTH",
"74 624 OFFCURVE",
"334 686 OFFCURVE",
"379 542 CURVE SMOOTH",
"389 512 OFFCURVE",
"437 529 OFFCURVE",
"428 560 CURVE",
"349 756 OFFCURVE",
"39 681 OFFCURVE",
"39 494 CURVE",
"69 299 OFFCURVE",
"404 407 OFFCURVE",
"405 180 CURVE SMOOTH",
"407 -55 OFFCURVE",
"-4 -44 OFFCURVE",
"48 147 CURVE SMOOTH",
"56 178 OFFCURVE",
"4 190 OFFCURVE",
"-1 158 CURVE SMOOTH",
"-47 -113 OFFCURVE",
"463 -121 OFFCURVE",
"455 179 CURVE"
);
}
);
width = 454;
}
);
note = S;
},
{
glyphname = Germandbls.ss01;
lastChange = "2021-10-09 07:18:02 +0000";
layers = (
{
hints = (
{
horizontal = 1;
place = "{408, 49}";
type = Stem;
},
{
horizontal = 1;
place = "{465, -20}";
target = down;
type = TopGhost;
},
{
horizontal = 1;
place = "{674, -20}";
target = down;
type = TopGhost;
},
{
place = "{92, 51}";
type = Stem;
},
{
place = "{310, 50}";
type = Stem;
}
);
layerId = "2ADFC918-CAA7-4AF7-825A-5AAC412EF250";
paths = (
{
closed = 1;
nodes = (
"124 27 OFFCURVE",
"126 154 OFFCURVE",
"131 231 CURVE SMOOTH",
"133 277 OFFCURVE",
"138 546 OFFCURVE",
"165 589 CURVE SMOOTH",
"197 639 OFFCURVE",
"277 652 OFFCURVE",
"340 639 CURVE SMOOTH",
"460 613 OFFCURVE",
"426 508 OFFCURVE",
"353 462 CURVE SMOOTH",
"314 437 OFFCURVE",
"283 416 OFFCURVE",
"270 407 CURVE SMOOTH",
"248 393 OFFCURVE",
"214 368 OFFCURVE",
"218 327 CURVE SMOOTH",
"225 248 OFFCURVE",
"289 230 OFFCURVE",
"352 217 CURVE SMOOTH",
"410 206 OFFCURVE",
"470 200 OFFCURVE",
"470 142 CURVE SMOOTH",
"470 80 OFFCURVE",
"434 41 OFFCURVE",
"388 23 CURVE SMOOTH",
"317 -4 OFFCURVE",
"224 15 OFFCURVE",
"231 75 CURVE",
"243 116 OFFCURVE",
"192 129 OFFCURVE",
"181 80 CURVE",
"180 -28 OFFCURVE",
"306 -56 OFFCURVE",
"405 -16 CURVE SMOOTH",
"471 11 OFFCURVE",
"523 68 OFFCURVE",
"520 144 CURVE SMOOTH",
"517 222 OFFCURVE",
"452 242 OFFCURVE",
"387 258 CURVE SMOOTH",
"324 273 OFFCURVE",
"269 282 OFFCURVE",
"267 324 CURVE SMOOTH",
"265 360 OFFCURVE",
"331 386 OFFCURVE",
"383 420 CURVE SMOOTH",
"510 503 OFFCURVE",
"505 656 OFFCURVE",
"352 682 CURVE SMOOTH",
"263 697 OFFCURVE",
"151 681 OFFCURVE",
"118 617 CURVE SMOOTH",
"91 566 OFFCURVE",
"90 346 OFFCURVE",
"81 224 CURVE SMOOTH",
"77 160 OFFCURVE",
"72 36 OFFCURVE",
"54 -54 CURVE",
"48 -86 OFFCURVE",
"93 -104 OFFCURVE",
"105 -70 CURVE"
);
}
);
width = 529;
}
);
},
{
glyphname = Schwa.ss01;
lastChange = "2021-10-09 07:18:02 +0000";
layers = (
{
hints = (
{
horizontal = 1;
place = "{17, -50}";
type = Stem;
},
{
place = "{643, -51}";
type = Stem;
},
{
place = "{146, -50}";
type = Stem;
}
);
layerId = "2ADFC918-CAA7-4AF7-825A-5AAC412EF250";
paths = (
{
closed = 1;
nodes = (
"23 493 OFFCURVE",
"70 471 OFFCURVE",
"84 500 CURVE SMOOTH",
"171 687 OFFCURVE",
"509 684 OFFCURVE",
"540 378 CURVE",
"71 377 OFFCURVE",
"45 169 OFFCURVE",
"44 133 CURVE SMOOTH",
"42 96 OFFCURVE",
"64 -25 OFFCURVE",
"261 -32 CURVE SMOOTH",
"422 -37 OFFCURVE",
"591 97 OFFCURVE",
"593 328 CURVE SMOOTH",
"597 738 OFFCURVE",
"152 765 OFFCURVE",
"37 522 CURVE SMOOTH"
);
},
{
closed = 1;
nodes = (
"175 21 OFFCURVE",
"100 43 OFFCURVE",
"96 133 CURVE SMOOTH",
"95 157 OFFCURVE",
"104 328 OFFCURVE",
"542 330 CURVE",
"542 328 LINE SMOOTH",
"541 124 OFFCURVE",
"395 11 OFFCURVE",
"262 17 CURVE SMOOTH"
);
}
);
width = 603;
}
);
},
{
glyphname = T.ss01;
lastChange = "2021-10-09 07:18:02 +0000";
layers = (
{
hints = (
{
horizontal = 1;
place = "{590, 43}";
type = Stem;
},
{
horizontal = 1;
place = "{660, -20}";
target = down;
type = TopGhost;
},
{
place = "{274, 54}";
type = Stem;
}
);
layerId = "2ADFC918-CAA7-4AF7-825A-5AAC412EF250";
paths = (
{
closed = 1;
nodes = (
"265 104 OFFCURVE",
"327 472 OFFCURVE",
"327 588 CURVE SMOOTH",
"327 596 OFFCURVE",
"326 603 OFFCURVE",
"325 609 CURVE",
"400 599 OFFCURVE",
"468 582 OFFCURVE",
"527 590 CURVE",
"554 591 OFFCURVE",
"590 626 OFFCURVE",
"576 642 CURVE SMOOTH",
"557 664 OFFCURVE",
"542 633 OFFCURVE",
"522 633 CURVE",
"403 613 OFFCURVE",
"225 704 OFFCURVE",
"62 632 CURVE SMOOTH",
"47 626 OFFCURVE",
"33 623 OFFCURVE",
"22 613 CURVE SMOOTH",
"-4 589 OFFCURVE",
"30 556 OFFCURVE",
"56 579 CURVE SMOOTH",
"60 583 OFFCURVE",
"69 586 OFFCURVE",
"77 590 CURVE SMOOTH",
"144 620 OFFCURVE",
"213 622 OFFCURVE",
"273 616 CURVE",
"273 606 OFFCURVE",
"276 600 OFFCURVE",
"276 589 CURVE SMOOTH",
"276 478 OFFCURVE",
"213 109 OFFCURVE",
"251 -10 CURVE",
"251 -13 LINE",
"258 -29 OFFCURVE",
"267 -43 OFFCURVE",
"280 -52 CURVE SMOOTH",
"308 -72 OFFCURVE",
"336 -28 OFFCURVE",
"308 -9 CURVE",
"308 -9 OFFCURVE",
"303 -4 OFFCURVE",
"300 5 CURVE SMOOTH"
);
}
);
width = 518;
}
);
note = T;
},
{
glyphname = U.ss01;
lastChange = "2021-10-09 07:18:02 +0000";
layers = (
{
hints = (
{
horizontal = 1;
place = "{-34, 50}";
type = Stem;
},
{
horizontal = 1;
place = "{651, -20}";
target = down;
type = TopGhost;
},
{
place = "{76, 50}";
type = Stem;
},
{
place = "{542, 49}";
type = Stem;
}
);
layerId = "2ADFC918-CAA7-4AF7-825A-5AAC412EF250";
paths = (
{
closed = 1;
nodes = (
"591 331 LINE",
"601 460 OFFCURVE",
"596 608 OFFCURVE",
"575 621 CURVE SMOOTH",
"562 630 OFFCURVE",
"540 640 OFFCURVE",
"536 619 CURVE SMOOTH",
"528 578 OFFCURVE",
"536 422 OFFCURVE",
"536 341 CURVE",
"514 177 OFFCURVE",
"457 12 OFFCURVE",
"299 16 CURVE SMOOTH",
"57 21 OFFCURVE",
"109 301 OFFCURVE",
"126 519 CURVE SMOOTH",
"130 571 OFFCURVE",
"131 651 OFFCURVE",
"95 651 CURVE SMOOTH",
"63 651 OFFCURVE",
"69 622 OFFCURVE",
"72 606 CURVE SMOOTH",
"74 597 OFFCURVE",
"77 555 OFFCURVE",
"75 523 CURVE SMOOTH",
"61 297 OFFCURVE",
"-6 -22 OFFCURVE",
"297 -34 CURVE SMOOTH",
"420 -39 OFFCURVE",
"496 40 OFFCURVE",
"541 140 CURVE",
"540 107 OFFCURVE",
"537 74 OFFCURVE",
"534 39 CURVE SMOOTH",
"531 13 OFFCURVE",
"522 -7 OFFCURVE",
"523 -16 CURVE SMOOTH",
"524 -42 OFFCURVE",
"552 -56 OFFCURVE",
"570 -34 CURVE SMOOTH",
"578 -23 OFFCURVE",
"582 7 OFFCURVE",
"585 31 CURVE SMOOTH",
"597 141 OFFCURVE",
"597 237 OFFCURVE",
"590 331 CURVE"
);
}
);
width = 642;
}
);
note = U;
},
{
glyphname = V.ss01;
lastChange = "2021-10-09 07:18:02 +0000";
layers = (
{
hints = (
{
horizontal = 1;
place = "{675, -20}";
target = down;
type = TopGhost;
}
);
layerId = "2ADFC918-CAA7-4AF7-825A-5AAC412EF250";
paths = (
{
closed = 1;
nodes = (
"555 643 LINE",
"543 673 OFFCURVE",
"496 652 OFFCURVE",
"509 622 CURVE SMOOTH",
"551 522 OFFCURVE",
"521 410 OFFCURVE",
"464 309 CURVE SMOOTH",
"401 196 OFFCURVE",
"308 97 OFFCURVE",
"261 39 CURVE",
"228 110 OFFCURVE",
"156 248 OFFCURVE",
"102 373 CURVE SMOOTH",
"56 481 OFFCURVE",
"24 581 OFFCURVE",
"49 619 CURVE",
"102 660 OFFCURVE",
"11 707 OFFCURVE",
"5 644 CURVE",
"-6 619 OFFCURVE",
"-10 583 OFFCURVE",
"-3 541 CURVE SMOOTH",
"29 348 OFFCURVE",
"222 21 OFFCURVE",
"233 -20 CURVE SMOOTH",
"239 -44 OFFCURVE",
"272 -45 OFFCURVE",
"280 -22 CURVE SMOOTH",
"291 9 OFFCURVE",
"434 141 OFFCURVE",
"518 305 CURVE SMOOTH",
"572 411 OFFCURVE",
"601 529 OFFCURVE",
"556 642 CURVE"
);
}
);
width = 576;
}
);
note = V;
},
{
glyphname = W.ss01;
lastChange = "2021-10-09 07:18:02 +0000";
layers = (
{
hints = (
{
horizontal = 1;
place = "{655, -20}";
target = down;
type = TopGhost;
},
{
place = "{20, 51}";
type = Stem;
},
{
place = "{420, 48}";
type = Stem;
},
{
place = "{808, 50}";
type = Stem;
}
);
layerId = "2ADFC918-CAA7-4AF7-825A-5AAC412EF250";
paths = (
{
closed = 1;
nodes = (
"859 583 LINE",
"859 610 OFFCURVE",
"855 628 OFFCURVE",
"840 643 CURVE SMOOTH",
"819 665 OFFCURVE",
"779 642 OFFCURVE",
"803 611 CURVE",
"802 607 OFFCURVE",
"809 591 OFFCURVE",
"809 583 CURVE SMOOTH",
"817 455 OFFCURVE",
"764 169 OFFCURVE",
"667 41 CURVE",
"666 44 OFFCURVE",
"469 570 OFFCURVE",
"469 570 CURVE",
"455 607 OFFCURVE",
"447 667 OFFCURVE",
"411 653 CURVE SMOOTH",
"387 644 OFFCURVE",
"384 607 OFFCURVE",
"379 592 CURVE SMOOTH",
"340 485 OFFCURVE",
"221 177 OFFCURVE",
"174 58 CURVE",
"168 63 OFFCURVE",
"164 76 OFFCURVE",
"162 82 CURVE SMOOTH",
"120 244 OFFCURVE",
"72 469 OFFCURVE",
"72 569 CURVE SMOOTH",
"72 598 OFFCURVE",
"74 606 OFFCURVE",
"79 613 CURVE SMOOTH",
"98 643 OFFCURVE",
"57 672 OFFCURVE",
"37 643 CURVE SMOOTH",
"24 623 OFFCURVE",
"20 602 OFFCURVE",
"20 569 CURVE SMOOTH",
"20 439 OFFCURVE",
"81 186 OFFCURVE",
"141 -11 CURVE SMOOTH",
"148 -32 OFFCURVE",
"184 -36 OFFCURVE",
"197 -21 CURVE",
"196 -20 OFFCURVE",
"375 435 OFFCURVE",
"421 554 CURVE",
"420 553 OFFCURVE",
"420 553 OFFCURVE",
"420 553 CURVE",
"467 422 OFFCURVE",
"566 142 OFFCURVE",
"615 31 CURVE SMOOTH",
"637 -19 LINE SMOOTH",
"645 -38 OFFCURVE",
"664 -41 OFFCURVE",
"679 -25 CURVE SMOOTH",
"693 -11 OFFCURVE",
"706 6 OFFCURVE",
"718 25 CURVE SMOOTH",
"816 181 OFFCURVE",
"866 469 OFFCURVE",
"859 583 CURVE"
);
}
);
width = 873;
}
);
note = W;
},
{
glyphname = X.ss01;
lastChange = "2021-10-09 07:18:02 +0000";
layers = (
{
hints = (
{
horizontal = 1;
place = "{659, -20}";
target = down;
type = TopGhost;
},
{
place = "{463, 51}";
type = Stem;
}
);
layerId = "2ADFC918-CAA7-4AF7-825A-5AAC412EF250";
paths = (
{
closed = 1;
nodes = (
"513 668 OFFCURVE",
"462 666 OFFCURVE",
"462 633 CURVE",
"470 579 OFFCURVE",
"359 473 OFFCURVE",
"232 347 CURVE",
"173 437 OFFCURVE",
"119 530 OFFCURVE",
"87 633 CURVE SMOOTH",
"78 663 OFFCURVE",
"30 648 OFFCURVE",
"39 617 CURVE SMOOTH",
"74 504 OFFCURVE",
"132 405 OFFCURVE",
"197 310 CURVE",
"83 195 OFFCURVE",
"-37 65 OFFCURVE",
"-87 -58 CURVE SMOOTH",
"-99 -87 OFFCURVE",
"-50 -107 OFFCURVE",
"-39 -78 CURVE SMOOTH",
"6 37 OFFCURVE",
"117 156 OFFCURVE",
"226 267 CURVE",
"295 172 OFFCURVE",
"368 82 OFFCURVE",
"427 -14 CURVE SMOOTH",
"444 -41 OFFCURVE",
"487 -13 OFFCURVE",
"470 14 CURVE SMOOTH",
"406 114 OFFCURVE",
"331 208 OFFCURVE",
"262 305 CURVE",
"394 435 OFFCURVE",
"513 553 OFFCURVE",
"513 634 CURVE SMOOTH"
);
}
);
width = 487;
}
);
note = X;
},
{
glyphname = Y.ss01;
lastChange = "2021-10-09 07:18:02 +0000";
layers = (
{
hints = (
{
horizontal = 1;
place = "{646, -20}";
target = down;
type = TopGhost;
},
{
place = "{11, 50}";
type = Stem;
},
{
place = "{198, 51}";
type = Stem;
}
);
layerId = "2ADFC918-CAA7-4AF7-825A-5AAC412EF250";
paths = (
{
closed = 1;
nodes = (
"229 49 OFFCURVE",
"249 196 OFFCURVE",
"249 233 CURVE",
"292 276 OFFCURVE",
"503 522 OFFCURVE",
"469 630 CURVE SMOOTH",
"459 661 OFFCURVE",
"413 642 OFFCURVE",
"422 611 CURVE",
"459 553 OFFCURVE",
"260 307 OFFCURVE",
"229 277 CURVE",
"167 355 OFFCURVE",
"65 483 OFFCURVE",
"62 614 CURVE SMOOTH",
"61 648 OFFCURVE",
"11 646 OFFCURVE",
"12 613 CURVE SMOOTH",
"15 472 OFFCURVE",
"165 273 OFFCURVE",
"198 233 CURVE",
"198 198 OFFCURVE",
"182 63 OFFCURVE",
"200 10 CURVE SMOOTH",
"205 -6 OFFCURVE",
"225 -21 OFFCURVE",
"242 -21 CURVE SMOOTH",
"268 -21 OFFCURVE",
"274 10 OFFCURVE",
"252 24 CURVE"
);
}
);
width = 445;
}
);
note = Y;
},
{
glyphname = Z.ss01;
lastChange = "2021-10-09 07:18:02 +0000";
layers = (
{
hints = (
{
horizontal = 1;
place = "{652, -20}";
target = down;
type = TopGhost;
}
);
layerId = "2ADFC918-CAA7-4AF7-825A-5AAC412EF250";
paths = (
{
closed = 1;
nodes = (
"611 38 LINE",
"632 62 OFFCURVE",
"591 94 OFFCURVE",
"571 70 CURVE",
"505 -26 OFFCURVE",
"280 65 OFFCURVE",
"112 41 CURVE",
"162 115 OFFCURVE",
"260 252 OFFCURVE",
"343 340 CURVE SMOOTH",
"496 502 OFFCURVE",
"621 601 OFFCURVE",
"557 650 CURVE",
"458 616 OFFCURVE",
"250 678 OFFCURVE",
"148 637 CURVE SMOOTH",
"118 625 OFFCURVE",
"138 579 OFFCURVE",
"169 590 CURVE",
"233 621 OFFCURVE",
"392 582 OFFCURVE",
"508 589 CURVE",
"467 544 OFFCURVE",
"399 461 OFFCURVE",
"308 377 CURVE SMOOTH",
"175 253 OFFCURVE",
"36 13 OFFCURVE",
"36 13 CURVE",
"24 -7 OFFCURVE",
"46 -33 OFFCURVE",
"67 -23 CURVE SMOOTH",
"211 46 OFFCURVE",
"491 -98 OFFCURVE",
"611 39 CURVE"
);
}
);
width = 623;
}
);
note = Z;
},
{
glyphname = a;
layers = (
{
hints = (
{
horizontal = 1;
place = "{-22, 46}";
type = Stem;
},
{
place = "{2, 40}";
type = Stem;
}
);
layerId = "2ADFC918-CAA7-4AF7-825A-5AAC412EF250";
paths = (
{
closed = 1;
nodes = (
"472 -28 OFFCURVE",
"472 23 OFFCURVE",
"439 23 CURVE SMOOTH",
"337 23 OFFCURVE",
"382 276 OFFCURVE",
"382 332 CURVE SMOOTH",
"382 474 OFFCURVE",
"219 495 OFFCURVE",
"125 432 CURVE SMOOTH",
"46 378 OFFCURVE",
"-4 280 OFFCURVE",
"-4 185 CURVE SMOOTH",
"-4 88 OFFCURVE",
"35 -28 OFFCURVE",
"154 -28 CURVE SMOOTH",
"232 -28 OFFCURVE",
"288 37 OFFCURVE",
"320 100 CURVE",
"327 35 OFFCURVE",
"361 -28 OFFCURVE",
"439 -28 CURVE SMOOTH"
);
},
{
closed = 1;
nodes = (
"311 218 OFFCURVE",
"266 23 OFFCURVE",
"154 23 CURVE SMOOTH",
"71 23 OFFCURVE",
"48 111 OFFCURVE",
"48 185 CURVE SMOOTH",
"48 263 OFFCURVE",
"91 345 OFFCURVE",
"155 389 CURVE SMOOTH",
"199 420 OFFCURVE",
"283 427 OFFCURVE",
"316 381 CURVE SMOOTH",
"333 357 OFFCURVE",
"332 330 OFFCURVE",
"327 302 CURVE SMOOTH"
);
}
);
width = 462;
}
);
note = a;
unicode = 0061;
},
{
glyphname = ae;
lastChange = "2021-10-07 06:58:51 +0000";
layers = (
{
background = {
paths = (
{
closed = 1;
nodes = (
"712 157 OFFCURVE",
"661 157 OFFCURVE",
"661 124 CURVE SMOOTH",
"661 114 OFFCURVE",
"661 99 OFFCURVE",
"659 90 CURVE SMOOTH",
"648 43 OFFCURVE",
"569 22 OFFCURVE",
"524 22 CURVE SMOOTH",
"432 22 OFFCURVE",
"383 103 OFFCURVE",
"379 193 CURVE",
"454 167 OFFCURVE",
"546 187 OFFCURVE",
"609 231 CURVE SMOOTH",
"699 294 OFFCURVE",
"713 443 OFFCURVE",
"580 458 CURVE SMOOTH",
"523 465 OFFCURVE",
"463 447 OFFCURVE",
"405 401 CURVE",
"407 401 LINE",
"268 278 OFFCURVE",
"315 -29 OFFCURVE",
"524 -29 CURVE SMOOTH",
"592 -29 OFFCURVE",
"682 -1 OFFCURVE",
"707 73 CURVE SMOOTH",
"714 92 OFFCURVE",
"712 105 OFFCURVE",
"712 124 CURVE SMOOTH"
);
},
{
closed = 1;
nodes = (
"627 287 OFFCURVE",
"550 247 OFFCURVE",
"485 236 CURVE SMOOTH",
"454 231 OFFCURVE",
"412 233 OFFCURVE",
"383 246 CURVE",
"398 338 OFFCURVE",
"473 423 OFFCURVE",
"573 407 CURVE SMOOTH",
"602 403 OFFCURVE",
"627 387 OFFCURVE",
"627 358 CURVE SMOOTH"
);
}
);
};
hints = (
{
horizontal = 1;
place = "{-14, 24}";
type = Stem;
},
{
horizontal = 1;
place = "{389, -20}";
target = down;
type = TopGhost;
},
{
place = "{303, 24}";
type = Stem;
},
{
horizontal = 1;
place = "{-22, 46}";
type = Stem;
},
{
place = "{2, 40}";
type = Stem;
},
{
horizontal = 1;
place = "{-23, 40}";
type = Stem;
},
{
place = "{824, 42}";
type = Stem;
}
);
layerId = "2ADFC918-CAA7-4AF7-825A-5AAC412EF250";
paths = (
{
closed = 1;
nodes = (
"712 157 OFFCURVE",
"661 157 OFFCURVE",
"661 124 CURVE SMOOTH",
"661 114 OFFCURVE",
"661 99 OFFCURVE",
"659 90 CURVE SMOOTH",
"648 43 OFFCURVE",
"569 22 OFFCURVE",
"524 22 CURVE SMOOTH",
"432 22 OFFCURVE",
"383 103 OFFCURVE",
"379 193 CURVE",
"454 167 OFFCURVE",
"546 187 OFFCURVE",
"609 231 CURVE SMOOTH",
"699 294 OFFCURVE",
"713 443 OFFCURVE",
"580 458 CURVE SMOOTH",
"510 467 OFFCURVE",
"420 432 OFFCURVE",
"378 369 CURVE",
"352 477 OFFCURVE",
"210 489 OFFCURVE",
"125 432 CURVE SMOOTH",
"46 378 OFFCURVE",
"-4 280 OFFCURVE",
"-4 185 CURVE SMOOTH",
"-4 88 OFFCURVE",
"35 -28 OFFCURVE",
"154 -28 CURVE SMOOTH",
"232 -28 OFFCURVE",
"288 37 OFFCURVE",
"320 100 CURVE",
"335 141 LINE",
"355 49 OFFCURVE",
"419 -29 OFFCURVE",
"524 -29 CURVE SMOOTH",
"592 -29 OFFCURVE",
"682 -1 OFFCURVE",
"707 73 CURVE SMOOTH",
"714 92 OFFCURVE",
"712 105 OFFCURVE",
"712 124 CURVE SMOOTH"
);
},
{
closed = 1;
nodes = (
"602 403 OFFCURVE",
"627 387 OFFCURVE",
"627 358 CURVE SMOOTH",
"627 287 OFFCURVE",
"550 247 OFFCURVE",
"485 236 CURVE SMOOTH",
"454 231 OFFCURVE",
"412 233 OFFCURVE",
"383 246 CURVE",
"398 338 OFFCURVE",
"473 423 OFFCURVE",
"573 407 CURVE SMOOTH"
);
},
{
closed = 1;
nodes = (
"71 23 OFFCURVE",
"48 111 OFFCURVE",
"48 185 CURVE SMOOTH",
"48 263 OFFCURVE",
"91 345 OFFCURVE",
"155 389 CURVE SMOOTH",
"199 420 OFFCURVE",
"283 427 OFFCURVE",
"316 381 CURVE SMOOTH",
"333 357 OFFCURVE",
"332 330 OFFCURVE",
"327 302 CURVE SMOOTH",
"311 218 OFFCURVE",
"266 23 OFFCURVE",
"154 23 CURVE SMOOTH"
);
}
);
width = 722;
}
);
note = ae;
unicode = 00E6;
},
{
glyphname = b;
layers = (
{
hints = (
{
horizontal = 1;
place = "{393, 40}";
type = Stem;
},
{
place = "{27, 26}";
type = Stem;
}
);
layerId = "2ADFC918-CAA7-4AF7-825A-5AAC412EF250";
paths = (
{
closed = 1;
nodes = (
"420 217 OFFCURVE",
"420 284 OFFCURVE",
"397 336 CURVE SMOOTH",
"370 398 OFFCURVE",
"315 439 OFFCURVE",
"246 439 CURVE SMOOTH",
"152 439 OFFCURVE",
"94 374 OFFCURVE",
"60 298 CURVE",
"61 377 OFFCURVE",
"62 459 OFFCURVE",
"75 536 CURVE SMOOTH",
"77 550 OFFCURVE",
"87 614 OFFCURVE",
"105 620 CURVE SMOOTH",
"110 622 OFFCURVE",
"115 623 OFFCURVE",
"119 624 CURVE SMOOTH",
"151 636 OFFCURVE",
"137 670 OFFCURVE",
"103 671 CURVE",
"97 672 OFFCURVE",
"84 667 OFFCURVE",
"80 664 CURVE",
"40 644 OFFCURVE",
"30 584 OFFCURVE",
"23 545 CURVE SMOOTH",
"-2 401 OFFCURVE",
"7 243 OFFCURVE",
"7 97 CURVE SMOOTH",
"7 89 OFFCURVE",
"6 70 OFFCURVE",
"6 52 CURVE SMOOTH",
"6 34 OFFCURVE",
"6 15 OFFCURVE",
"7 9 CURVE SMOOTH",
"15 -32 OFFCURVE",
"57 -29 OFFCURVE",
"64 6 CURVE SMOOTH",
"65 11 OFFCURVE",
"65 26 OFFCURVE",
"66 40 CURVE SMOOTH",
"66 76 LINE",
"73 179 OFFCURVE",
"102 387 OFFCURVE",
"246 387 CURVE SMOOTH",
"295 387 OFFCURVE",
"329 359 OFFCURVE",
"349 315 CURVE SMOOTH",
"368 273 OFFCURVE",
"367 215 OFFCURVE",
"361 169 CURVE SMOOTH",
"354 122 OFFCURVE",
"321 72 OFFCURVE",
"281 46 CURVE SMOOTH",
"241 20 OFFCURVE",
"165 20 OFFCURVE",
"120 39 CURVE SMOOTH",
"66 63 OFFCURVE",
"64 7 OFFCURVE",
"102 -9 CURVE SMOOTH",
"164 -35 OFFCURVE",
"251 -33 OFFCURVE",
"308 3 CURVE SMOOTH",
"363 38 OFFCURVE",
"404 99 OFFCURVE",
"413 163 CURVE SMOOTH"
);
}
);
width = 437;
}
);
note = b;
unicode = 0062;
},
{
glyphname = c;
layers = (
{
hints = (
{
horizontal = 1;
place = "{-22, 40}";
type = Stem;
},
{
horizontal = 1;
place = "{406, 40}";
type = Stem;
},
{
place = "{363, 40}";
type = Stem;
}
);
layerId = "2ADFC918-CAA7-4AF7-825A-5AAC412EF250";
paths = (
{
closed = 1;
nodes = (
"511 173 OFFCURVE",
"470 190 OFFCURVE",
"457 157 CURVE SMOOTH",
"453 147 OFFCURVE",
"450 137 OFFCURVE",
"446 128 CURVE SMOOTH",
"418 55 OFFCURVE",
"314 19 OFFCURVE",
"244 23 CURVE SMOOTH",
"24 34 OFFCURVE",
"28 400 OFFCURVE",
"256 400 CURVE SMOOTH",
"306 400 OFFCURVE",
"379 341 OFFCURVE",
"350 300 CURVE SMOOTH",
"329 272 OFFCURVE",
"352 240 OFFCURVE",
"381 262 CURVE SMOOTH",
"399 276 OFFCURVE",
"408 296 OFFCURVE",
"408 318 CURVE SMOOTH",
"408 467 OFFCURVE",
"200 481 OFFCURVE",
"111 404 CURVE SMOOTH",
"-33 280 OFFCURVE",
"24 -28 OFFCURVE",
"243 -28 CURVE SMOOTH",
"341 -28 OFFCURVE",
"413 -11 OFFCURVE",
"475 75 CURVE SMOOTH",
"479 80 OFFCURVE",
"503 132 OFFCURVE",
"505 142 CURVE SMOOTH"
);
}
);
width = 481;
}
);
note = c;
unicode = 0063;
},
{
glyphname = d;
layers = (
{
hints = (
{
horizontal = 1;
place = "{-26, 52}";
type = Stem;
},
{
horizontal = 1;
place = "{414, 53}";
type = Stem;
},
{
place = "{21, 52}";
type = Stem;
},
{
place = "{377, 53}";
type = Stem;
}
);
layerId = "2ADFC918-CAA7-4AF7-825A-5AAC412EF250";
paths = (
{
closed = 1;
nodes = (
"459 -4 OFFCURVE",
"453 8 OFFCURVE",
"449 26 CURVE SMOOTH",
"433 90 OFFCURVE",
"428 190 OFFCURVE",
"428 257 CURVE SMOOTH",
"428 331 OFFCURVE",
"428 405 OFFCURVE",
"429 478 CURVE SMOOTH",
"429 517 OFFCURVE",
"430 553 OFFCURVE",
"430 580 CURVE SMOOTH",
"430 604 OFFCURVE",
"429 619 OFFCURVE",
"429 626 CURVE SMOOTH",
"429 653 OFFCURVE",
"378 652 OFFCURVE",
"378 626 CURVE SMOOTH",
"378 621 OFFCURVE",
"377 608 OFFCURVE",
"377 588 CURVE SMOOTH",
"377 424 LINE",
"376 425 LINE SMOOTH",
"320 481 OFFCURVE",
"237 475 OFFCURVE",
"172 444 CURVE SMOOTH",
"88 404 OFFCURVE",
"42 317 OFFCURVE",
"25 232 CURVE SMOOTH",
"4 123 OFFCURVE",
"68 -11 OFFCURVE",
"186 -26 CURVE SMOOTH",
"277 -37 OFFCURVE",
"346 13 OFFCURVE",
"386 84 CURVE",
"390 55 OFFCURVE",
"399 -4 OFFCURVE",
"412 -32 CURVE SMOOTH",
"446 -102 OFFCURVE",
"518 -45 OFFCURVE",
"468 -19 CURVE"
);
},
{
closed = 1;
nodes = (
"377 339 LINE SMOOTH",
"377 262 OFFCURVE",
"372 195 OFFCURVE",
"366 171 CURVE SMOOTH",
"342 83 OFFCURVE",
"288 20 OFFCURVE",
"192 26 CURVE SMOOTH",
"154 29 OFFCURVE",
"130 49 OFFCURVE",
"107 81 CURVE SMOOTH",
"79 120 OFFCURVE",
"67 174 OFFCURVE",
"76 222 CURVE SMOOTH",
"90 293 OFFCURVE",
"126 367 OFFCURVE",
"193 398 CURVE SMOOTH",
"239 420 OFFCURVE",
"304 423 OFFCURVE",
"342 386 CURVE SMOOTH",
"351 378 OFFCURVE",
"354 369 OFFCURVE",
"360 358 CURVE SMOOTH",
"364 351 OFFCURVE",
"370 346 OFFCURVE",
"377 344 CURVE"
);
}
);
width = 480;
}
);
note = d;
unicode = 0064;
},
{
glyphname = eth;
lastChange = "2021-10-07 03:10:03 +0000";
layers = (
{
hints = (
{
horizontal = 1;
place = "{457.621, 28.344}";
type = Stem;
}
);
layerId = "2ADFC918-CAA7-4AF7-825A-5AAC412EF250";
paths = (
{
closed = 1;
nodes = (
"324 606 OFFCURVE",
"334 613 OFFCURVE",
"343 621 CURVE SMOOTH",
"355 631 OFFCURVE",
"368 648 OFFCURVE",
"374 663 CURVE SMOOTH",
"386 692 OFFCURVE",
"344 700 OFFCURVE",
"326 670 CURVE",
"323 663 OFFCURVE",
"320 659 OFFCURVE",
"315 655 CURVE SMOOTH",
"302 644 OFFCURVE",
"289 634 OFFCURVE",
"275 624 CURVE",
"222 651 OFFCURVE",
"161 662 OFFCURVE",
"93 652 CURVE",
"58 643 OFFCURVE",
"58 596 OFFCURVE",
"98 604 CURVE SMOOTH",
"150 611 OFFCURVE",
"194 606 OFFCURVE",
"231 593 CURVE",
"203 573 OFFCURVE",
"159 540 OFFCURVE",
"147 516 CURVE SMOOTH",
"130 484 OFFCURVE",
"161 462 OFFCURVE",
"178 488 CURVE",
"188 496 OFFCURVE",
"193 508 OFFCURVE",
"202 515 CURVE SMOOTH",
"226 535 OFFCURVE",
"251 553 OFFCURVE",
"276 570 CURVE",
"330 536 OFFCURVE",
"367 480 OFFCURVE",
"391 421 CURVE",
"360 442 OFFCURVE",
"321 452 OFFCURVE",
"274 452 CURVE SMOOTH",
"158 452 OFFCURVE",
"48 320 OFFCURVE",
"48 182 CURVE SMOOTH",
"48 39 OFFCURVE",
"126 -40 OFFCURVE",
"266 -40 CURVE SMOOTH",
"396 -40 OFFCURVE",
"478 58 OFFCURVE",
"478 212 CURVE SMOOTH",
"478 377 OFFCURVE",
"417 522 OFFCURVE",
"315 599 CURVE"
);
},
{
closed = 1;
nodes = (
"151 8 OFFCURVE",
"94 66 OFFCURVE",
"94 182 CURVE SMOOTH",
"94 294 OFFCURVE",
"185 404 OFFCURVE",
"274 404 CURVE SMOOTH",
"389 404 OFFCURVE",
"432 333 OFFCURVE",
"432 212 CURVE SMOOTH",
"432 85 OFFCURVE",
"370 8 OFFCURVE",
"266 8 CURVE SMOOTH"
);
}
);
width = 531;
}
);
note = eth;
unicode = 00F0;
},
{
glyphname = e;
lastChange = "2021-10-07 06:59:11 +0000";
layers = (
{
hints = (
{
horizontal = 1;
place = "{-23, 40}";
type = Stem;
},
{
place = "{362, 42}";
type = Stem;
}
);
layerId = "2ADFC918-CAA7-4AF7-825A-5AAC412EF250";
paths = (
{
closed = 1;
nodes = (
"409 141 OFFCURVE",
"396 149 OFFCURVE",
"384 149 CURVE SMOOTH",
"371 149 OFFCURVE",
"358 141 OFFCURVE",
"358 124 CURVE SMOOTH",
"358 114 OFFCURVE",
"358 99 OFFCURVE",
"356 90 CURVE SMOOTH",
"345 43 OFFCURVE",
"266 22 OFFCURVE",
"221 22 CURVE SMOOTH",
"129 22 OFFCURVE",
"80 103 OFFCURVE",
"76 193 CURVE",
"99 185 OFFCURVE",
"123 181 OFFCURVE",
"148 181 CURVE SMOOTH",
"204 181 OFFCURVE",
"262 200 OFFCURVE",
"306 231 CURVE SMOOTH",
"349 262 OFFCURVE",
"375 312 OFFCURVE",
"375 357 CURVE SMOOTH",
"375 412 OFFCURVE",
"339 459 OFFCURVE",
"253 459 CURVE SMOOTH",
"203 459 OFFCURVE",
"152 441 OFFCURVE",
"102 401 CURVE SMOOTH",
"49 354 OFFCURVE",
"23 281 OFFCURVE",
"23 208 CURVE SMOOTH",
"23 89 OFFCURVE",
"92 -29 OFFCURVE",
"221 -29 CURVE SMOOTH",
"289 -29 OFFCURVE",
"379 -1 OFFCURVE",
"404 73 CURVE SMOOTH",
"411 92 OFFCURVE",
"409 105 OFFCURVE",
"409 124 CURVE SMOOTH"
);
},
{
closed = 1;
nodes = (
"324 287 OFFCURVE",
"247 247 OFFCURVE",
"182 236 CURVE SMOOTH",
"172 234 OFFCURVE",
"161 233 OFFCURVE",
"149 233 CURVE SMOOTH",
"125 233 OFFCURVE",
"100 237 OFFCURVE",
"80 246 CURVE",
"94 330 OFFCURVE",
"158 409 OFFCURVE",
"246 409 CURVE SMOOTH",
"254 409 OFFCURVE",
"262 408 OFFCURVE",
"270 407 CURVE SMOOTH",
"299 403 OFFCURVE",
"324 387 OFFCURVE",
"324 358 CURVE SMOOTH"
);
}
);
width = 419;
}
);
note = e;
unicode = 0065;
},
{
glyphname = f;
layers = (
{
hints = (
{
horizontal = 1;
place = "{-241, 40}";
type = Stem;
},
{
horizontal = 1;
place = "{408, 40}";
type = Stem;
},
{
horizontal = 1;
place = "{641, 40}";
type = Stem;
},
{
place = "{-119, 40}";
type = Stem;
},
{
place = "{82, 40}";
type = Stem;
}
);
layerId = "2ADFC918-CAA7-4AF7-825A-5AAC412EF250";
paths = (
{
closed = 1;
nodes = (
"290 707 OFFCURVE",
"132 717 OFFCURVE",
"93 620 CURVE SMOOTH",
"75 574 OFFCURVE",
"76 503 OFFCURVE",
"76 454 CURVE",
"26 454 LINE SMOOTH",
"9 454 OFFCURVE",
"1 440 OFFCURVE",
"1 428 CURVE SMOOTH",
"1 416 OFFCURVE",
"9 402 OFFCURVE",
"26 402 CURVE SMOOTH",
"76 402 LINE",
"77 346 OFFCURVE",
"78 289 OFFCURVE",
"78 233 CURVE SMOOTH",
"78 142 OFFCURVE",
"87 -83 OFFCURVE",
"51 -158 CURVE SMOOTH",
"31 -199 OFFCURVE",
"-14 -210 OFFCURVE",
"-50 -179 CURVE SMOOTH",
"-69 -163 OFFCURVE",
"-74 -128 OFFCURVE",
"-74 -102 CURVE SMOOTH",
"-74 -68 OFFCURVE",
"-125 -68 OFFCURVE",
"-125 -102 CURVE SMOOTH",
"-125 -142 OFFCURVE",
"-117 -189 OFFCURVE",
"-83 -218 CURVE SMOOTH",
"-23 -271 OFFCURVE",
"63 -252 OFFCURVE",
"97 -179 CURVE SMOOTH",
"141 -83 OFFCURVE",
"130 124 OFFCURVE",
"130 233 CURVE SMOOTH",
"130 289 OFFCURVE",
"129 346 OFFCURVE",
"128 402 CURVE",
"205 402 LINE SMOOTH",
"238 402 OFFCURVE",
"238 454 OFFCURVE",
"205 454 CURVE SMOOTH",
"128 454 LINE",
"127 491 OFFCURVE",
"126 569 OFFCURVE",
"141 601 CURVE SMOOTH",
"158 638 OFFCURVE",
"217 647 OFFCURVE",
"233 618 CURVE SMOOTH",
"237 610 OFFCURVE",
"238 602 OFFCURVE",
"241 593 CURVE SMOOTH",
"248 574 OFFCURVE",
"290 562 OFFCURVE",
"290 596 CURVE SMOOTH"
);
}
);
width = 275;
}
);
note = f;
unicode = 0066;
},
{
glyphname = g;
layers = (
{
hints = (
{
horizontal = 1;
place = "{-295, 40}";
type = Stem;
},
{
horizontal = 1;
place = "{-70, 40}";
type = Stem;
},
{
horizontal = 1;
place = "{34, 40}";
type = Stem;
},
{
horizontal = 1;
place = "{396, 40}";
type = Stem;
},
{
place = "{80, 40}";
type = Stem;
},
{
place = "{383, 40}";
type = Stem;
}
);
layerId = "2ADFC918-CAA7-4AF7-825A-5AAC412EF250";
paths = (
{
closed = 1;
nodes = (
"453 427 OFFCURVE",
"410 439 OFFCURVE",
"395 412 CURVE SMOOTH",
"391 406 OFFCURVE",
"387 398 OFFCURVE",
"381 390 CURVE",
"356 418 OFFCURVE",
"320 442 OFFCURVE",
"282 442 CURVE SMOOTH",
"276 442 OFFCURVE",
"270 441 OFFCURVE",
"264 440 CURVE",
"235 461 OFFCURVE",
"200 442 OFFCURVE",
"175 426 CURVE SMOOTH",
"115 387 OFFCURVE",
"75 306 OFFCURVE",
"75 236 CURVE SMOOTH",
"75 194 OFFCURVE",
"80 149 OFFCURVE",
"102 111 CURVE",
"102 110 LINE",
"110 96 OFFCURVE",
"118 85 OFFCURVE",
"127 76 CURVE",
"90 34 OFFCURVE",
"63 -54 OFFCURVE",
"84 -102 CURVE SMOOTH",
"96 -129 OFFCURVE",
"117 -119 OFFCURVE",
"134 -106 CURVE SMOOTH",
"142 -100 LINE SMOOTH",
"170 -79 OFFCURVE",
"211 -76 OFFCURVE",
"244 -76 CURVE SMOOTH",
"294 -76 OFFCURVE",
"378 -99 OFFCURVE",
"378 -158 CURVE SMOOTH",
"378 -259 OFFCURVE",
"198 -259 OFFCURVE",
"147 -231 CURVE SMOOTH",
"127 -220 OFFCURVE",
"109 -205 OFFCURVE",
"109 -184 CURVE SMOOTH",
"109 -150 OFFCURVE",
"57 -150 OFFCURVE",
"57 -184 CURVE SMOOTH",
"57 -339 OFFCURVE",
"429 -353 OFFCURVE",
"429 -158 CURVE SMOOTH",
"429 -13 OFFCURVE",
"221 -3 OFFCURVE",
"128 -49 CURVE",
"131 -15 OFFCURVE",
"148 19 OFFCURVE",
"170 45 CURVE",
"193 34 OFFCURVE",
"219 28 OFFCURVE",
"247 28 CURVE SMOOTH",
"365 28 OFFCURVE",
"433 129 OFFCURVE",
"433 237 CURVE SMOOTH",
"433 274 OFFCURVE",
"428 311 OFFCURVE",
"412 345 CURVE",
"426 361 OFFCURVE",
"439 379 OFFCURVE",
"443 394 CURVE SMOOTH"
);
},
{
closed = 1;
nodes = (
"320 325 OFFCURVE",
"265 303 OFFCURVE",
"242 331 CURVE SMOOTH",
"231 345 OFFCURVE",
"237 367 OFFCURVE",
"251 378 CURVE SMOOTH",
"261 386 OFFCURVE",
"273 390 OFFCURVE",
"285 391 CURVE SMOOTH",
"301 392 OFFCURVE",
"330 370 OFFCURVE",
"348 350 CURVE"
);
},
{
closed = 1;
nodes = (
"381 155 OFFCURVE",
"334 80 OFFCURVE",
"247 80 CURVE SMOOTH",
"205 80 OFFCURVE",
"173 95 OFFCURVE",
"142 145 CURVE",
"130 173 OFFCURVE",
"126 206 OFFCURVE",
"126 236 CURVE SMOOTH",
"126 284 OFFCURVE",
"151 336 OFFCURVE",
"187 369 CURVE",
"180 346 OFFCURVE",
"183 320 OFFCURVE",
"203 298 CURVE SMOOTH",
"248 246 OFFCURVE",
"328 268 OFFCURVE",
"373 304 CURVE",
"380 283 OFFCURVE",
"381 260 OFFCURVE",
"381 237 CURVE SMOOTH"
);
}
);
width = 499;
}
);
note = g;
unicode = 0067;
},
{
glyphname = h;
layers = (
{
hints = (
{
place = "{46, 40}";
type = Stem;
},
{
place = "{336, 40}";
type = Stem;
}
);
layerId = "2ADFC918-CAA7-4AF7-825A-5AAC412EF250";
paths = (
{
closed = 1;
nodes = (
"464 -29 OFFCURVE",
"464 22 OFFCURVE",
"430 22 CURVE SMOOTH",
"397 22 OFFCURVE",
"385 44 OFFCURVE",
"381 75 CURVE SMOOTH",
"376 107 OFFCURVE",
"381 139 OFFCURVE",
"381 171 CURVE SMOOTH",
"381 229 OFFCURVE",
"392 287 OFFCURVE",
"385 345 CURVE SMOOTH",
"377 406 OFFCURVE",
"345 459 OFFCURVE",
"277 467 CURVE SMOOTH",
"192 478 OFFCURVE",
"129 422 OFFCURVE",
"91 354 CURVE",
"91 392 LINE SMOOTH",
"91 448 OFFCURVE",
"98 584 OFFCURVE",
"132 628 CURVE SMOOTH",
"146 646 OFFCURVE",
"153 648 OFFCURVE",
"177 648 CURVE SMOOTH",
"210 648 OFFCURVE",
"210 699 OFFCURVE",
"177 699 CURVE SMOOTH",
"140 699 OFFCURVE",
"112 689 OFFCURVE",
"90 658 CURVE SMOOTH",
"46 598 OFFCURVE",
"40 461 OFFCURVE",
"40 392 CURVE SMOOTH",
"40 216 LINE SMOOTH",
"40 203 OFFCURVE",
"41 13 OFFCURVE",
"42 -1 CURVE SMOOTH",
"43 -27 OFFCURVE",
"94 -25 OFFCURVE",
"94 0 CURVE SMOOTH",
"94 115 OFFCURVE",
"83 269 OFFCURVE",
"160 365 CURVE SMOOTH",
"189 401 OFFCURVE",
"224 422 OFFCURVE",
"270 415 CURVE SMOOTH",
"318 408 OFFCURVE",
"325 381 OFFCURVE",
"333 336 CURVE",
"334 336 LINE",
"342 282 OFFCURVE",
"332 227 OFFCURVE",
"330 173 CURVE SMOOTH",
"326 97 OFFCURVE",
"316 -29 OFFCURVE",
"430 -29 CURVE SMOOTH"
);
}
);
width = 457;
}
);
note = h;
unicode = 0068;
},
{
glyphname = i;
layers = (
{
hints = (
{
horizontal = 1;
place = "{523, 82}";
type = Stem;
},
{
place = "{52, 40}";
type = Stem;
}
);
layerId = "2ADFC918-CAA7-4AF7-825A-5AAC412EF250";
paths = (
{
closed = 1;
nodes = (
"131 582 OFFCURVE",
"111 604 OFFCURVE",
"87 604 CURVE SMOOTH",
"62 604 OFFCURVE",
"42 582 OFFCURVE",
"42 557 CURVE SMOOTH",
"42 531 OFFCURVE",
"62 510 OFFCURVE",
"87 510 CURVE SMOOTH",
"111 510 OFFCURVE",
"131 531 OFFCURVE",
"131 557 CURVE SMOOTH"
);
},
{
closed = 1;
nodes = (
"268 109 OFFCURVE",
"222 125 OFFCURVE",
"209 95 CURVE SMOOTH",
"204 85 OFFCURVE",
"200 75 OFFCURVE",
"195 66 CURVE SMOOTH",
"184 45 OFFCURVE",
"147 -3 OFFCURVE",
"120 22 CURVE SMOOTH",
"90 50 OFFCURVE",
"97 123 OFFCURVE",
"106 204 CURVE SMOOTH",
"111 243 OFFCURVE",
"115 284 OFFCURVE",
"116 319 CURVE SMOOTH",
"117 354 OFFCURVE",
"113 385 OFFCURVE",
"98 406 CURVE SMOOTH",
"89 419 OFFCURVE",
"73 432 OFFCURVE",
"55 432 CURVE SMOOTH",
"41 432 OFFCURVE",
"30 423 OFFCURVE",
"30 410 CURVE SMOOTH",
"30 398 OFFCURVE",
"39 386 OFFCURVE",
"56 378 CURVE",
"64 370 OFFCURVE",
"66 350 OFFCURVE",
"64 318 CURVE SMOOTH",
"58 228 OFFCURVE",
"16 51 OFFCURVE",
"84 -15 CURVE SMOOTH",
"155 -83 OFFCURVE",
"238 18 OFFCURVE",
"257 77 CURVE SMOOTH"
);
}
);
width = 250;
}
);
note = i;
unicode = 0069;
},
{
color = 11;
glyphname = idotless;
lastChange = "2021-10-07 03:50:24 +0000";
layers = (
{
anchors = (
{
name = bottom;
position = "{116, 0}";
},
{
name = ogonek;
position = "{152, -25}";
},
{
name = top;
position = "{69, 484}";
}
);
hints = (
{
horizontal = 1;
place = "{-38, 53}";
type = Stem;
},
{
place = "{64, 52}";
type = Stem;
}
);
layerId = "2ADFC918-CAA7-4AF7-825A-5AAC412EF250";
paths = (
{
closed = 1;
nodes = (
"268 109 OFFCURVE",
"222 125 OFFCURVE",
"209 95 CURVE SMOOTH",
"204 85 OFFCURVE",
"200 75 OFFCURVE",
"195 66 CURVE SMOOTH",
"184 45 OFFCURVE",
"147 -3 OFFCURVE",
"120 22 CURVE SMOOTH",
"90 50 OFFCURVE",
"97 123 OFFCURVE",
"106 204 CURVE SMOOTH",
"111 243 OFFCURVE",
"115 284 OFFCURVE",
"116 319 CURVE SMOOTH",
"117 354 OFFCURVE",
"113 385 OFFCURVE",
"98 406 CURVE SMOOTH",
"89 419 OFFCURVE",
"73 432 OFFCURVE",
"55 432 CURVE SMOOTH",
"41 432 OFFCURVE",
"30 423 OFFCURVE",
"30 410 CURVE SMOOTH",
"30 398 OFFCURVE",
"39 386 OFFCURVE",
"56 378 CURVE",
"64 370 OFFCURVE",
"66 350 OFFCURVE",
"64 318 CURVE SMOOTH",
"58 228 OFFCURVE",
"16 51 OFFCURVE",
"84 -15 CURVE SMOOTH",
"155 -83 OFFCURVE",
"238 18 OFFCURVE",
"257 77 CURVE SMOOTH"
);
}
);
width = 231;
}
);
note = dotlessi;
unicode = 0131;
},
{
glyphname = j;
layers = (
{
hints = (
{
horizontal = 1;
place = "{-73, 40}";
type = Stem;
},
{
horizontal = 1;
place = "{523, 82}";
type = Stem;
},
{
place = "{106, 40}";
type = Stem;
}
);
layerId = "2ADFC918-CAA7-4AF7-825A-5AAC412EF250";
paths = (
{
closed = 1;
nodes = (
"226 -75 OFFCURVE",
"222 -61 OFFCURVE",
"203 -47 CURVE SMOOTH",
"192 -39 OFFCURVE",
"171 -34 OFFCURVE",
"149 -31 CURVE",
"151 -13 OFFCURVE",
"152 5 OFFCURVE",
"152 22 CURVE SMOOTH",
"152 120 OFFCURVE",
"154 218 OFFCURVE",
"154 316 CURVE SMOOTH",
"154 329 OFFCURVE",
"153 423 OFFCURVE",
"151 433 CURVE SMOOTH",
"144 456 OFFCURVE",
"116 459 OFFCURVE",
"103 435 CURVE SMOOTH",
"96 423 OFFCURVE",
"103 336 OFFCURVE",
"103 316 CURVE SMOOTH",
"103 218 OFFCURVE",
"101 120 OFFCURVE",
"101 22 CURVE SMOOTH",
"101 5 OFFCURVE",
"100 -11 OFFCURVE",
"98 -27 CURVE",
"67 -27 LINE SMOOTH",
"-25 -27 OFFCURVE",
"-126 -76 OFFCURVE",
"-177 -155 CURVE SMOOTH",
"-245 -261 OFFCURVE",
"-158 -301 OFFCURVE",
"-106 -298 CURVE SMOOTH",
"5 -292 OFFCURVE",
"116 -190 OFFCURVE",
"143 -86 CURVE",
"154 -86 LINE SMOOTH",
"173 -86 OFFCURVE",
"192 -96 OFFCURVE",
"211 -84 CURVE SMOOTH"
);
},
{
closed = 1;
nodes = (
"88 -78 LINE",
"64 -165 OFFCURVE",
"-13 -247 OFFCURVE",
"-108 -247 CURVE SMOOTH",
"-172 -247 OFFCURVE",
"-142 -196 OFFCURVE",
"-134 -182 CURVE SMOOTH",
"-104 -131 OFFCURVE",
"-4 -78 OFFCURVE",
"67 -78 CURVE SMOOTH"
);
},
{
closed = 1;
nodes = (
"161 589 OFFCURVE",
"142 611 OFFCURVE",
"117 611 CURVE SMOOTH",
"92 611 OFFCURVE",
"73 589 OFFCURVE",
"73 564 CURVE SMOOTH",
"73 538 OFFCURVE",
"92 517 OFFCURVE",
"117 517 CURVE SMOOTH",
"142 517 OFFCURVE",
"161 538 OFFCURVE",
"161 564 CURVE SMOOTH"
);
}
);
width = 218;
}
);
note = j;
unicode = 006A;
},
{
color = 11;
glyphname = jdotless;
lastChange = "2021-10-07 03:50:24 +0000";
layers = (
{
hints = (
{
horizontal = 1;
place = "{-73, 40}";
type = Stem;
},
{
horizontal = 1;
place = "{523, 82}";
type = Stem;
},
{
place = "{106, 40}";
type = Stem;
}
);
layerId = "2ADFC918-CAA7-4AF7-825A-5AAC412EF250";
paths = (
{
closed = 1;
nodes = (
"226 -75 OFFCURVE",
"222 -61 OFFCURVE",
"203 -47 CURVE SMOOTH",
"192 -39 OFFCURVE",
"171 -34 OFFCURVE",
"149 -31 CURVE",
"151 -13 OFFCURVE",
"152 5 OFFCURVE",
"152 22 CURVE SMOOTH",
"152 120 OFFCURVE",
"154 218 OFFCURVE",
"154 316 CURVE SMOOTH",
"154 329 OFFCURVE",
"153 423 OFFCURVE",
"151 433 CURVE SMOOTH",
"144 456 OFFCURVE",
"116 459 OFFCURVE",
"103 435 CURVE SMOOTH",
"96 423 OFFCURVE",
"103 336 OFFCURVE",
"103 316 CURVE SMOOTH",
"103 218 OFFCURVE",
"101 120 OFFCURVE",
"101 22 CURVE SMOOTH",
"101 5 OFFCURVE",
"100 -11 OFFCURVE",
"98 -27 CURVE",
"67 -27 LINE SMOOTH",
"-25 -27 OFFCURVE",
"-126 -76 OFFCURVE",
"-177 -155 CURVE SMOOTH",
"-245 -261 OFFCURVE",
"-158 -301 OFFCURVE",
"-106 -298 CURVE SMOOTH",
"5 -292 OFFCURVE",
"116 -190 OFFCURVE",
"143 -86 CURVE",
"154 -86 LINE SMOOTH",
"173 -86 OFFCURVE",
"192 -96 OFFCURVE",
"211 -84 CURVE SMOOTH"
);
},
{
closed = 1;
nodes = (
"88 -78 LINE",
"64 -165 OFFCURVE",
"-13 -247 OFFCURVE",
"-108 -247 CURVE SMOOTH",
"-172 -247 OFFCURVE",
"-142 -196 OFFCURVE",
"-134 -182 CURVE SMOOTH",
"-104 -131 OFFCURVE",
"-4 -78 OFFCURVE",
"67 -78 CURVE SMOOTH"
);
}
);
width = 218;
}
);
unicode = 0237;
},
{
glyphname = k;
layers = (
{
hints = (
{
horizontal = 1;
place = "{-28, 40}";
type = Stem;
},
{
place = "{35, 40}";
type = Stem;
}
);
layerId = "2ADFC918-CAA7-4AF7-825A-5AAC412EF250";
paths = (
{
closed = 1;
nodes = (
"465 157 OFFCURVE",
"423 171 OFFCURVE",
"410 140 CURVE SMOOTH",
"388 91 OFFCURVE",
"375 18 OFFCURVE",
"305 18 CURVE SMOOTH",
"303 18 LINE SMOOTH",
"244 18 OFFCURVE",
"199 160 OFFCURVE",
"186 213 CURVE",
"239 233 OFFCURVE",
"332 282 OFFCURVE",
"350 342 CURVE SMOOTH",
"362 383 OFFCURVE",
"346 436 OFFCURVE",
"300 448 CURVE SMOOTH",
"194 477 OFFCURVE",
"119 392 OFFCURVE",
"81 308 CURVE",
"80 389 OFFCURVE",
"77 473 OFFCURVE",
"98 552 CURVE SMOOTH",
"105 579 OFFCURVE",
"123 627 OFFCURVE",
"147 638 CURVE SMOOTH",
"165 646 OFFCURVE",
"171 642 OFFCURVE",
"188 638 CURVE SMOOTH",
"221 629 OFFCURVE",
"234 672 OFFCURVE",
"206 686 CURVE SMOOTH",
"182 698 OFFCURVE",
"147 697 OFFCURVE",
"123 683 CURVE SMOOTH",
"61 648 OFFCURVE",
"38 575 OFFCURVE",
"30 485 CURVE SMOOTH",
"22 395 OFFCURVE",
"29 286 OFFCURVE",
"29 175 CURVE SMOOTH",
"29 159 OFFCURVE",
"31 10 OFFCURVE",
"34 0 CURVE SMOOTH",
"43 -25 OFFCURVE",
"85 -21 OFFCURVE",
"85 4 CURVE SMOOTH",
"85 39 OFFCURVE",
"87 75 OFFCURVE",
"87 111 CURVE SMOOTH",
"87 172 OFFCURVE",
"115 270 OFFCURVE",
"147 322 CURVE SMOOTH",
"177 372 OFFCURVE",
"229 412 OFFCURVE",
"288 399 CURVE SMOOTH",
"301 396 OFFCURVE",
"305 371 OFFCURVE",
"300 356 CURVE SMOOTH",
"288 317 OFFCURVE",
"185 264 OFFCURVE",
"148 254 CURVE SMOOTH",
"132 249 OFFCURVE",
"129 239 OFFCURVE",
"130 224 CURVE SMOOTH",
"131 208 OFFCURVE",
"157 131 OFFCURVE",
"163 115 CURVE SMOOTH",
"187 54 OFFCURVE",
"225 -34 OFFCURVE",
"308 -34 CURVE SMOOTH",
"390 -34 OFFCURVE",
"444 55 OFFCURVE",
"458 125 CURVE SMOOTH"
);
}
);
width = 464;
}
);
note = k;
unicode = 006B;
},
{
glyphname = kgreenlandic;
lastChange = "2021-10-07 07:08:41 +0000";
layers = (
{
anchors = (
{
name = top;
position = "{691, 752}";
}
);
hints = (
{
horizontal = 1;
place = "{306, 73}";
type = Stem;
},
{
horizontal = 1;
place = "{475, 36}";
type = Stem;
},
{
horizontal = 1;
place = "{679, 37}";
type = Stem;
},
{
place = "{9, 37}";
type = Stem;
},
{
place = "{500, 39}";
type = Stem;
}
);
layerId = "2ADFC918-CAA7-4AF7-825A-5AAC412EF250";
paths = (
{
closed = 1;
nodes = (
"92 462 OFFCURVE",
"89 398 OFFCURVE",
"89 335 CURVE SMOOTH",
"89 194 OFFCURVE",
"94 97 OFFCURVE",
"74 2 CURVE SMOOTH",
"70 -16 OFFCURVE",
"106 -42 OFFCURVE",
"120 -13 CURVE SMOOTH",
"132 11 OFFCURVE",
"139 84 OFFCURVE",
"140 158 CURVE",
"156 138 OFFCURVE",
"183 111 OFFCURVE",
"208 87 CURVE SMOOTH",
"262 34 OFFCURVE",
"324 -2 OFFCURVE",
"359 -15 CURVE SMOOTH",
"386 -25 OFFCURVE",
"415 11 OFFCURVE",
"368 33 CURVE SMOOTH",
"332 50 OFFCURVE",
"290 75 OFFCURVE",
"243 122 CURVE SMOOTH",
"211 153 OFFCURVE",
"180 192 OFFCURVE",
"164 212 CURVE",
"185 226 OFFCURVE",
"210 241 OFFCURVE",
"252 277 CURVE SMOOTH",
"297 316 OFFCURVE",
"345 368 OFFCURVE",
"379 428 CURVE SMOOTH",
"394 455 OFFCURVE",
"347 482 OFFCURVE",
"332 454 CURVE SMOOTH",
"303 398 OFFCURVE",
"260 351 OFFCURVE",
"219 316 CURVE SMOOTH",
"186 288 OFFCURVE",
"158 268 OFFCURVE",
"138 254 CURVE",
"140 281 OFFCURVE",
"141 308 OFFCURVE",
"141 335 CURVE SMOOTH",
"141 408 OFFCURVE",
"142 469 OFFCURVE",
"147 516 CURVE SMOOTH",
"150 547 OFFCURVE",
"99 552 OFFCURVE",
"96 511 CURVE SMOOTH"
);
}
);
width = 398;
}
);
unicode = 0138;
},
{
glyphname = l;
layers = (
{
hints = (
{
horizontal = 1;
place = "{630, 40}";
type = Stem;
},
{
place = "{75, 40}";
type = Stem;
}
);
layerId = "2ADFC918-CAA7-4AF7-825A-5AAC412EF250";
paths = (
{
closed = 1;
nodes = (
"277 110 OFFCURVE",
"232 122 OFFCURVE",
"218 95 CURVE SMOOTH",
"208 75 OFFCURVE",
"177 13 OFFCURVE",
"149 26 CURVE SMOOTH",
"122 39 OFFCURVE",
"120 115 OFFCURVE",
"120 138 CURVE SMOOTH",
"120 164 LINE",
"142 163 OFFCURVE",
"170 192 OFFCURVE",
"182 207 CURVE SMOOTH",
"258 298 OFFCURVE",
"274 482 OFFCURVE",
"242 593 CURVE SMOOTH",
"232 626 OFFCURVE",
"208 680 OFFCURVE",
"161 676 CURVE SMOOTH",
"62 669 OFFCURVE",
"69 370 OFFCURVE",
"69 302 CURVE SMOOTH",
"69 138 LINE SMOOTH",
"69 91 OFFCURVE",
"73 9 OFFCURVE",
"125 -19 CURVE SMOOTH",
"190 -55 OFFCURVE",
"251 28 OFFCURVE",
"266 77 CURVE SMOOTH"
);
},
{
closed = 1;
nodes = (
"234 533 OFFCURVE",
"203 311 OFFCURVE",
"143 240 CURVE SMOOTH",
"136 232 OFFCURVE",
"129 226 OFFCURVE",
"120 220 CURVE",
"120 302 LINE SMOOTH",
"120 372 OFFCURVE",
"121 513 OFFCURVE",
"140 579 CURVE SMOOTH",
"144 593 OFFCURVE",
"149 607 OFFCURVE",
"156 619 CURVE SMOOTH",
"161 628 OFFCURVE",
"166 628 OFFCURVE",
"175 615 CURVE SMOOTH"
);
}
);
width = 288;
}
);
note = l;
unicode = 006C;
},
{
glyphname = m;
layers = (
{
hints = (
{
horizontal = 1;
place = "{403, 40}";
type = Stem;
},
{
place = "{20, 40}";
type = Stem;
},
{
place = "{528, 40}";
type = Stem;
}
);
layerId = "2ADFC918-CAA7-4AF7-825A-5AAC412EF250";
paths = (
{
closed = 1;
nodes = (
"654 -16 OFFCURVE",
"650 26 OFFCURVE",
"616 26 CURVE SMOOTH",
"605 26 OFFCURVE",
"595 24 OFFCURVE",
"585 31 CURVE SMOOTH",
"571 40 OFFCURVE",
"574 135 OFFCURVE",
"574 154 CURVE SMOOTH",
"574 222 OFFCURVE",
"587 293 OFFCURVE",
"566 358 CURVE SMOOTH",
"547 417 OFFCURVE",
"496 449 OFFCURVE",
"436 449 CURVE SMOOTH",
"358 449 OFFCURVE",
"320 379 OFFCURVE",
"300 315 CURVE",
"281 386 OFFCURVE",
"246 449 OFFCURVE",
"179 449 CURVE SMOOTH",
"128 449 OFFCURVE",
"92 421 OFFCURVE",
"68 383 CURVE",
"68 427 LINE SMOOTH",
"68 460 OFFCURVE",
"16 460 OFFCURVE",
"16 427 CURVE SMOOTH",
"16 357 OFFCURVE",
"15 287 OFFCURVE",
"15 218 CURVE SMOOTH",
"14 148 OFFCURVE",
"12 77 OFFCURVE",
"14 7 CURVE SMOOTH",
"15 -14 OFFCURVE",
"64 -26 OFFCURVE",
"65 7 CURVE SMOOTH",
"66 55 OFFCURVE",
"65 104 OFFCURVE",
"67 152 CURVE SMOOTH",
"73 272 OFFCURVE",
"97 398 OFFCURVE",
"179 398 CURVE SMOOTH",
"251 398 OFFCURVE",
"268 239 OFFCURVE",
"271 146 CURVE",
"269 129 OFFCURVE",
"264 -1 OFFCURVE",
"273 -11 CURVE SMOOTH",
"282 -20 OFFCURVE",
"304 -19 OFFCURVE",
"313 -11 CURVE SMOOTH",
"325 0 OFFCURVE",
"323 88 OFFCURVE",
"323 108 CURVE SMOOTH",
"323 163 OFFCURVE",
"330 217 OFFCURVE",
"343 271 CURVE SMOOTH",
"355 320 OFFCURVE",
"381 398 OFFCURVE",
"436 398 CURVE SMOOTH",
"481 398 OFFCURVE",
"499 382 OFFCURVE",
"517 340 CURVE SMOOTH",
"522 328 OFFCURVE",
"524 298 OFFCURVE",
"524 262 CURVE SMOOTH",
"524 226 OFFCURVE",
"523 186 OFFCURVE",
"523 154 CURVE SMOOTH",
"523 106 OFFCURVE",
"513 33 OFFCURVE",
"549 -6 CURVE SMOOTH",
"567 -25 OFFCURVE",
"599 -33 OFFCURVE",
"624 -25 CURVE SMOOTH"
);
}
);
width = 644;
}
);
note = m;
unicode = 006D;
},
{
glyphname = n;
layers = (
{
hints = (
{
horizontal = 1;
place = "{-33, 40}";
type = Stem;
},
{
horizontal = 1;
place = "{411, 40}";
type = Stem;
},
{
place = "{41, 40}";
type = Stem;
},
{
place = "{311, 40}";
type = Stem;
}
);
layerId = "2ADFC918-CAA7-4AF7-825A-5AAC412EF250";
paths = (
{
closed = 1;
nodes = (
"507 44 OFFCURVE",
"453 59 OFFCURVE",
"437 21 CURVE",
"421 7 OFFCURVE",
"379 12 OFFCURVE",
"365 32 CURVE SMOOTH",
"335 72 OFFCURVE",
"371 282 OFFCURVE",
"353 357 CURVE SMOOTH",
"337 424 OFFCURVE",
"284 457 OFFCURVE",
"218 457 CURVE SMOOTH",
"156 457 OFFCURVE",
"114 407 OFFCURVE",
"88 352 CURVE",
"83 409 OFFCURVE",
"71 467 OFFCURVE",
"48 483 CURVE SMOOTH",
"19 503 OFFCURVE",
"-4 462 OFFCURVE",
"19 442 CURVE",
"34 412 OFFCURVE",
"38 326 OFFCURVE",
"38 236 CURVE SMOOTH",
"38 147 OFFCURVE",
"33 57 OFFCURVE",
"32 24 CURVE SMOOTH",
"32 20 OFFCURVE",
"31 15 OFFCURVE",
"31 10 CURVE SMOOTH",
"31 -30 OFFCURVE",
"83 -16 OFFCURVE",
"83 5 CURVE SMOOTH",
"83 112 OFFCURVE",
"80 237 OFFCURVE",
"131 334 CURVE SMOOTH",
"150 370 OFFCURVE",
"177 406 OFFCURVE",
"218 406 CURVE SMOOTH",
"268 406 OFFCURVE",
"293 388 OFFCURVE",
"304 345 CURVE SMOOTH",
"309 326 OFFCURVE",
"309 301 OFFCURVE",
"308 272 CURVE SMOOTH",
"304 195 OFFCURVE",
"282 68 OFFCURVE",
"323 4 CURVE SMOOTH",
"342 -27 OFFCURVE",
"376 -39 OFFCURVE",
"409 -39 CURVE SMOOTH",
"435 -39 OFFCURVE",
"466 -32 OFFCURVE",
"480 -5 CURVE SMOOTH"
);
}
);
width = 465;
}
);
note = n;
unicode = 006E;
},
{
glyphname = eng;
lastChange = "2021-10-09 07:16:02 +0000";
layers = (
{
hints = (
{
horizontal = 1;
place = "{-33, 40}";
type = Stem;
},
{
horizontal = 1;
place = "{411, 40}";
type = Stem;
},
{
place = "{41, 40}";
type = Stem;
},
{
place = "{311, 40}";
type = Stem;
}
);
layerId = "2ADFC918-CAA7-4AF7-825A-5AAC412EF250";
paths = (
{
closed = 1;
nodes = (
"337 424 OFFCURVE",
"284 457 OFFCURVE",
"218 457 CURVE SMOOTH",
"156 457 OFFCURVE",
"114 407 OFFCURVE",
"88 352 CURVE",
"83 409 OFFCURVE",
"71 467 OFFCURVE",
"48 483 CURVE SMOOTH",
"19 503 OFFCURVE",
"-4 462 OFFCURVE",
"19 442 CURVE",
"34 412 OFFCURVE",
"38 326 OFFCURVE",
"38 236 CURVE SMOOTH",
"38 147 OFFCURVE",
"33 57 OFFCURVE",
"32 24 CURVE SMOOTH",
"32 20 OFFCURVE",
"31 15 OFFCURVE",
"31 10 CURVE SMOOTH",
"31 -30 OFFCURVE",
"83 -16 OFFCURVE",
"83 5 CURVE SMOOTH",
"83 112 OFFCURVE",
"80 237 OFFCURVE",
"131 334 CURVE SMOOTH",
"150 370 OFFCURVE",
"177 406 OFFCURVE",
"218 406 CURVE SMOOTH",
"268 406 OFFCURVE",
"293 388 OFFCURVE",
"304 345 CURVE SMOOTH",
"309 325 OFFCURVE",
"309 252 OFFCURVE",
"307 216 CURVE SMOOTH",
"306 121 OFFCURVE",
"298 -78 OFFCURVE",
"292 -130 CURVE SMOOTH",
"281 -235 OFFCURVE",
"237 -291 OFFCURVE",
"160 -291 CURVE SMOOTH",
"102 -291 OFFCURVE",
"60 -249 OFFCURVE",
"60 -194 CURVE SMOOTH",
"60 -183 OFFCURVE",
"63 -171 OFFCURVE",
"63 -166 CURVE SMOOTH",
"63 -153 OFFCURVE",
"53 -146 OFFCURVE",
"43 -146 CURVE SMOOTH",
"32 -146 OFFCURVE",
"20 -154 OFFCURVE",
"17 -170 CURVE SMOOTH",
"16 -178 OFFCURVE",
"15 -186 OFFCURVE",
"15 -193 CURVE SMOOTH",
"15 -272 OFFCURVE",
"77 -335 OFFCURVE",
"160 -335 CURVE SMOOTH",
"262 -335 OFFCURVE",
"328 -261 OFFCURVE",
"342 -134 CURVE SMOOTH",
"348 -82 OFFCURVE",
"357 121 OFFCURVE",
"358 216 CURVE SMOOTH",
"360 267 OFFCURVE",
"360 329 OFFCURVE",
"353 357 CURVE SMOOTH"
);
}
);
width = 465;
}
);
unicode = 014B;
},
{
glyphname = o;
layers = (
{
hints = (
{
horizontal = 1;
place = "{-34, 40}";
type = Stem;
},
{
horizontal = 1;
place = "{277, 40}";
type = Stem;
},
{
place = "{29, 40}";
type = Stem;
},
{
place = "{397, 40}";
type = Stem;
}
);
layerId = "2ADFC918-CAA7-4AF7-825A-5AAC412EF250";
paths = (
{
closed = 1;
nodes = (
"443 257 OFFCURVE",
"433 311 OFFCURVE",
"410 358 CURVE",
"419 375 OFFCURVE",
"426 394 OFFCURVE",
"426 414 CURVE SMOOTH",
"426 447 OFFCURVE",
"374 447 OFFCURVE",
"374 414 CURVE SMOOTH",
"374 411 LINE",
"356 430 LINE",
"315 467 OFFCURVE",
"251 485 OFFCURVE",
"198 462 CURVE",
"94 475 OFFCURVE",
"23 285 OFFCURVE",
"23 211 CURVE SMOOTH",
"23 85 OFFCURVE",
"83 -40 OFFCURVE",
"228 -40 CURVE SMOOTH",
"362 -40 OFFCURVE",
"443 83 OFFCURVE",
"443 206 CURVE SMOOTH"
);
},
{
closed = 1;
nodes = (
"392 109 OFFCURVE",
"331 12 OFFCURVE",
"228 12 CURVE SMOOTH",
"117 12 OFFCURVE",
"75 110 OFFCURVE",
"75 211 CURVE SMOOTH",
"75 266 OFFCURVE",
"99 331 OFFCURVE",
"138 374 CURVE",
"136 323 OFFCURVE",
"171 271 OFFCURVE",
"244 271 CURVE SMOOTH",
"290 271 OFFCURVE",
"336 285 OFFCURVE",
"372 315 CURVE",
"386 280 OFFCURVE",
"392 242 OFFCURVE",
"392 206 CURVE SMOOTH"
);
},
{
closed = 1;
nodes = (
"320 335 OFFCURVE",
"282 323 OFFCURVE",
"244 323 CURVE SMOOTH",
"208 323 OFFCURVE",
"181 349 OFFCURVE",
"190 384 CURVE SMOOTH",
"202 435 OFFCURVE",
"287 423 OFFCURVE",
"322 391 CURVE SMOOTH",
"331 382 OFFCURVE",
"340 372 OFFCURVE",
"347 361 CURVE"
);
}
);
width = 477;
}
);
note = o;
unicode = 006F;
},
{
glyphname = oslash;
layers = (
{
hints = (
{
horizontal = 1;
place = "{-22, 35}";
type = Stem;
},
{
horizontal = 1;
place = "{367, 17}";
type = Stem;
},
{
horizontal = 1;
place = "{436, -20}";
target = down;
type = TopGhost;
},
{
place = "{16, 34}";
type = Stem;
},
{
place = "{146, 34}";
type = Stem;
},
{
place = "{315, 34}";
type = Stem;
},
{
place = "{354, 51}";
type = Stem;
},
{
horizontal = 1;
place = "{418, 51}";
type = Stem;
},
{
place = "{19, 50}";
type = Stem;
},
{
place = "{373, 33}";
type = Stem;
}
);
layerId = "2ADFC918-CAA7-4AF7-825A-5AAC412EF250";
paths = (
{
closed = 1;
nodes = (
"411 498 OFFCURVE",
"368 498 OFFCURVE",
"368 470 CURVE SMOOTH",
"368 459 OFFCURVE",
"353 435 OFFCURVE",
"340 415 CURVE",
"311 448 OFFCURVE",
"273 469 OFFCURVE",
"226 469 CURVE SMOOTH",
"104 469 OFFCURVE",
"25 344 OFFCURVE",
"19 222 CURVE SMOOTH",
"16 156 OFFCURVE",
"32 96 OFFCURVE",
"63 51 CURVE",
"39 18 OFFCURVE",
"15 -22 OFFCURVE",
"15 -60 CURVE SMOOTH",
"15 -81 OFFCURVE",
"47 -90 OFFCURVE",
"56 -58 CURVE",
"57 -56 OFFCURVE",
"57 -52 OFFCURVE",
"57 -50 CURVE SMOOTH",
"57 -33 OFFCURVE",
"74 -5 OFFCURVE",
"90 19 CURVE",
"121 -10 OFFCURVE",
"161 -28 OFFCURVE",
"207 -28 CURVE SMOOTH",
"337 -29 OFFCURVE",
"406 105 OFFCURVE",
"406 226 CURVE SMOOTH",
"406 276 OFFCURVE",
"392 333 OFFCURVE",
"366 378 CURVE",
"374 388 OFFCURVE",
"381 399 OFFCURVE",
"388 411 CURVE SMOOTH",
"400 430 OFFCURVE",
"411 451 OFFCURVE",
"411 470 CURVE SMOOTH"
);
},
{
closed = 1;
nodes = (
"73 322 OFFCURVE",
"140 418 OFFCURVE",
"225 418 CURVE SMOOTH",
"257 418 OFFCURVE",
"286 399 OFFCURVE",
"307 371 CURVE",
"236 280 OFFCURVE",
"167 187 OFFCURVE",
"96 94 CURVE",
"78 127 OFFCURVE",
"68 170 OFFCURVE",
"70 220 CURVE SMOOTH"
);
},
{
closed = 1;
nodes = (
"354 226 LINE SMOOTH",
"354 124 OFFCURVE",
"297 24 OFFCURVE",
"206 23 CURVE SMOOTH",
"173 23 OFFCURVE",
"143 36 OFFCURVE",
"120 60 CURVE",
"190 151 OFFCURVE",
"259 242 OFFCURVE",
"330 333 CURVE",
"345 300 OFFCURVE",
"354 263 OFFCURVE",
"354 227 CURVE SMOOTH"
);
}
);
width = 428;
}
);
note = oslash;
unicode = 00F8;
},
{
glyphname = oe;
lastChange = "2021-10-07 06:58:36 +0000";
layers = (
{
hints = (
{
horizontal = 1;
place = "{-34, 40}";
type = Stem;
},
{
horizontal = 1;
place = "{277, 40}";
type = Stem;
},
{
place = "{29, 40}";
type = Stem;
},
{
place = "{397, 40}";
type = Stem;
},
{
horizontal = 1;
place = "{-23, 40}";
type = Stem;
},
{
place = "{839, 42}";
type = Stem;
}
);
layerId = "2ADFC918-CAA7-4AF7-825A-5AAC412EF250";
paths = (
{
closed = 1;
nodes = (
"780 157 OFFCURVE",
"729 157 OFFCURVE",
"729 124 CURVE SMOOTH",
"729 114 OFFCURVE",
"729 99 OFFCURVE",
"727 90 CURVE SMOOTH",
"716 43 OFFCURVE",
"637 22 OFFCURVE",
"592 22 CURVE SMOOTH",
"500 22 OFFCURVE",
"451 103 OFFCURVE",
"447 193 CURVE",
"522 167 OFFCURVE",
"614 187 OFFCURVE",
"677 231 CURVE SMOOTH",
"767 294 OFFCURVE",
"781 443 OFFCURVE",
"648 458 CURVE SMOOTH",
"591 465 OFFCURVE",
"531 447 OFFCURVE",
"473 401 CURVE",
"475 401 LINE",
"453 381 OFFCURVE",
"435 357 OFFCURVE",
"422 329 CURVE",
"419 339 OFFCURVE",
"415 349 OFFCURVE",
"410 358 CURVE",
"419 375 OFFCURVE",
"426 394 OFFCURVE",
"426 414 CURVE SMOOTH",
"426 447 OFFCURVE",
"374 447 OFFCURVE",
"374 414 CURVE SMOOTH",
"374 411 LINE",
"356 430 LINE",
"315 467 OFFCURVE",
"251 485 OFFCURVE",
"198 462 CURVE",
"94 475 OFFCURVE",
"23 285 OFFCURVE",
"23 211 CURVE SMOOTH",
"23 85 OFFCURVE",
"83 -40 OFFCURVE",
"228 -40 CURVE SMOOTH",
"319 -40 OFFCURVE",
"385 16 OFFCURVE",
"419 91 CURVE",
"448 22 OFFCURVE",
"507 -29 OFFCURVE",
"592 -29 CURVE SMOOTH",
"660 -29 OFFCURVE",
"750 -1 OFFCURVE",
"775 73 CURVE SMOOTH",
"782 92 OFFCURVE",
"780 105 OFFCURVE",
"780 124 CURVE SMOOTH"
);
},
{
closed = 1;
nodes = (
"202 435 OFFCURVE",
"287 423 OFFCURVE",
"322 391 CURVE SMOOTH",
"331 382 OFFCURVE",
"340 372 OFFCURVE",
"347 361 CURVE",
"320 335 OFFCURVE",
"282 323 OFFCURVE",
"244 323 CURVE SMOOTH",
"208 323 OFFCURVE",
"181 349 OFFCURVE",
"190 384 CURVE SMOOTH"
);
},
{
closed = 1;
nodes = (
"670 403 OFFCURVE",
"695 387 OFFCURVE",
"695 358 CURVE SMOOTH",
"695 287 OFFCURVE",
"618 247 OFFCURVE",
"553 236 CURVE SMOOTH",
"522 231 OFFCURVE",
"480 233 OFFCURVE",
"451 246 CURVE",
"466 338 OFFCURVE",
"541 423 OFFCURVE",
"641 407 CURVE SMOOTH"
);
},
{
closed = 1;
nodes = (
"117 12 OFFCURVE",
"75 110 OFFCURVE",
"75 211 CURVE SMOOTH",
"75 266 OFFCURVE",
"99 331 OFFCURVE",
"138 374 CURVE",
"136 323 OFFCURVE",
"171 271 OFFCURVE",
"244 271 CURVE SMOOTH",
"290 271 OFFCURVE",
"336 285 OFFCURVE",
"372 315 CURVE",
"386 280 OFFCURVE",
"392 242 OFFCURVE",
"392 206 CURVE SMOOTH",
"392 109 OFFCURVE",
"331 12 OFFCURVE",
"228 12 CURVE SMOOTH"
);
}
);
width = 790;
}
);
note = oe;
unicode = 0153;
},
{
glyphname = p;
layers = (
{
hints = (
{
place = "{55, 40}";
type = Stem;
}
);
layerId = "2ADFC918-CAA7-4AF7-825A-5AAC412EF250";
paths = (
{
closed = 1;
nodes = (
"461 273 OFFCURVE",
"416 440 OFFCURVE",
"288 456 CURVE SMOOTH",
"215 465 OFFCURVE",
"157 445 OFFCURVE",
"112 387 CURVE",
"115 427 OFFCURVE",
"124 503 OFFCURVE",
"142 503 CURVE SMOOTH",
"174 503 OFFCURVE",
"161 568 OFFCURVE",
"121 553 CURVE SMOOTH",
"88 541 OFFCURVE",
"74 481 OFFCURVE",
"70 456 CURVE SMOOTH",
"48 323 OFFCURVE",
"50 186 OFFCURVE",
"50 51 CURVE SMOOTH",
"50 -56 OFFCURVE",
"49 -164 OFFCURVE",
"49 -271 CURVE SMOOTH",
"49 -307 OFFCURVE",
"104 -307 OFFCURVE",
"104 -278 CURVE SMOOTH",
"104 -187 OFFCURVE",
"102 -95 OFFCURVE",
"101 -4 CURVE",
"114 -34 OFFCURVE",
"147 -42 OFFCURVE",
"172 -47 CURVE SMOOTH",
"227 -57 OFFCURVE",
"288 -45 OFFCURVE",
"336 -18 CURVE SMOOTH",
"407 21 OFFCURVE",
"442 92 OFFCURVE",
"450 169 CURVE SMOOTH"
);
},
{
closed = 1;
nodes = (
"102 131 OFFCURVE",
"103 159 OFFCURVE",
"103 186 CURVE SMOOTH",
"104 214 OFFCURVE",
"104 240 OFFCURVE",
"106 250 CURVE SMOOTH",
"117 294 OFFCURVE",
"144 355 OFFCURVE",
"179 383 CURVE SMOOTH",
"209 406 OFFCURVE",
"244 410 OFFCURVE",
"282 405 CURVE SMOOTH",
"375 393 OFFCURVE",
"409 258 OFFCURVE",
"399 175 CURVE SMOOTH",
"391 113 OFFCURVE",
"367 59 OFFCURVE",
"312 27 CURVE SMOOTH",
"276 7 OFFCURVE",
"221 -6 OFFCURVE",
"182 4 CURVE SMOOTH",
"156 11 OFFCURVE",
"161 15 OFFCURVE",
"142 27 CURVE SMOOTH",
"124 38 OFFCURVE",
"109 38 OFFCURVE",
"101 29 CURVE",
"101 59 OFFCURVE",
"101 88 OFFCURVE",
"102 118 CURVE SMOOTH"
);
}
);
width = 470;
}
);
note = p;
unicode = 0070;
},
{
glyphname = q;
layers = (
{
hints = (
{
horizontal = 1;
place = "{-305, 55}";
type = Stem;
},
{
horizontal = 1;
place = "{-36, 55}";
type = Stem;
},
{
horizontal = 1;
place = "{444, -20}";
target = down;
type = TopGhost;
},
{
place = "{24, 58}";
type = Stem;
},
{
place = "{340, 54}";
type = Stem;
},
{
place = "{329, 45}";
type = Stem;
}
);
layerId = "2ADFC918-CAA7-4AF7-825A-5AAC412EF250";
paths = (
{
closed = 1;
nodes = (
"512 -278 OFFCURVE",
"491 -227 OFFCURVE",
"462 -247 CURVE SMOOTH",
"440 -261 OFFCURVE",
"427 -232 OFFCURVE",
"416 -195 CURVE SMOOTH",
"404 -155 OFFCURVE",
"397 -103 OFFCURVE",
"394 -75 CURVE SMOOTH",
"384 31 OFFCURVE",
"408 277 OFFCURVE",
"449 370 CURVE SMOOTH",
"458 391 OFFCURVE",
"483 435 OFFCURVE",
"443 444 CURVE SMOOTH",
"413 450 OFFCURVE",
"403 410 OFFCURVE",
"398 389 CURVE",
"385 426 OFFCURVE",
"351 461 OFFCURVE",
"292 469 CURVE SMOOTH",
"230 477 OFFCURVE",
"173 448 OFFCURVE",
"120 403 CURVE SMOOTH",
"44 338 OFFCURVE",
"13 220 OFFCURVE",
"27 123 CURVE SMOOTH",
"40 26 OFFCURVE",
"99 -54 OFFCURVE",
"205 -33 CURVE SMOOTH",
"264 -22 OFFCURVE",
"307 24 OFFCURVE",
"339 72 CURVE SMOOTH",
"343 78 LINE",
"339 25 OFFCURVE",
"338 -28 OFFCURVE",
"343 -81 CURVE SMOOTH",
"347 -131 OFFCURVE",
"353 -182 OFFCURVE",
"370 -230 CURVE SMOOTH",
"388 -283 OFFCURVE",
"422 -327 OFFCURVE",
"482 -294 CURVE SMOOTH"
);
},
{
closed = 1;
nodes = (
"356 226 OFFCURVE",
"337 162 OFFCURVE",
"297 99 CURVE SMOOTH",
"274 62 OFFCURVE",
"238 27 OFFCURVE",
"195 19 CURVE SMOOTH",
"33 -13 OFFCURVE",
"68 291 OFFCURVE",
"156 366 CURVE SMOOTH",
"189 394 OFFCURVE",
"243 425 OFFCURVE",
"285 418 CURVE SMOOTH",
"324 411 OFFCURVE",
"352 394 OFFCURVE",
"352 354 CURVE SMOOTH",
"352 349 OFFCURVE",
"350 347 OFFCURVE",
"347 344 CURVE SMOOTH",
"342 340 LINE SMOOTH",
"324 325 OFFCURVE",
"325 304 OFFCURVE",
"339 295 CURVE SMOOTH",
"349 289 OFFCURVE",
"362 289 OFFCURVE",
"374 297 CURVE"
);
}
);
width = 478;
}
);
note = q;
unicode = 0071;
},
{
glyphname = r;
layers = (
{
hints = (
{
horizontal = 1;
place = "{418, 40}";
type = Stem;
},
{
place = "{38, 40}";
type = Stem;
}
);
layerId = "2ADFC918-CAA7-4AF7-825A-5AAC412EF250";
paths = (
{
closed = 1;
nodes = (
"325 437 OFFCURVE",
"276 464 OFFCURVE",
"226 464 CURVE SMOOTH",
"168 464 OFFCURVE",
"115 426 OFFCURVE",
"82 382 CURVE",
"82 430 LINE SMOOTH",
"82 447 OFFCURVE",
"68 456 OFFCURVE",
"56 456 CURVE SMOOTH",
"44 456 OFFCURVE",
"30 447 OFFCURVE",
"30 430 CURVE SMOOTH",
"30 354 LINE SMOOTH",
"30 297 OFFCURVE",
"32 239 OFFCURVE",
"32 181 CURVE SMOOTH",
"32 111 OFFCURVE",
"30 74 OFFCURVE",
"32 4 CURVE SMOOTH",
"33 -17 OFFCURVE",
"82 -29 OFFCURVE",
"83 4 CURVE SMOOTH",
"84 53 OFFCURVE",
"84 101 OFFCURVE",
"84 150 CURVE SMOOTH",
"84 235 LINE SMOOTH",
"84 283 OFFCURVE",
"102 334 OFFCURVE",
"137 368 CURVE SMOOTH",
"161 391 OFFCURVE",
"193 413 OFFCURVE",
"226 413 CURVE SMOOTH",
"256 413 OFFCURVE",
"285 398 OFFCURVE",
"295 370 CURVE SMOOTH",
"303 348 OFFCURVE",
"298 339 OFFCURVE",
"282 321 CURVE SMOOTH",
"259 295 OFFCURVE",
"289 265 OFFCURVE",
"315 282 CURVE SMOOTH",
"350 305 OFFCURVE",
"356 354 OFFCURVE",
"343 388 CURVE SMOOTH"
);
}
);
width = 360;
}
);
note = r;
unicode = 0072;
},
{
glyphname = s;
layers = (
{
hints = (
{
horizontal = 1;
place = "{-133, 40}";
type = Stem;
},
{
horizontal = 1;
place = "{463, 40}";
type = Stem;
},
{
place = "{-1, 40}";
type = Stem;
},
{
place = "{104, 40}";
type = Stem;
},
{
place = "{449, 40}";
type = Stem;
}
);
layerId = "2ADFC918-CAA7-4AF7-825A-5AAC412EF250";
paths = (
{
closed = 1;
nodes = (
"390 233 OFFCURVE",
"337 248 OFFCURVE",
"289 260 CURVE SMOOTH",
"255 269 OFFCURVE",
"200 281 OFFCURVE",
"174 305 CURVE SMOOTH",
"134 341 OFFCURVE",
"144 401 OFFCURVE",
"185 433 CURVE SMOOTH",
"227 465 OFFCURVE",
"310 467 OFFCURVE",
"348 430 CURVE SMOOTH",
"370 409 OFFCURVE",
"365 401 OFFCURVE",
"356 376 CURVE SMOOTH",
"346 351 OFFCURVE",
"379 316 OFFCURVE",
"401 350 CURVE SMOOTH",
"428 390 OFFCURVE",
"416 439 OFFCURVE",
"382 469 CURVE SMOOTH",
"321 522 OFFCURVE",
"218 520 OFFCURVE",
"154 475 CURVE SMOOTH",
"122 452 OFFCURVE",
"96 413 OFFCURVE",
"96 371 CURVE SMOOTH",
"96 189 OFFCURVE",
"299 241 OFFCURVE",
"397 160 CURVE SMOOTH",
"510 68 OFFCURVE",
"406 -88 OFFCURVE",
"241 -88 CURVE SMOOTH",
"171 -88 OFFCURVE",
"44 -51 OFFCURVE",
"44 35 CURVE SMOOTH",
"44 103 OFFCURVE",
"75 141 OFFCURVE",
"144 132 CURVE SMOOTH",
"163 130 OFFCURVE",
"248 94 OFFCURVE",
"206 67 CURVE SMOOTH",
"175 47 OFFCURVE",
"200 5 OFFCURVE",
"235 24 CURVE SMOOTH",
"245 29 OFFCURVE",
"258 49 OFFCURVE",
"262 58 CURVE SMOOTH",
"311 183 OFFCURVE",
"-7 277 OFFCURVE",
"-7 35 CURVE SMOOTH",
"-7 -87 OFFCURVE",
"145 -139 OFFCURVE",
"241 -139 CURVE SMOOTH",
"297 -139 OFFCURVE",
"356 -120 OFFCURVE",
"403 -90 CURVE SMOOTH",
"508 -25 OFFCURVE",
"532 119 OFFCURVE",
"431 200 CURVE SMOOTH"
);
}
);
width = 523;
}
);
note = s;
unicode = 0073;
},
{
glyphname = germandbls;
layers = (
{
hints = (
{
horizontal = 1;
place = "{408, 49}";
type = Stem;
},
{
horizontal = 1;
place = "{465, -20}";
target = down;
type = TopGhost;
},
{
horizontal = 1;
place = "{674, -20}";
target = down;
type = TopGhost;
},
{
place = "{92, 51}";
type = Stem;
},
{
place = "{310, 50}";
type = Stem;
}
);
layerId = "2ADFC918-CAA7-4AF7-825A-5AAC412EF250";
paths = (
{
closed = 1;
nodes = (
"441 222 OFFCURVE",
"399 271 OFFCURVE",
"325 295 CURVE SMOOTH",
"293 305 OFFCURVE",
"248 319 OFFCURVE",
"235 350 CURVE",
"312 360 OFFCURVE",
"398 431 OFFCURVE",
"403 539 CURVE SMOOTH",
"407 629 OFFCURVE",
"363 674 OFFCURVE",
"275 672 CURVE SMOOTH",
"231 671 OFFCURVE",
"186 653 OFFCURVE",
"162 617 CURVE SMOOTH",
"135 576 OFFCURVE",
"130 500 OFFCURVE",
"116 450 CURVE",
"52 450 OFFCURVE",
"40 435 OFFCURVE",
"37 424 CURVE SMOOTH",
"33 411 OFFCURVE",
"37 397 OFFCURVE",
"54 396 CURVE SMOOTH",
"102 396 LINE",
"93 359 OFFCURVE",
"82 279 OFFCURVE",
"70 224 CURVE SMOOTH",
"52 135 OFFCURVE",
"16 -70 OFFCURVE",
"-34 -137 CURVE SMOOTH",
"-62 -173 OFFCURVE",
"-108 -175 OFFCURVE",
"-137 -137 CURVE SMOOTH",
"-161 -106 OFFCURVE",
"-198 -142 OFFCURVE",
"-177 -169 CURVE SMOOTH",
"-127 -232 OFFCURVE",
"-41 -231 OFFCURVE",
"7 -166 CURVE SMOOTH",
"69 -81 OFFCURVE",
"100 124 OFFCURVE",
"121 231 CURVE SMOOTH",
"130 277 OFFCURVE",
"172 546 OFFCURVE",
"205 589 CURVE SMOOTH",
"227 617 OFFCURVE",
"258 632 OFFCURVE",
"286 632 CURVE SMOOTH",
"344 632 OFFCURVE",
"374 559 OFFCURVE",
"351 493 CURVE SMOOTH",
"332 438 OFFCURVE",
"272 387 OFFCURVE",
"209 391 CURVE",
"163 347 OFFCURVE",
"189 290 OFFCURVE",
"306 251 CURVE SMOOTH",
"362 232 OFFCURVE",
"394 200 OFFCURVE",
"394 142 CURVE SMOOTH",
"394 80 OFFCURVE",
"358 41 OFFCURVE",
"312 23 CURVE SMOOTH",
"241 -4 OFFCURVE",
"148 15 OFFCURVE",
"155 75 CURVE",
"167 116 OFFCURVE",
"116 129 OFFCURVE",
"105 80 CURVE",
"104 -28 OFFCURVE",
"230 -56 OFFCURVE",
"329 -16 CURVE SMOOTH",
"395 11 OFFCURVE",
"447 68 OFFCURVE",
"444 144 CURVE SMOOTH"
);
}
);
width = 474;
}
);
note = germandbls;
unicode = 00DF;
},
{
glyphname = t;
lastChange = "2021-10-06 17:42:54 +0000";
layers = (
{
hints = (
{
horizontal = 1;
place = "{-19, 40}";
type = Stem;
},
{
horizontal = 1;
place = "{424, 40}";
type = Stem;
},
{
place = "{60, 40}";
type = Stem;
}
);
layerId = "2ADFC918-CAA7-4AF7-825A-5AAC412EF250";
paths = (
{
closed = 1;
nodes = (
"242 409 LINE SMOOTH",
"275 409 OFFCURVE",
"275 460 OFFCURVE",
"242 460 CURVE SMOOTH",
"109 460 LINE",
"112 511 OFFCURVE",
"115 573 OFFCURVE",
"115 623 CURVE SMOOTH",
"115 657 OFFCURVE",
"63 657 OFFCURVE",
"63 623 CURVE SMOOTH",
"63 573 OFFCURVE",
"60 511 OFFCURVE",
"58 460 CURVE",
"20 460 LINE SMOOTH",
"-13 460 OFFCURVE",
"-13 409 OFFCURVE",
"20 409 CURVE SMOOTH",
"55 409 LINE",
"52 334 OFFCURVE",
"54 269 OFFCURVE",
"54 195 CURVE SMOOTH",
"54 136 OFFCURVE",
"50 -1 OFFCURVE",
"123 -23 CURVE SMOOTH",
"139 -28 OFFCURVE",
"178 -21 OFFCURVE",
"192 -15 CURVE SMOOTH",
"219 -2 OFFCURVE",
"209 44 OFFCURVE",
"174 34 CURVE SMOOTH",
"161 30 OFFCURVE",
"147 22 OFFCURVE",
"133 27 CURVE SMOOTH",
"103 39 OFFCURVE",
"105 169 OFFCURVE",
"105 195 CURVE SMOOTH",
"105 269 OFFCURVE",
"103 334 OFFCURVE",
"107 409 CURVE"
);
}
);
width = 288;
}
);
note = t;
unicode = 0074;
},
{
glyphname = u;
layers = (
{
hints = (
{
horizontal = 1;
place = "{-23, 40}";
type = Stem;
},
{
horizontal = 1;
place = "{407, 40}";
type = Stem;
},
{
place = "{53, 40}";
type = Stem;
},
{
place = "{342, 40}";
type = Stem;
}
);
layerId = "2ADFC918-CAA7-4AF7-825A-5AAC412EF250";
paths = (
{
closed = 1;
nodes = (
"478 -27 OFFCURVE",
"463 19 OFFCURVE",
"434 19 CURVE SMOOTH",
"415 19 OFFCURVE",
"410 30 OFFCURVE",
"401 49 CURVE SMOOTH",
"381 94 OFFCURVE",
"375 174 OFFCURVE",
"375 225 CURVE SMOOTH",
"375 265 OFFCURVE",
"376 305 OFFCURVE",
"380 344 CURVE SMOOTH",
"381 360 OFFCURVE",
"388 414 OFFCURVE",
"384 426 CURVE SMOOTH",
"377 449 OFFCURVE",
"346 449 OFFCURVE",
"332 430 CURVE SMOOTH",
"324 419 OFFCURVE",
"330 358 OFFCURVE",
"328 341 CURVE SMOOTH",
"325 308 OFFCURVE",
"318 276 OFFCURVE",
"310 245 CURVE SMOOTH",
"291 167 OFFCURVE",
"244 22 OFFCURVE",
"152 22 CURVE SMOOTH",
"104 22 OFFCURVE",
"92 56 OFFCURVE",
"86 101 CURVE SMOOTH",
"74 185 OFFCURVE",
"97 269 OFFCURVE",
"97 353 CURVE SMOOTH",
"97 391 OFFCURVE",
"90 453 OFFCURVE",
"33 453 CURVE SMOOTH",
"-1 453 OFFCURVE",
"-1 401 OFFCURVE",
"33 401 CURVE SMOOTH",
"48 401 OFFCURVE",
"46 361 OFFCURVE",
"46 353 CURVE SMOOTH",
"46 267 OFFCURVE",
"26 182 OFFCURVE",
"35 95 CURVE SMOOTH",
"42 30 OFFCURVE",
"77 -29 OFFCURVE",
"152 -29 CURVE SMOOTH",
"244 -29 OFFCURVE",
"298 60 OFFCURVE",
"329 136 CURVE",
"337 57 OFFCURVE",
"363 -46 OFFCURVE",
"442 -33 CURVE SMOOTH"
);
}
);
width = 443;
}
);
note = u;
unicode = 0075;
},
{
glyphname = v;
layers = (
{
hints = (
{
horizontal = 1;
place = "{400, 40}";
type = Stem;
}
);
layerId = "2ADFC918-CAA7-4AF7-825A-5AAC412EF250";
paths = (
{
closed = 1;
nodes = (
"458 388 OFFCURVE",
"470 445 OFFCURVE",
"424 444 CURVE SMOOTH",
"375 442 OFFCURVE",
"344 392 OFFCURVE",
"324 353 CURVE SMOOTH",
"274 256 OFFCURVE",
"242 156 OFFCURVE",
"207 54 CURVE",
"180 157 OFFCURVE",
"153 280 OFFCURVE",
"99 370 CURVE SMOOTH",
"79 403 OFFCURVE",
"51 446 OFFCURVE",
"4 446 CURVE SMOOTH",
"-30 446 OFFCURVE",
"-30 394 OFFCURVE",
"4 394 CURVE SMOOTH",
"21 394 OFFCURVE",
"46 356 OFFCURVE",
"54 343 CURVE SMOOTH",
"82 297 OFFCURVE",
"100 241 OFFCURVE",
"116 188 CURVE SMOOTH",
"126 155 OFFCURVE",
"172 -21 OFFCURVE",
"183 -34 CURVE SMOOTH",
"198 -54 OFFCURVE",
"209 -55 OFFCURVE",
"226 -37 CURVE SMOOTH",
"236 -27 OFFCURVE",
"297 156 OFFCURVE",
"308 187 CURVE SMOOTH",
"321 222 OFFCURVE",
"384 394 OFFCURVE",
"424 393 CURVE SMOOTH",
"427 393 OFFCURVE",
"428 392 OFFCURVE",
"430 392 CURVE SMOOTH"
);
}
);
width = 440;
}
);
note = v;
unicode = 0076;
},
{
glyphname = w;
layers = (
{
hints = (
{
horizontal = 1;
place = "{-32, 40}";
type = Stem;
},
{
horizontal = 1;
place = "{327, 40}";
type = Stem;
},
{
horizontal = 1;
place = "{400, 40}";
type = Stem;
},
{
place = "{96, 40}";
type = Stem;
},
{
place = "{324, 40}";
type = Stem;
},
{
place = "{566, 40}";
type = Stem;
}
);
layerId = "2ADFC918-CAA7-4AF7-825A-5AAC412EF250";
paths = (
{
closed = 1;
nodes = (
"727 360 OFFCURVE",
"703 401 OFFCURVE",
"672 387 CURVE SMOOTH",
"653 379 OFFCURVE",
"641 373 OFFCURVE",
"621 373 CURVE SMOOTH",
"613 373 OFFCURVE",
"604 374 OFFCURVE",
"596 377 CURVE",
"591 392 OFFCURVE",
"585 407 OFFCURVE",
"578 419 CURVE SMOOTH",
"569 435 OFFCURVE",
"547 463 OFFCURVE",
"525 455 CURVE SMOOTH",
"474 436 OFFCURVE",
"513 362 OFFCURVE",
"552 340 CURVE",
"567 268 OFFCURVE",
"562 124 OFFCURVE",
"522 71 CURVE SMOOTH",
"436 -43 OFFCURVE",
"360 58 OFFCURVE",
"360 167 CURVE",
"366 202 OFFCURVE",
"372 244 OFFCURVE",
"372 273 CURVE SMOOTH",
"372 284 OFFCURVE",
"371 383 OFFCURVE",
"369 390 CURVE SMOOTH",
"362 414 OFFCURVE",
"327 418 OFFCURVE",
"318 393 CURVE SMOOTH",
"311 374 OFFCURVE",
"309 286 OFFCURVE",
"309 267 CURVE SMOOTH",
"309 241 OFFCURVE",
"308 204 OFFCURVE",
"310 167 CURVE",
"303 132 OFFCURVE",
"293 99 OFFCURVE",
"278 73 CURVE SMOOTH",
"257 37 OFFCURVE",
"233 14 OFFCURVE",
"191 14 CURVE SMOOTH",
"102 14 OFFCURVE",
"125 151 OFFCURVE",
"131 205 CURVE SMOOTH",
"136 253 OFFCURVE",
"142 301 OFFCURVE",
"142 349 CURVE SMOOTH",
"142 497 OFFCURVE",
"-11 449 OFFCURVE",
"-28 378 CURVE SMOOTH",
"-35 347 OFFCURVE",
"5 329 OFFCURVE",
"20 360 CURVE SMOOTH",
"34 387 OFFCURVE",
"33 394 OFFCURVE",
"68 394 CURVE SMOOTH",
"91 394 OFFCURVE",
"90 365 OFFCURVE",
"90 349 CURVE SMOOTH",
"90 303 OFFCURVE",
"85 257 OFFCURVE",
"80 211 CURVE SMOOTH",
"69 120 OFFCURVE",
"54 -37 OFFCURVE",
"191 -37 CURVE SMOOTH",
"258 -37 OFFCURVE",
"301 4 OFFCURVE",
"328 59 CURVE",
"372 -63 OFFCURVE",
"503 -52 OFFCURVE",
"564 44 CURVE SMOOTH",
"606 109 OFFCURVE",
"620 241 OFFCURVE",
"608 323 CURVE",
"640 319 OFFCURVE",
"673 323 OFFCURVE",
"699 341 CURVE SMOOTH"
);
}
);
width = 729;
}
);
note = w;
unicode = 0077;
},
{
glyphname = x;
layers = (
{
hints = (
{
horizontal = 1;
place = "{434, 40}";
type = Stem;
},
{
place = "{-8, 40}";
type = Stem;
},
{
place = "{305, 40}";
type = Stem;
}
);
layerId = "2ADFC918-CAA7-4AF7-825A-5AAC412EF250";
paths = (
{
closed = 1;
nodes = (
"534 249 OFFCURVE",
"486 260 OFFCURVE",
"483 225 CURVE SMOOTH",
"481 197 OFFCURVE",
"457 17 OFFCURVE",
"357 26 CURVE SMOOTH",
"311 30 OFFCURVE",
"273 97 OFFCURVE",
"252 137 CURVE SMOOTH",
"234 170 OFFCURVE",
"219 204 OFFCURVE",
"205 238 CURVE",
"229 267 OFFCURVE",
"254 295 OFFCURVE",
"277 325 CURVE SMOOTH",
"304 359 OFFCURVE",
"351 417 OFFCURVE",
"351 462 CURVE SMOOTH",
"351 495 OFFCURVE",
"299 495 OFFCURVE",
"299 462 CURVE SMOOTH",
"299 429 OFFCURVE",
"209 322 OFFCURVE",
"183 291 CURVE",
"169 322 OFFCURVE",
"155 354 OFFCURVE",
"140 384 CURVE SMOOTH",
"120 422 OFFCURVE",
"90 480 OFFCURVE",
"35 480 CURVE SMOOTH",
"2 480 OFFCURVE",
"2 428 OFFCURVE",
"35 428 CURVE SMOOTH",
"58 428 OFFCURVE",
"85 377 OFFCURVE",
"94 360 CURVE SMOOTH",
"113 323 OFFCURVE",
"129 285 OFFCURVE",
"145 247 CURVE",
"120 216 OFFCURVE",
"94 186 OFFCURVE",
"70 154 CURVE SMOOTH",
"36 110 OFFCURVE",
"-14 43 OFFCURVE",
"-14 -15 CURVE SMOOTH",
"-14 -49 OFFCURVE",
"38 -45 OFFCURVE",
"38 -7 CURVE SMOOTH",
"38 -3 LINE SMOOTH",
"38 37 OFFCURVE",
"136 157 OFFCURVE",
"168 195 CURVE",
"180 167 OFFCURVE",
"193 140 OFFCURVE",
"207 113 CURVE SMOOTH",
"236 59 OFFCURVE",
"280 -17 OFFCURVE",
"351 -26 CURVE SMOOTH",
"467 -40 OFFCURVE",
"528 129 OFFCURVE",
"532 214 CURVE SMOOTH"
);
}
);
width = 513;
}
);
note = x;
unicode = 0078;
},
{
glyphname = y;
layers = (
{
hints = (
{
horizontal = 1;
place = "{-21, 40}";
type = Stem;
},
{
place = "{340, 40}";
type = Stem;
}
);
layerId = "2ADFC918-CAA7-4AF7-825A-5AAC412EF250";
paths = (
{
closed = 1;
nodes = (
"387 -87 OFFCURVE",
"381 -82 OFFCURVE",
"373 -77 CURVE",
"383 -30 OFFCURVE",
"386 19 OFFCURVE",
"386 67 CURVE SMOOTH",
"387 117 OFFCURVE",
"384 167 OFFCURVE",
"384 213 CURVE",
"384 213 OFFCURVE",
"384 321 OFFCURVE",
"385 354 CURVE SMOOTH",
"386 369 OFFCURVE",
"388 386 OFFCURVE",
"388 401 CURVE SMOOTH",
"388 415 OFFCURVE",
"384 431 OFFCURVE",
"366 432 CURVE SMOOTH",
"343 434 OFFCURVE",
"332 417 OFFCURVE",
"331 391 CURVE SMOOTH",
"330 372 OFFCURVE",
"330 295 OFFCURVE",
"328 276 CURVE SMOOTH",
"326 253 OFFCURVE",
"276 25 OFFCURVE",
"173 25 CURVE SMOOTH",
"111 25 OFFCURVE",
"92 73 OFFCURVE",
"90 135 CURVE SMOOTH",
"88 197 OFFCURVE",
"103 270 OFFCURVE",
"105 311 CURVE SMOOTH",
"107 346 OFFCURVE",
"117 409 OFFCURVE",
"76 429 CURVE SMOOTH",
"46 443 OFFCURVE",
"25 406 OFFCURVE",
"54 381 CURVE",
"56 362 OFFCURVE",
"56 338 OFFCURVE",
"54 316 CURVE SMOOTH",
"46 236 OFFCURVE",
"25 150 OFFCURVE",
"47 71 CURVE SMOOTH",
"66 2 OFFCURVE",
"108 -26 OFFCURVE",
"170 -26 CURVE SMOOTH",
"256 -26 OFFCURVE",
"307 54 OFFCURVE",
"334 124 CURVE",
"335 103 OFFCURVE",
"336 80 OFFCURVE",
"336 56 CURVE SMOOTH",
"336 21 OFFCURVE",
"334 -16 OFFCURVE",
"326 -55 CURVE",
"235 -26 OFFCURVE",
"128 -64 OFFCURVE",
"72 -142 CURVE SMOOTH",
"34 -196 OFFCURVE",
"30 -283 OFFCURVE",
"115 -298 CURVE SMOOTH",
"175 -309 OFFCURVE",
"244 -278 OFFCURVE",
"286 -239 CURVE SMOOTH",
"320 -208 OFFCURVE",
"343 -171 OFFCURVE",
"357 -131 CURVE",
"388 -152 OFFCURVE",
"408 -117 OFFCURVE",
"392 -94 CURVE SMOOTH"
);
},
{
closed = 1;
nodes = (
"300 -141 OFFCURVE",
"280 -175 OFFCURVE",
"250 -203 CURVE SMOOTH",
"216 -234 OFFCURVE",
"168 -255 OFFCURVE",
"123 -247 CURVE SMOOTH",
"91 -241 OFFCURVE",
"102 -193 OFFCURVE",
"115 -171 CURVE SMOOTH",
"149 -116 OFFCURVE",
"233 -87 OFFCURVE",
"295 -100 CURVE SMOOTH",
"302 -101 OFFCURVE",
"308 -103 OFFCURVE",
"313 -105 CURVE"
);
}
);
width = 432;
}
);
note = y;
unicode = 0079;
},
{
glyphname = z;
layers = (
{
hints = (
{
horizontal = 1;
place = "{-70, 40}";
type = Stem;
},
{
horizontal = 1;
place = "{73, 40}";
type = Stem;
},
{
horizontal = 1;
place = "{407, 40}";
type = Stem;
}
);
layerId = "2ADFC918-CAA7-4AF7-825A-5AAC412EF250";
paths = (
{
closed = 1;
nodes = (
"446 -99 OFFCURVE",
"438 -84 OFFCURVE",
"434 -77 CURVE SMOOTH",
"421 -56 OFFCURVE",
"402 -44 OFFCURVE",
"381 -36 CURVE",
"372 107 OFFCURVE",
"249 133 OFFCURVE",
"169 112 CURVE",
"182 128 LINE SMOOTH",
"204 154 OFFCURVE",
"247 203 OFFCURVE",
"332 300 CURVE SMOOTH",
"356 328 OFFCURVE",
"419 391 OFFCURVE",
"423 426 CURVE SMOOTH",
"425 443 OFFCURVE",
"413 451 OFFCURVE",
"391 449 CURVE SMOOTH",
"308 441 OFFCURVE",
"151 471 OFFCURVE",
"81 440 CURVE SMOOTH",
"36 420 OFFCURVE",
"-8 350 OFFCURVE",
"38 306 CURVE SMOOTH",
"62 282 OFFCURVE",
"93 319 OFFCURVE",
"74 343 CURVE",
"55 354 OFFCURVE",
"88 385 OFFCURVE",
"102 392 CURVE SMOOTH",
"143 411 OFFCURVE",
"293 397 OFFCURVE",
"346 396 CURVE",
"328 376 OFFCURVE",
"311 354 OFFCURVE",
"294 334 CURVE SMOOTH",
"248 281 OFFCURVE",
"43 57 OFFCURVE",
"28 11 CURVE SMOOTH",
"21 -11 OFFCURVE",
"49 -38 OFFCURVE",
"69 -20 CURVE SMOOTH",
"75 -15 OFFCURVE",
"79 -9 OFFCURVE",
"84 -4 CURVE SMOOTH",
"115 34 OFFCURVE",
"166 68 OFFCURVE",
"216 68 CURVE SMOOTH",
"288 68 OFFCURVE",
"319 38 OFFCURVE",
"328 -25 CURVE",
"305 -25 LINE SMOOTH",
"261 -25 OFFCURVE",
"205 -36 OFFCURVE",
"164 -54 CURVE SMOOTH",
"115 -75 OFFCURVE",
"68 -114 OFFCURVE",
"53 -167 CURVE SMOOTH",
"2 -344 OFFCURVE",
"246 -328 OFFCURVE",
"329 -219 CURVE SMOOTH",
"358 -182 OFFCURVE",
"376 -139 OFFCURVE",
"381 -94 CURVE",
"385 -97 OFFCURVE",
"389 -101 OFFCURVE",
"392 -105 CURVE",
"396 -113 OFFCURVE",
"395 -113 OFFCURVE",
"398 -121 CURVE SMOOTH",
"412 -151 OFFCURVE",
"451 -140 OFFCURVE",
"447 -108 CURVE SMOOTH"
);
},
{
closed = 1;
nodes = (
"328 -117 OFFCURVE",
"316 -159 OFFCURVE",
"290 -191 CURVE SMOOTH",
"266 -221 OFFCURVE",
"208 -247 OFFCURVE",
"161 -250 CURVE SMOOTH",
"114 -254 OFFCURVE",
"83 -237 OFFCURVE",
"101 -184 CURVE SMOOTH",
"125 -111 OFFCURVE",
"232 -76 OFFCURVE",
"305 -76 CURVE SMOOTH",
"313 -76 OFFCURVE",
"321 -76 OFFCURVE",
"330 -77 CURVE"
);
}
);
width = 416;
}
);
note = z;
unicode = 007A;
},
{
glyphname = a.ss01;
lastChange = "2021-10-09 07:18:02 +0000";
layers = (
{
hints = (
{
horizontal = 1;
place = "{495, -20}";
target = down;
type = TopGhost;
},
{
place = "{329, 50}";
type = Stem;
}
);
layerId = "2ADFC918-CAA7-4AF7-825A-5AAC412EF250";
paths = (
{
closed = 1;
nodes = (
"341 284 LINE",
"340 256 OFFCURVE",
"333 221 OFFCURVE",
"333 182 CURVE",
"318 44 OFFCURVE",
"199 -4 OFFCURVE",
"136 21 CURVE SMOOTH",
"94 37 OFFCURVE",
"66 79 OFFCURVE",
"83 144 CURVE SMOOTH",
"93 182 OFFCURVE",
"117 213 OFFCURVE",
"149 238 CURVE SMOOTH",
"205 283 OFFCURVE",
"286 302 OFFCURVE",
"340 284 CURVE"
);
},
{
closed = 1;
nodes = (
"328 49 LINE SMOOTH",
"328 -5 OFFCURVE",
"351 -34 OFFCURVE",
"376 -34 CURVE SMOOTH",
"409 -33 OFFCURVE",
"418 14 OFFCURVE",
"388 17 CURVE",
"382 20 OFFCURVE",
"376 12 OFFCURVE",
"378 59 CURVE SMOOTH",
"391 328 OFFCURVE",
"425 454 OFFCURVE",
"288 490 CURVE SMOOTH",
"213 509 OFFCURVE",
"118 474 OFFCURVE",
"82 432 CURVE SMOOTH",
"73 421 OFFCURVE",
"71 408 OFFCURVE",
"71 396 CURVE SMOOTH",
"71 363 OFFCURVE",
"121 363 OFFCURVE",
"122 396 CURVE",
"133 428 OFFCURVE",
"222 454 OFFCURVE",
"275 442 CURVE SMOOTH",
"320 432 OFFCURVE",
"337 403 OFFCURVE",
"341 336 CURVE",
"271 351 OFFCURVE",
"181 329 OFFCURVE",
"117 279 CURVE SMOOTH",
"78 249 OFFCURVE",
"47 207 OFFCURVE",
"34 158 CURVE SMOOTH",
"11 69 OFFCURVE",
"53 -3 OFFCURVE",
"117 -28 CURVE SMOOTH",
"185 -54 OFFCURVE",
"271 -35 OFFCURVE",
"328 50 CURVE"
);
}
);
width = 437;
}
);
note = a;
},
{
glyphname = ae.ss01;
lastChange = "2021-10-09 07:18:02 +0000";
layers = (
{
hints = (
{
horizontal = 1;
place = "{-14, 24}";
type = Stem;
},
{
horizontal = 1;
place = "{389, -20}";
target = down;
type = TopGhost;
},
{
place = "{303, 24}";
type = Stem;
}
);
layerId = "2ADFC918-CAA7-4AF7-825A-5AAC412EF250";
paths = (
{
closed = 1;
nodes = (
"627 273 OFFCURVE",
"480 232 OFFCURVE",
"394 276 CURVE",
"414 357 OFFCURVE",
"466 421 OFFCURVE",
"543 421 CURVE SMOOTH",
"611 421 OFFCURVE",
"640 392 OFFCURVE",
"635 345 CURVE SMOOTH"
);
},
{
closed = 1;
nodes = (
"341 284 LINE",
"340 256 OFFCURVE",
"333 221 OFFCURVE",
"333 182 CURVE",
"318 44 OFFCURVE",
"199 -4 OFFCURVE",
"136 21 CURVE SMOOTH",
"94 37 OFFCURVE",
"66 79 OFFCURVE",
"83 144 CURVE SMOOTH",
"93 182 OFFCURVE",
"117 213 OFFCURVE",
"149 238 CURVE SMOOTH",
"205 283 OFFCURVE",
"286 302 OFFCURVE",
"340 284 CURVE"
);
},
{
closed = 1;
nodes = (
"328 49 LINE SMOOTH",
"328 -5 OFFCURVE",
"351 -34 OFFCURVE",
"376 -34 CURVE SMOOTH",
"409 -33 OFFCURVE",
"418 14 OFFCURVE",
"388 17 CURVE",
"383 20 OFFCURVE",
"377 13 OFFCURVE",
"378 47 CURVE",
"452 -70 OFFCURVE",
"610 -51 OFFCURVE",
"669 41 CURVE",
"670 41 LINE",
"679 54 OFFCURVE",
"685 64 OFFCURVE",
"690 75 CURVE SMOOTH",
"703 106 OFFCURVE",
"655 124 OFFCURVE",
"642 93 CURVE",
"641 87 OFFCURVE",
"634 80 OFFCURVE",
"621 62 CURVE",
"623 61 LINE",
"568 -11 OFFCURVE",
"373 -20 OFFCURVE",
"387 210 CURVE SMOOTH",
"388 222 LINE",
"388 222 LINE",
"500 185 OFFCURVE",
"672 224 OFFCURVE",
"686 341 CURVE SMOOTH",
"696 418 OFFCURVE",
"632 472 OFFCURVE",
"544 472 CURVE SMOOTH",
"473 472 OFFCURVE",
"421 436 OFFCURVE",
"386 383 CURVE",
"376 440 OFFCURVE",
"349 474 OFFCURVE",
"288 490 CURVE SMOOTH",
"213 509 OFFCURVE",
"118 474 OFFCURVE",
"82 432 CURVE SMOOTH",
"73 421 OFFCURVE",
"71 408 OFFCURVE",
"71 396 CURVE SMOOTH",
"71 363 OFFCURVE",
"121 363 OFFCURVE",
"122 396 CURVE",
"133 428 OFFCURVE",
"222 454 OFFCURVE",
"275 442 CURVE SMOOTH",
"320 432 OFFCURVE",
"337 403 OFFCURVE",
"341 336 CURVE",
"271 351 OFFCURVE",
"181 329 OFFCURVE",
"117 279 CURVE SMOOTH",
"78 249 OFFCURVE",
"47 207 OFFCURVE",
"34 158 CURVE SMOOTH",
"11 69 OFFCURVE",
"53 -3 OFFCURVE",
"117 -28 CURVE SMOOTH",
"185 -54 OFFCURVE",
"271 -35 OFFCURVE",
"328 50 CURVE"
);
}
);
width = 719;
}
);
note = ae;
},
{
glyphname = b.ss01;
lastChange = "2021-10-09 07:18:02 +0000";
layers = (
{
hints = (
{
horizontal = 1;
place = "{672, -20}";
target = down;
type = TopGhost;
},
{
place = "{55, 51}";
type = Stem;
}
);
layerId = "2ADFC918-CAA7-4AF7-825A-5AAC412EF250";
paths = (
{
closed = 1;
nodes = (
"98 73 LINE SMOOTH",
"110 145 OFFCURVE",
"111 227 OFFCURVE",
"106 306 CURVE",
"127 381 OFFCURVE",
"173 421 OFFCURVE",
"221 421 CURVE",
"221 421 LINE",
"302 421 OFFCURVE",
"394 363 OFFCURVE",
"375 197 CURVE SMOOTH",
"355 15 OFFCURVE",
"186 -17 OFFCURVE",
"150 31 CURVE",
"145 33 OFFCURVE",
"139 53 OFFCURVE",
"139 53 CURVE",
"133 73 OFFCURVE",
"111 79 OFFCURVE",
"98 72 CURVE"
);
},
{
closed = 1;
nodes = (
"94 21 OFFCURVE",
"102 8 OFFCURVE",
"111 -4 CURVE",
"189 -86 OFFCURVE",
"398 -31 OFFCURVE",
"426 190 CURVE SMOOTH",
"450 384 OFFCURVE",
"328 481 OFFCURVE",
"216 470 CURVE SMOOTH",
"173 466 OFFCURVE",
"131 445 OFFCURVE",
"99 405 CURVE",
"95 496 OFFCURVE",
"89 572 OFFCURVE",
"99 610 CURVE SMOOTH",
"103 623 OFFCURVE",
"100 617 OFFCURVE",
"104 620 CURVE SMOOTH",
"131 638 OFFCURVE",
"114 682 OFFCURVE",
"87 667 CURVE",
"68 664 OFFCURVE",
"50 644 OFFCURVE",
"50 623 CURVE",
"34 557 OFFCURVE",
"54 443 OFFCURVE",
"54 310 CURVE",
"55 302 OFFCURVE",
"49 294 OFFCURVE",
"49 286 CURVE SMOOTH",
"49 276 OFFCURVE",
"51 269 OFFCURVE",
"56 264 CURVE",
"56 189 OFFCURVE",
"53 112 OFFCURVE",
"37 34 CURVE SMOOTH",
"27 -16 OFFCURVE",
"71 -29 OFFCURVE",
"85 20 CURVE SMOOTH",
"87 26 OFFCURVE",
"89 32 OFFCURVE",
"90 38 CURVE"
);
}
);
width = 443;
}
);
note = b;
},
